<?xml version="1.0" encoding="UTF-8" standalone="no"?>
<!DOCTYPE svg PUBLIC "-//W3C//DTD SVG 1.1//EN"
 "http://www.w3.org/Graphics/SVG/1.1/DTD/svg11.dtd">
<!-- Generated by graphviz version 2.43.0 (0)
 -->
<!-- Title: snakemake_dag Pages: 1 -->
<svg width="2309pt" height="1268pt"
 viewBox="0.00 0.00 2308.50 1268.00" xmlns="http://www.w3.org/2000/svg" xmlns:xlink="http://www.w3.org/1999/xlink">
<g id="graph0" class="graph" transform="scale(1 1) rotate(0) translate(4 1264)">
<title>snakemake_dag</title>
<polygon fill="white" stroke="transparent" points="-4,4 -4,-1264 2304.5,-1264 2304.5,4 -4,4"/>
<!-- 0 -->
<g id="node1" class="node">
<title>0</title>
<path fill="none" stroke="#56d8a2" stroke-width="2" d="M1660,-36C1660,-36 1562,-36 1562,-36 1556,-36 1550,-30 1550,-24 1550,-24 1550,-12 1550,-12 1550,-6 1556,0 1562,0 1562,0 1660,0 1660,0 1666,0 1672,-6 1672,-12 1672,-12 1672,-24 1672,-24 1672,-30 1666,-36 1660,-36"/>
<text text-anchor="middle" x="1611" y="-15.5" font-family="sans" font-size="10.00">push_cellcomposition</text>
</g>
<!-- 1 -->
<g id="node2" class="node">
<title>1</title>
<path fill="none" stroke="#56a2d8" stroke-width="2" d="M1635,-180C1635,-180 1447,-180 1447,-180 1441,-180 1435,-174 1435,-168 1435,-168 1435,-156 1435,-156 1435,-150 1441,-144 1447,-144 1447,-144 1635,-144 1635,-144 1641,-144 1647,-150 1647,-156 1647,-156 1647,-168 1647,-168 1647,-174 1641,-180 1635,-180"/>
<text text-anchor="middle" x="1541" y="-159.5" font-family="sans" font-size="10.00">create_cellCompositionVolume_payload</text>
</g>
<!-- 1&#45;&gt;0 -->
<g id="edge1" class="edge">
<title>1&#45;&gt;0</title>
<path fill="none" stroke="grey" stroke-width="2" d="M1541.86,-143.99C1543.41,-125.34 1547.77,-95.02 1560,-72 1565.65,-61.36 1574.07,-51.36 1582.44,-42.98"/>
<polygon fill="grey" stroke="grey" stroke-width="2" points="1584.88,-45.48 1589.72,-36.05 1580.06,-40.41 1584.88,-45.48"/>
</g>
<!-- 47 -->
<g id="node48" class="node">
<title>47</title>
<path fill="none" stroke="#61d856" stroke-width="2" d="M1780.5,-108C1780.5,-108 1581.5,-108 1581.5,-108 1575.5,-108 1569.5,-102 1569.5,-96 1569.5,-96 1569.5,-84 1569.5,-84 1569.5,-78 1575.5,-72 1581.5,-72 1581.5,-72 1780.5,-72 1780.5,-72 1786.5,-72 1792.5,-78 1792.5,-84 1792.5,-84 1792.5,-96 1792.5,-96 1792.5,-102 1786.5,-108 1780.5,-108"/>
<text text-anchor="middle" x="1681" y="-87.5" font-family="sans" font-size="10.00">create_cellCompositionSummary_payload</text>
</g>
<!-- 1&#45;&gt;47 -->
<g id="edge81" class="edge">
<title>1&#45;&gt;47</title>
<path fill="none" stroke="grey" stroke-width="2" d="M1575.25,-143.88C1594.06,-134.47 1617.58,-122.71 1637.67,-112.67"/>
<polygon fill="grey" stroke="grey" stroke-width="2" points="1639.24,-115.79 1646.62,-108.19 1636.11,-109.53 1639.24,-115.79"/>
</g>
<!-- 2 -->
<g id="node3" class="node">
<title>2</title>
<path fill="none" stroke="#56d8c1" stroke-width="2" d="M1563.5,-252C1563.5,-252 1342.5,-252 1342.5,-252 1336.5,-252 1330.5,-246 1330.5,-240 1330.5,-240 1330.5,-228 1330.5,-228 1330.5,-222 1336.5,-216 1342.5,-216 1342.5,-216 1563.5,-216 1563.5,-216 1569.5,-216 1575.5,-222 1575.5,-228 1575.5,-228 1575.5,-240 1575.5,-240 1575.5,-246 1569.5,-252 1563.5,-252"/>
<text text-anchor="middle" x="1453" y="-231.5" font-family="sans" font-size="10.00">push_celldensity_transplant_pipeline_datasets</text>
</g>
<!-- 2&#45;&gt;1 -->
<g id="edge3" class="edge">
<title>2&#45;&gt;1</title>
<path fill="none" stroke="grey" stroke-width="2" d="M1474.75,-215.7C1485.84,-206.88 1499.47,-196.03 1511.49,-186.47"/>
<polygon fill="grey" stroke="grey" stroke-width="2" points="1513.85,-189.07 1519.5,-180.1 1509.49,-183.59 1513.85,-189.07"/>
</g>
<!-- 3 -->
<g id="node4" class="node">
<title>3</title>
<path fill="none" stroke="#c6d856" stroke-width="2" d="M1558.5,-324C1558.5,-324 1347.5,-324 1347.5,-324 1341.5,-324 1335.5,-318 1335.5,-312 1335.5,-312 1335.5,-300 1335.5,-300 1335.5,-294 1341.5,-288 1347.5,-288 1347.5,-288 1558.5,-288 1558.5,-288 1564.5,-288 1570.5,-294 1570.5,-300 1570.5,-300 1570.5,-312 1570.5,-312 1570.5,-318 1564.5,-324 1558.5,-324"/>
<text text-anchor="middle" x="1453" y="-303.5" font-family="sans" font-size="10.00">transplant_glia_cell_densities_correctednissl</text>
</g>
<!-- 3&#45;&gt;2 -->
<g id="edge4" class="edge">
<title>3&#45;&gt;2</title>
<path fill="none" stroke="grey" stroke-width="2" d="M1453,-287.7C1453,-279.98 1453,-270.71 1453,-262.11"/>
<polygon fill="grey" stroke="grey" stroke-width="2" points="1456.5,-262.1 1453,-252.1 1449.5,-262.1 1456.5,-262.1"/>
</g>
<!-- 4 -->
<g id="node5" class="node">
<title>4</title>
<path fill="none" stroke="#88d856" stroke-width="2" d="M1021,-828C1021,-828 901,-828 901,-828 895,-828 889,-822 889,-816 889,-816 889,-804 889,-804 889,-798 895,-792 901,-792 901,-792 1021,-792 1021,-792 1027,-792 1033,-798 1033,-804 1033,-804 1033,-816 1033,-816 1033,-822 1027,-828 1021,-828"/>
<text text-anchor="middle" x="961" y="-807.5" font-family="sans" font-size="10.00">split_barrel_ccfv2_l23split</text>
</g>
<!-- 4&#45;&gt;3 -->
<g id="edge10" class="edge">
<title>4&#45;&gt;3</title>
<path fill="none" stroke="grey" stroke-width="2" d="M1033.35,-793.37C1036.26,-792.88 1039.16,-792.42 1042,-792 1131.37,-778.7 1374.39,-809.78 1447,-756 1481.29,-730.6 1483,-709.67 1483,-667 1483,-667 1483,-667 1483,-449 1483,-408.16 1470.97,-362.11 1462.15,-333.82"/>
<polygon fill="grey" stroke="grey" stroke-width="2" points="1465.46,-332.69 1459.07,-324.24 1458.8,-334.83 1465.46,-332.69"/>
</g>
<!-- 20 -->
<g id="node21" class="node">
<title>20</title>
<path fill="none" stroke="#56d85b" stroke-width="2" d="M1367,-684C1367,-684 1211,-684 1211,-684 1205,-684 1199,-678 1199,-672 1199,-672 1199,-660 1199,-660 1199,-654 1205,-648 1211,-648 1211,-648 1367,-648 1367,-648 1373,-648 1379,-654 1379,-660 1379,-660 1379,-672 1379,-672 1379,-678 1373,-684 1367,-684"/>
<text text-anchor="middle" x="1289" y="-663.5" font-family="sans" font-size="10.00">glia_cell_densities_correctednissl</text>
</g>
<!-- 4&#45;&gt;20 -->
<g id="edge35" class="edge">
<title>4&#45;&gt;20</title>
<path fill="none" stroke="grey" stroke-width="2" d="M1032.52,-791.98C1076.03,-780.99 1126.96,-766.77 1147,-756 1168.66,-744.36 1168.68,-733.84 1189,-720 1205.85,-708.52 1225.48,-697.64 1242.85,-688.75"/>
<polygon fill="grey" stroke="grey" stroke-width="2" points="1244.88,-691.65 1252.25,-684.03 1241.74,-685.4 1244.88,-691.65"/>
</g>
<!-- 21 -->
<g id="node22" class="node">
<title>21</title>
<path fill="none" stroke="#56c1d8" stroke-width="2" d="M1335.5,-756C1335.5,-756 1210.5,-756 1210.5,-756 1204.5,-756 1198.5,-750 1198.5,-744 1198.5,-744 1198.5,-732 1198.5,-732 1198.5,-726 1204.5,-720 1210.5,-720 1210.5,-720 1335.5,-720 1335.5,-720 1341.5,-720 1347.5,-726 1347.5,-732 1347.5,-732 1347.5,-744 1347.5,-744 1347.5,-750 1341.5,-756 1335.5,-756"/>
<text text-anchor="middle" x="1273" y="-735.5" font-family="sans" font-size="10.00">cell_density_correctednissl</text>
</g>
<!-- 4&#45;&gt;21 -->
<g id="edge38" class="edge">
<title>4&#45;&gt;21</title>
<path fill="none" stroke="grey" stroke-width="2" d="M1033.36,-792.76C1079.68,-782.37 1139.95,-768.85 1188.47,-757.97"/>
<polygon fill="grey" stroke="grey" stroke-width="2" points="1189.33,-761.36 1198.32,-755.76 1187.79,-754.53 1189.33,-761.36"/>
</g>
<!-- 23 -->
<g id="node24" class="node">
<title>23</title>
<path fill="none" stroke="#80d856" stroke-width="2" d="M1603,-756C1603,-756 1523,-756 1523,-756 1517,-756 1511,-750 1511,-744 1511,-744 1511,-732 1511,-732 1511,-726 1517,-720 1523,-720 1523,-720 1603,-720 1603,-720 1609,-720 1615,-726 1615,-732 1615,-732 1615,-744 1615,-744 1615,-750 1609,-756 1603,-756"/>
<text text-anchor="middle" x="1563" y="-735.5" font-family="sans" font-size="10.00">combine_markers</text>
</g>
<!-- 4&#45;&gt;23 -->
<g id="edge46" class="edge">
<title>4&#45;&gt;23</title>
<path fill="none" stroke="grey" stroke-width="2" d="M1033.34,-793.34C1036.26,-792.86 1039.16,-792.41 1042,-792 1242.79,-763.11 1296.92,-789.42 1497,-756 1498.28,-755.79 1499.57,-755.56 1500.87,-755.32"/>
<polygon fill="grey" stroke="grey" stroke-width="2" points="1501.83,-758.7 1510.94,-753.3 1500.45,-751.84 1501.83,-758.7"/>
</g>
<!-- 30 -->
<g id="node31" class="node">
<title>30</title>
<path fill="none" stroke="#ced856" stroke-width="2" d="M1134.5,-324C1134.5,-324 839.5,-324 839.5,-324 833.5,-324 827.5,-318 827.5,-312 827.5,-312 827.5,-300 827.5,-300 827.5,-294 833.5,-288 839.5,-288 839.5,-288 1134.5,-288 1134.5,-288 1140.5,-288 1146.5,-294 1146.5,-300 1146.5,-300 1146.5,-312 1146.5,-312 1146.5,-318 1140.5,-324 1134.5,-324"/>
<text text-anchor="middle" x="987" y="-303.5" font-family="sans" font-size="10.00">transplant_inhibitory_neuron_densities_linprog_correctednissl</text>
</g>
<!-- 4&#45;&gt;30 -->
<g id="edge47" class="edge">
<title>4&#45;&gt;30</title>
<path fill="none" stroke="grey" stroke-width="2" d="M888.67,-808.08C698.95,-805.14 197.22,-793.85 133,-756 92.53,-732.15 76,-713.97 76,-667 76,-667 76,-667 76,-593 76,-575.32 0.46,-591.55 218,-504 286.83,-476.3 308.91,-485.53 381,-468 575.57,-420.69 803.41,-358.24 916.25,-326.84"/>
<polygon fill="grey" stroke="grey" stroke-width="2" points="917.45,-330.14 926.15,-324.08 915.57,-323.39 917.45,-330.14"/>
</g>
<!-- 31 -->
<g id="node32" class="node">
<title>31</title>
<path fill="none" stroke="#5692d8" stroke-width="2" d="M1102,-468C1102,-468 862,-468 862,-468 856,-468 850,-462 850,-456 850,-456 850,-444 850,-444 850,-438 856,-432 862,-432 862,-432 1102,-432 1102,-432 1108,-432 1114,-438 1114,-444 1114,-444 1114,-456 1114,-456 1114,-462 1108,-468 1102,-468"/>
<text text-anchor="middle" x="982" y="-447.5" font-family="sans" font-size="10.00">inhibitory_neuron_densities_linprog_correctednissl</text>
</g>
<!-- 4&#45;&gt;31 -->
<g id="edge50" class="edge">
<title>4&#45;&gt;31</title>
<path fill="none" stroke="grey" stroke-width="2" d="M888.93,-809.79C725.87,-810.64 333.43,-807.13 213,-756 158.54,-732.88 114,-726.17 114,-667 114,-667 114,-667 114,-593 114,-520.38 593.33,-477.27 839.59,-459.92"/>
<polygon fill="grey" stroke="grey" stroke-width="2" points="839.97,-463.4 849.7,-459.21 839.48,-456.42 839.97,-463.4"/>
</g>
<!-- 32 -->
<g id="node33" class="node">
<title>32</title>
<path fill="none" stroke="#56a9d8" stroke-width="2" d="M1066,-540C1066,-540 896,-540 896,-540 890,-540 884,-534 884,-528 884,-528 884,-516 884,-516 884,-510 890,-504 896,-504 896,-504 1066,-504 1066,-504 1072,-504 1078,-510 1078,-516 1078,-516 1078,-528 1078,-528 1078,-534 1072,-540 1066,-540"/>
<text text-anchor="middle" x="981" y="-519.5" font-family="sans" font-size="10.00">fit_average_densities_correctednissl</text>
</g>
<!-- 4&#45;&gt;32 -->
<g id="edge54" class="edge">
<title>4&#45;&gt;32</title>
<path fill="none" stroke="grey" stroke-width="2" d="M888.74,-806.4C676.64,-797.44 76.5,-761.81 171,-648 258.67,-542.42 674.11,-524.98 873.59,-522.79"/>
<polygon fill="grey" stroke="grey" stroke-width="2" points="873.83,-526.29 883.8,-522.69 873.77,-519.29 873.83,-526.29"/>
</g>
<!-- 38 -->
<g id="node39" class="node">
<title>38</title>
<path fill="none" stroke="#56d882" stroke-width="2" d="M1176.5,-612C1176.5,-612 1021.5,-612 1021.5,-612 1015.5,-612 1009.5,-606 1009.5,-600 1009.5,-600 1009.5,-588 1009.5,-588 1009.5,-582 1015.5,-576 1021.5,-576 1021.5,-576 1176.5,-576 1176.5,-576 1182.5,-576 1188.5,-582 1188.5,-588 1188.5,-588 1188.5,-600 1188.5,-600 1188.5,-606 1182.5,-612 1176.5,-612"/>
<text text-anchor="middle" x="1099" y="-591.5" font-family="sans" font-size="10.00">average_densities_correctednissl</text>
</g>
<!-- 4&#45;&gt;38 -->
<g id="edge62" class="edge">
<title>4&#45;&gt;38</title>
<path fill="none" stroke="grey" stroke-width="2" d="M996.74,-791.86C1033.88,-771.83 1089.89,-734.83 1114,-684 1123.29,-664.41 1118.16,-639.99 1111.48,-621.69"/>
<polygon fill="grey" stroke="grey" stroke-width="2" points="1114.65,-620.21 1107.69,-612.23 1108.15,-622.81 1114.65,-620.21"/>
</g>
<!-- 40 -->
<g id="node41" class="node">
<title>40</title>
<path fill="none" stroke="#d88d56" stroke-width="2" d="M1305.5,-324C1305.5,-324 1182.5,-324 1182.5,-324 1176.5,-324 1170.5,-318 1170.5,-312 1170.5,-312 1170.5,-300 1170.5,-300 1170.5,-294 1176.5,-288 1182.5,-288 1182.5,-288 1305.5,-288 1305.5,-288 1311.5,-288 1317.5,-294 1317.5,-300 1317.5,-300 1317.5,-312 1317.5,-312 1317.5,-318 1311.5,-324 1305.5,-324"/>
<text text-anchor="middle" x="1244" y="-303.5" font-family="sans" font-size="10.00">transplant_excitatory_split</text>
</g>
<!-- 4&#45;&gt;40 -->
<g id="edge66" class="edge">
<title>4&#45;&gt;40</title>
<path fill="none" stroke="grey" stroke-width="2" d="M1033.36,-793.47C1036.28,-792.95 1039.16,-792.46 1042,-792 1111.33,-780.77 1297.34,-794.63 1356,-756 1394.08,-730.93 1407,-712.59 1407,-667 1407,-667 1407,-667 1407,-449 1407,-390.42 1346.4,-350.48 1299.1,-328.23"/>
<polygon fill="grey" stroke="grey" stroke-width="2" points="1300.39,-324.98 1289.84,-324.02 1297.49,-331.35 1300.39,-324.98"/>
</g>
<!-- 41 -->
<g id="node42" class="node">
<title>41</title>
<path fill="none" stroke="#d86e56" stroke-width="2" d="M1279,-396C1279,-396 1211,-396 1211,-396 1205,-396 1199,-390 1199,-384 1199,-384 1199,-372 1199,-372 1199,-366 1205,-360 1211,-360 1211,-360 1279,-360 1279,-360 1285,-360 1291,-366 1291,-372 1291,-372 1291,-384 1291,-384 1291,-390 1285,-396 1279,-396"/>
<text text-anchor="middle" x="1245" y="-375.5" font-family="sans" font-size="10.00">excitatory_split</text>
</g>
<!-- 4&#45;&gt;41 -->
<g id="edge69" class="edge">
<title>4&#45;&gt;41</title>
<path fill="none" stroke="grey" stroke-width="2" d="M1033.35,-793.4C1036.27,-792.9 1039.16,-792.43 1042,-792 1125.64,-779.29 1356.35,-810.57 1421,-756 1452.31,-729.57 1445,-707.97 1445,-667 1445,-667 1445,-667 1445,-593 1445,-502.25 1347.82,-434.03 1288.94,-401.03"/>
<polygon fill="grey" stroke="grey" stroke-width="2" points="1290.29,-397.78 1279.84,-396.04 1286.92,-403.92 1290.29,-397.78"/>
</g>
<!-- 42 -->
<g id="node43" class="node">
<title>42</title>
<path fill="none" stroke="#56d863" stroke-width="2" d="M592.5,-324C592.5,-324 345.5,-324 345.5,-324 339.5,-324 333.5,-318 333.5,-312 333.5,-312 333.5,-300 333.5,-300 333.5,-294 339.5,-288 345.5,-288 345.5,-288 592.5,-288 592.5,-288 598.5,-288 604.5,-294 604.5,-300 604.5,-300 604.5,-312 604.5,-312 604.5,-318 598.5,-324 592.5,-324"/>
<text text-anchor="middle" x="469" y="-303.5" font-family="sans" font-size="10.00">transplant_mtypes_densities_from_probability_map</text>
</g>
<!-- 4&#45;&gt;42 -->
<g id="edge72" class="edge">
<title>4&#45;&gt;42</title>
<path fill="none" stroke="grey" stroke-width="2" d="M888.68,-809.28C682.73,-809.48 103.48,-805.58 35,-756 0.57,-731.07 0,-709.5 0,-667 0,-667 0,-667 0,-449 0,-385.77 53.04,-385.29 111,-360 177.28,-331.08 256.32,-317.45 323.26,-311.21"/>
<polygon fill="grey" stroke="grey" stroke-width="2" points="323.81,-314.68 333.46,-310.31 323.19,-307.7 323.81,-314.68"/>
</g>
<!-- 43 -->
<g id="node44" class="node">
<title>43</title>
<path fill="none" stroke="#8fd856" stroke-width="2" d="M360,-396C360,-396 132,-396 132,-396 126,-396 120,-390 120,-384 120,-384 120,-372 120,-372 120,-366 126,-360 132,-360 132,-360 360,-360 360,-360 366,-360 372,-366 372,-372 372,-372 372,-384 372,-384 372,-390 366,-396 360,-396"/>
<text text-anchor="middle" x="246" y="-375.5" font-family="sans" font-size="10.00">create_mtypes_densities_from_probability_map</text>
</g>
<!-- 4&#45;&gt;43 -->
<g id="edge77" class="edge">
<title>4&#45;&gt;43</title>
<path fill="none" stroke="grey" stroke-width="2" d="M888.72,-809.51C686.47,-810.27 125.47,-807.66 62,-756 30.23,-730.14 38,-707.97 38,-667 38,-667 38,-667 38,-521 38,-480.55 29.32,-461.49 57,-432 71.6,-416.45 90.36,-405.34 110.37,-397.42"/>
<polygon fill="grey" stroke="grey" stroke-width="2" points="111.78,-400.63 119.96,-393.89 109.36,-394.06 111.78,-400.63"/>
</g>
<!-- 5 -->
<g id="node6" class="node">
<title>5</title>
<path fill="none" stroke="#d6d856" stroke-width="2" d="M1306.5,-900C1306.5,-900 1079.5,-900 1079.5,-900 1073.5,-900 1067.5,-894 1067.5,-888 1067.5,-888 1067.5,-876 1067.5,-876 1067.5,-870 1073.5,-864 1079.5,-864 1079.5,-864 1306.5,-864 1306.5,-864 1312.5,-864 1318.5,-870 1318.5,-876 1318.5,-876 1318.5,-888 1318.5,-888 1318.5,-894 1312.5,-900 1306.5,-900"/>
<text text-anchor="middle" x="1193" y="-879.5" font-family="sans" font-size="10.00">create_leaves_only_hierarchy_annotation_ccfv2</text>
</g>
<!-- 5&#45;&gt;4 -->
<g id="edge13" class="edge">
<title>5&#45;&gt;4</title>
<path fill="none" stroke="grey" stroke-width="2" d="M1136.54,-863.97C1103.7,-854.06 1062.13,-841.51 1027.69,-831.12"/>
<polygon fill="grey" stroke="grey" stroke-width="2" points="1028.29,-827.65 1017.71,-828.11 1026.27,-834.35 1028.29,-827.65"/>
</g>
<!-- 6 -->
<g id="node7" class="node">
<title>6</title>
<path fill="none" stroke="#56d0d8" stroke-width="2" d="M1380.5,-972C1380.5,-972 1237.5,-972 1237.5,-972 1231.5,-972 1225.5,-966 1225.5,-960 1225.5,-960 1225.5,-948 1225.5,-948 1225.5,-942 1231.5,-936 1237.5,-936 1237.5,-936 1380.5,-936 1380.5,-936 1386.5,-936 1392.5,-942 1392.5,-948 1392.5,-948 1392.5,-960 1392.5,-960 1392.5,-966 1386.5,-972 1380.5,-972"/>
<text text-anchor="middle" x="1309" y="-951.5" font-family="sans" font-size="10.00">split_isocortex_layer_23_ccfv2</text>
</g>
<!-- 6&#45;&gt;5 -->
<g id="edge15" class="edge">
<title>6&#45;&gt;5</title>
<path fill="none" stroke="grey" stroke-width="2" d="M1280.62,-935.88C1265.46,-926.72 1246.59,-915.34 1230.26,-905.48"/>
<polygon fill="grey" stroke="grey" stroke-width="2" points="1231.86,-902.36 1221.49,-900.19 1228.24,-908.35 1231.86,-902.36"/>
</g>
<!-- 7 -->
<g id="node8" class="node">
<title>7</title>
<path fill="none" stroke="#d85656" stroke-width="2" d="M1788,-1188C1788,-1188 1634,-1188 1634,-1188 1628,-1188 1622,-1182 1622,-1176 1622,-1176 1622,-1164 1622,-1164 1622,-1158 1628,-1152 1634,-1152 1634,-1152 1788,-1152 1788,-1152 1794,-1152 1800,-1158 1800,-1164 1800,-1164 1800,-1176 1800,-1176 1800,-1182 1794,-1188 1788,-1188"/>
<text text-anchor="middle" x="1711" y="-1167.5" font-family="sans" font-size="10.00">fetch_ccf_brain_region_hierarchy</text>
</g>
<!-- 7&#45;&gt;6 -->
<g id="edge16" class="edge">
<title>7&#45;&gt;6</title>
<path fill="none" stroke="grey" stroke-width="2" d="M1710.28,-1151.83C1708.59,-1132.19 1703.02,-1100.16 1685,-1080 1613.24,-999.7 1488.63,-970.87 1402.65,-960.58"/>
<polygon fill="grey" stroke="grey" stroke-width="2" points="1402.96,-957.09 1392.63,-959.44 1402.17,-964.05 1402.96,-957.09"/>
</g>
<!-- 11 -->
<g id="node12" class="node">
<title>11</title>
<path fill="none" stroke="#56d8c9" stroke-width="2" d="M1492.5,-1044C1492.5,-1044 1275.5,-1044 1275.5,-1044 1269.5,-1044 1263.5,-1038 1263.5,-1032 1263.5,-1032 1263.5,-1020 1263.5,-1020 1263.5,-1014 1269.5,-1008 1275.5,-1008 1275.5,-1008 1492.5,-1008 1492.5,-1008 1498.5,-1008 1504.5,-1014 1504.5,-1020 1504.5,-1020 1504.5,-1032 1504.5,-1032 1504.5,-1038 1498.5,-1044 1492.5,-1044"/>
<text text-anchor="middle" x="1384" y="-1023.5" font-family="sans" font-size="10.00">interpolate_direction_vectors_isocortex_ccfv2</text>
</g>
<!-- 7&#45;&gt;11 -->
<g id="edge22" class="edge">
<title>7&#45;&gt;11</title>
<path fill="none" stroke="grey" stroke-width="2" d="M1704.9,-1151.92C1696.66,-1131.43 1679.94,-1097.65 1654,-1080 1630.76,-1064.19 1571.83,-1051.71 1514.93,-1042.85"/>
<polygon fill="grey" stroke="grey" stroke-width="2" points="1515.13,-1039.34 1504.71,-1041.29 1514.07,-1046.26 1515.13,-1039.34"/>
</g>
<!-- 12 -->
<g id="node13" class="node">
<title>12</title>
<path fill="none" stroke="#d86656" stroke-width="2" d="M1633,-1116C1633,-1116 1475,-1116 1475,-1116 1469,-1116 1463,-1110 1463,-1104 1463,-1104 1463,-1092 1463,-1092 1463,-1086 1469,-1080 1475,-1080 1475,-1080 1633,-1080 1633,-1080 1639,-1080 1645,-1086 1645,-1092 1645,-1092 1645,-1104 1645,-1104 1645,-1110 1639,-1116 1633,-1116"/>
<text text-anchor="middle" x="1554" y="-1095.5" font-family="sans" font-size="10.00">direction_vectors_isocortex_ccfv2</text>
</g>
<!-- 7&#45;&gt;12 -->
<g id="edge26" class="edge">
<title>7&#45;&gt;12</title>
<path fill="none" stroke="grey" stroke-width="2" d="M1672.59,-1151.88C1651.13,-1142.31 1624.2,-1130.3 1601.43,-1120.15"/>
<polygon fill="grey" stroke="grey" stroke-width="2" points="1602.84,-1116.94 1592.28,-1116.07 1599.99,-1123.34 1602.84,-1116.94"/>
</g>
<!-- 17 -->
<g id="node18" class="node">
<title>17</title>
<path fill="none" stroke="#d89556" stroke-width="2" d="M1998.5,-1044C1998.5,-1044 1855.5,-1044 1855.5,-1044 1849.5,-1044 1843.5,-1038 1843.5,-1032 1843.5,-1032 1843.5,-1020 1843.5,-1020 1843.5,-1014 1849.5,-1008 1855.5,-1008 1855.5,-1008 1998.5,-1008 1998.5,-1008 2004.5,-1008 2010.5,-1014 2010.5,-1020 2010.5,-1020 2010.5,-1032 2010.5,-1032 2010.5,-1038 2004.5,-1044 1998.5,-1044"/>
<text text-anchor="middle" x="1927" y="-1023.5" font-family="sans" font-size="10.00">split_isocortex_layer_23_ccfv3</text>
</g>
<!-- 7&#45;&gt;17 -->
<g id="edge30" class="edge">
<title>7&#45;&gt;17</title>
<path fill="none" stroke="grey" stroke-width="2" d="M1717.8,-1151.75C1726.53,-1131.73 1743.53,-1099.05 1768,-1080 1787.09,-1065.14 1810.54,-1054.35 1833.52,-1046.54"/>
<polygon fill="grey" stroke="grey" stroke-width="2" points="1834.88,-1049.78 1843.32,-1043.37 1832.73,-1043.12 1834.88,-1049.78"/>
</g>
<!-- 19 -->
<g id="node20" class="node">
<title>19</title>
<path fill="none" stroke="#567bd8" stroke-width="2" d="M1947,-1116C1947,-1116 1789,-1116 1789,-1116 1783,-1116 1777,-1110 1777,-1104 1777,-1104 1777,-1092 1777,-1092 1777,-1086 1783,-1080 1789,-1080 1789,-1080 1947,-1080 1947,-1080 1953,-1080 1959,-1086 1959,-1092 1959,-1092 1959,-1104 1959,-1104 1959,-1110 1953,-1116 1947,-1116"/>
<text text-anchor="middle" x="1868" y="-1095.5" font-family="sans" font-size="10.00">direction_vectors_isocortex_ccfv3</text>
</g>
<!-- 7&#45;&gt;19 -->
<g id="edge34" class="edge">
<title>7&#45;&gt;19</title>
<path fill="none" stroke="grey" stroke-width="2" d="M1749.41,-1151.88C1770.87,-1142.31 1797.8,-1130.3 1820.57,-1120.15"/>
<polygon fill="grey" stroke="grey" stroke-width="2" points="1822.01,-1123.34 1829.72,-1116.07 1819.16,-1116.94 1822.01,-1123.34"/>
</g>
<!-- 8 -->
<g id="node9" class="node">
<title>8</title>
<path fill="none" stroke="#56b9d8" stroke-width="2" d="M1330.5,-1188C1330.5,-1188 1215.5,-1188 1215.5,-1188 1209.5,-1188 1203.5,-1182 1203.5,-1176 1203.5,-1176 1203.5,-1164 1203.5,-1164 1203.5,-1158 1209.5,-1152 1215.5,-1152 1215.5,-1152 1330.5,-1152 1330.5,-1152 1336.5,-1152 1342.5,-1158 1342.5,-1164 1342.5,-1164 1342.5,-1176 1342.5,-1176 1342.5,-1182 1336.5,-1188 1330.5,-1188"/>
<text text-anchor="middle" x="1273" y="-1167.5" font-family="sans" font-size="10.00">combine_v2_annotations</text>
</g>
<!-- 8&#45;&gt;6 -->
<g id="edge17" class="edge">
<title>8&#45;&gt;6</title>
<path fill="none" stroke="grey" stroke-width="2" d="M1265.5,-1151.75C1253.46,-1121.38 1233.19,-1056.95 1254,-1008 1258.73,-996.86 1267.08,-986.93 1275.87,-978.76"/>
<polygon fill="grey" stroke="grey" stroke-width="2" points="1278.35,-981.24 1283.62,-972.05 1273.77,-975.95 1278.35,-981.24"/>
</g>
<!-- 8&#45;&gt;11 -->
<g id="edge21" class="edge">
<title>8&#45;&gt;11</title>
<path fill="none" stroke="grey" stroke-width="2" d="M1272.66,-1151.94C1273.12,-1132.71 1276.47,-1101.33 1292,-1080 1301.34,-1067.16 1314.81,-1056.97 1328.58,-1049.08"/>
<polygon fill="grey" stroke="grey" stroke-width="2" points="1330.46,-1052.04 1337.62,-1044.23 1327.16,-1045.87 1330.46,-1052.04"/>
</g>
<!-- 8&#45;&gt;12 -->
<g id="edge25" class="edge">
<title>8&#45;&gt;12</title>
<path fill="none" stroke="grey" stroke-width="2" d="M1341.38,-1151.97C1381.84,-1141.89 1433.24,-1129.08 1475.37,-1118.59"/>
<polygon fill="grey" stroke="grey" stroke-width="2" points="1476.45,-1121.92 1485.31,-1116.11 1474.76,-1115.13 1476.45,-1121.92"/>
</g>
<!-- 9 -->
<g id="node10" class="node">
<title>9</title>
<path fill="none" stroke="#56b1d8" stroke-width="2" d="M1253,-1260C1253,-1260 1111,-1260 1111,-1260 1105,-1260 1099,-1254 1099,-1248 1099,-1248 1099,-1236 1099,-1236 1099,-1230 1105,-1224 1111,-1224 1111,-1224 1253,-1224 1253,-1224 1259,-1224 1265,-1230 1265,-1236 1265,-1236 1265,-1248 1265,-1248 1265,-1254 1259,-1260 1253,-1260"/>
<text text-anchor="middle" x="1182" y="-1239.5" font-family="sans" font-size="10.00">fetch_brain_parcellation_ccfv2</text>
</g>
<!-- 9&#45;&gt;8 -->
<g id="edge19" class="edge">
<title>9&#45;&gt;8</title>
<path fill="none" stroke="grey" stroke-width="2" d="M1204.49,-1223.7C1215.96,-1214.88 1230.06,-1204.03 1242.48,-1194.47"/>
<polygon fill="grey" stroke="grey" stroke-width="2" points="1244.97,-1196.98 1250.76,-1188.1 1240.7,-1191.43 1244.97,-1196.98"/>
</g>
<!-- 10 -->
<g id="node11" class="node">
<title>10</title>
<path fill="none" stroke="#56d86b" stroke-width="2" d="M1434.5,-1260C1434.5,-1260 1295.5,-1260 1295.5,-1260 1289.5,-1260 1283.5,-1254 1283.5,-1248 1283.5,-1248 1283.5,-1236 1283.5,-1236 1283.5,-1230 1289.5,-1224 1295.5,-1224 1295.5,-1224 1434.5,-1224 1434.5,-1224 1440.5,-1224 1446.5,-1230 1446.5,-1236 1446.5,-1236 1446.5,-1248 1446.5,-1248 1446.5,-1254 1440.5,-1260 1434.5,-1260"/>
<text text-anchor="middle" x="1365" y="-1239.5" font-family="sans" font-size="10.00">fetch_fiber_parcellation_ccfv2</text>
</g>
<!-- 10&#45;&gt;8 -->
<g id="edge20" class="edge">
<title>10&#45;&gt;8</title>
<path fill="none" stroke="grey" stroke-width="2" d="M1342.26,-1223.7C1330.56,-1214.8 1316.14,-1203.82 1303.49,-1194.2"/>
<polygon fill="grey" stroke="grey" stroke-width="2" points="1305.56,-1191.37 1295.48,-1188.1 1301.32,-1196.94 1305.56,-1191.37"/>
</g>
<!-- 11&#45;&gt;6 -->
<g id="edge18" class="edge">
<title>11&#45;&gt;6</title>
<path fill="none" stroke="grey" stroke-width="2" d="M1365.46,-1007.7C1356.2,-999.05 1344.84,-988.45 1334.74,-979.03"/>
<polygon fill="grey" stroke="grey" stroke-width="2" points="1337.02,-976.37 1327.33,-972.1 1332.25,-981.49 1337.02,-976.37"/>
</g>
<!-- 12&#45;&gt;11 -->
<g id="edge23" class="edge">
<title>12&#45;&gt;11</title>
<path fill="none" stroke="grey" stroke-width="2" d="M1512.41,-1079.88C1488.97,-1070.22 1459.5,-1058.09 1434.7,-1047.88"/>
<polygon fill="grey" stroke="grey" stroke-width="2" points="1436.03,-1044.64 1425.45,-1044.07 1433.37,-1051.11 1436.03,-1044.64"/>
</g>
<!-- 13 -->
<g id="node14" class="node">
<title>13</title>
<path fill="none" stroke="#d87556" stroke-width="2" d="M1433,-1116C1433,-1116 1313,-1116 1313,-1116 1307,-1116 1301,-1110 1301,-1104 1301,-1104 1301,-1092 1301,-1092 1301,-1086 1307,-1080 1313,-1080 1313,-1080 1433,-1080 1433,-1080 1439,-1080 1445,-1086 1445,-1092 1445,-1092 1445,-1104 1445,-1104 1445,-1110 1439,-1116 1433,-1116"/>
<text text-anchor="middle" x="1373" y="-1095.5" font-family="sans" font-size="10.00">fetch_isocortex_metadata</text>
</g>
<!-- 13&#45;&gt;11 -->
<g id="edge24" class="edge">
<title>13&#45;&gt;11</title>
<path fill="none" stroke="grey" stroke-width="2" d="M1375.72,-1079.7C1376.93,-1071.98 1378.39,-1062.71 1379.74,-1054.11"/>
<polygon fill="grey" stroke="grey" stroke-width="2" points="1383.22,-1054.53 1381.31,-1044.1 1376.3,-1053.44 1383.22,-1054.53"/>
</g>
<!-- 14 -->
<g id="node15" class="node">
<title>14</title>
<path fill="none" stroke="#568ad8" stroke-width="2" d="M1792.5,-900C1792.5,-900 1691.5,-900 1691.5,-900 1685.5,-900 1679.5,-894 1679.5,-888 1679.5,-888 1679.5,-876 1679.5,-876 1679.5,-870 1685.5,-864 1691.5,-864 1691.5,-864 1792.5,-864 1792.5,-864 1798.5,-864 1804.5,-870 1804.5,-876 1804.5,-876 1804.5,-888 1804.5,-888 1804.5,-894 1798.5,-900 1792.5,-900"/>
<text text-anchor="middle" x="1742" y="-879.5" font-family="sans" font-size="10.00">fetch_barrel_positions</text>
</g>
<!-- 14&#45;&gt;4 -->
<g id="edge14" class="edge">
<title>14&#45;&gt;4</title>
<path fill="none" stroke="grey" stroke-width="2" d="M1679.43,-879.02C1558.33,-874.58 1283.43,-861.6 1043.31,-828.08"/>
<polygon fill="grey" stroke="grey" stroke-width="2" points="1043.73,-824.6 1033.34,-826.67 1042.75,-831.54 1043.73,-824.6"/>
</g>
<!-- 15 -->
<g id="node16" class="node">
<title>15</title>
<path fill="none" stroke="#56c9d8" stroke-width="2" d="M1706,-396C1706,-396 1586,-396 1586,-396 1580,-396 1574,-390 1574,-384 1574,-384 1574,-372 1574,-372 1574,-366 1580,-360 1586,-360 1586,-360 1706,-360 1706,-360 1712,-360 1718,-366 1718,-372 1718,-372 1718,-384 1718,-384 1718,-390 1712,-396 1706,-396"/>
<text text-anchor="middle" x="1646" y="-375.5" font-family="sans" font-size="10.00">split_barrel_ccfv3_l23split</text>
</g>
<!-- 14&#45;&gt;15 -->
<g id="edge28" class="edge">
<title>14&#45;&gt;15</title>
<path fill="none" stroke="grey" stroke-width="2" d="M1804.53,-875.94C1872.06,-869.17 1973.68,-854.8 2001,-828 2029.94,-799.61 2021,-779.54 2021,-739 2021,-739 2021,-739 2021,-521 2021,-458.89 1838.83,-414.38 1728.43,-393.1"/>
<polygon fill="grey" stroke="grey" stroke-width="2" points="1728.78,-389.61 1718.3,-391.18 1727.47,-396.49 1728.78,-389.61"/>
</g>
<!-- 15&#45;&gt;2 -->
<g id="edge8" class="edge">
<title>15&#45;&gt;2</title>
<path fill="none" stroke="grey" stroke-width="2" d="M1678.05,-359.88C1691.12,-351.05 1704.82,-338.97 1712,-324 1718.92,-309.57 1722.12,-300.4 1712,-288 1695.2,-267.41 1640.61,-254.61 1585.85,-246.75"/>
<polygon fill="grey" stroke="grey" stroke-width="2" points="1586.02,-243.24 1575.63,-245.34 1585.06,-250.18 1586.02,-243.24"/>
</g>
<!-- 15&#45;&gt;3 -->
<g id="edge11" class="edge">
<title>15&#45;&gt;3</title>
<path fill="none" stroke="grey" stroke-width="2" d="M1598.79,-359.88C1571.93,-350.14 1538.12,-337.87 1509.82,-327.61"/>
<polygon fill="grey" stroke="grey" stroke-width="2" points="1510.65,-324.19 1500.06,-324.07 1508.27,-330.77 1510.65,-324.19"/>
</g>
<!-- 15&#45;&gt;30 -->
<g id="edge48" class="edge">
<title>15&#45;&gt;30</title>
<path fill="none" stroke="grey" stroke-width="2" d="M1573.91,-369.34C1474.37,-358.77 1291.84,-339.38 1156.67,-325.02"/>
<polygon fill="grey" stroke="grey" stroke-width="2" points="1156.92,-321.53 1146.61,-323.95 1156.18,-328.49 1156.92,-321.53"/>
</g>
<!-- 15&#45;&gt;40 -->
<g id="edge67" class="edge">
<title>15&#45;&gt;40</title>
<path fill="none" stroke="grey" stroke-width="2" d="M1573.73,-365.88C1511.06,-356.05 1417.68,-340.92 1327.57,-324.26"/>
<polygon fill="grey" stroke="grey" stroke-width="2" points="1328.2,-320.82 1317.73,-322.43 1326.92,-327.7 1328.2,-320.82"/>
</g>
<!-- 15&#45;&gt;42 -->
<g id="edge73" class="edge">
<title>15&#45;&gt;42</title>
<path fill="none" stroke="grey" stroke-width="2" d="M1573.7,-372.7C1383.93,-361.41 868.73,-330.77 614.66,-315.66"/>
<polygon fill="grey" stroke="grey" stroke-width="2" points="614.81,-312.17 604.62,-315.07 614.4,-319.15 614.81,-312.17"/>
</g>
<!-- 46 -->
<g id="node47" class="node">
<title>46</title>
<path fill="none" stroke="#56d8d8" stroke-width="2" d="M1691,-324C1691,-324 1601,-324 1601,-324 1595,-324 1589,-318 1589,-312 1589,-312 1589,-300 1589,-300 1589,-294 1595,-288 1601,-288 1601,-288 1691,-288 1691,-288 1697,-288 1703,-294 1703,-300 1703,-300 1703,-312 1703,-312 1703,-318 1697,-324 1691,-324"/>
<text text-anchor="middle" x="1646" y="-303.5" font-family="sans" font-size="10.00">export_brain_region</text>
</g>
<!-- 15&#45;&gt;46 -->
<g id="edge79" class="edge">
<title>15&#45;&gt;46</title>
<path fill="none" stroke="grey" stroke-width="2" d="M1646,-359.7C1646,-351.98 1646,-342.71 1646,-334.11"/>
<polygon fill="grey" stroke="grey" stroke-width="2" points="1649.5,-334.1 1646,-324.1 1642.5,-334.1 1649.5,-334.1"/>
</g>
<!-- 15&#45;&gt;47 -->
<g id="edge80" class="edge">
<title>15&#45;&gt;47</title>
<path fill="none" stroke="grey" stroke-width="2" d="M1690.07,-359.98C1705.55,-351.62 1721.26,-339.85 1730,-324 1767.55,-255.91 1723.45,-162.07 1697.43,-117.1"/>
<polygon fill="grey" stroke="grey" stroke-width="2" points="1700.3,-115.08 1692.19,-108.27 1694.28,-118.65 1700.3,-115.08"/>
</g>
<!-- 16 -->
<g id="node17" class="node">
<title>16</title>
<path fill="none" stroke="#9fd856" stroke-width="2" d="M2288.5,-540C2288.5,-540 2061.5,-540 2061.5,-540 2055.5,-540 2049.5,-534 2049.5,-528 2049.5,-528 2049.5,-516 2049.5,-516 2049.5,-510 2055.5,-504 2061.5,-504 2061.5,-504 2288.5,-504 2288.5,-504 2294.5,-504 2300.5,-510 2300.5,-516 2300.5,-516 2300.5,-528 2300.5,-528 2300.5,-534 2294.5,-540 2288.5,-540"/>
<text text-anchor="middle" x="2175" y="-519.5" font-family="sans" font-size="10.00">create_leaves_only_hierarchy_annotation_ccfv3</text>
</g>
<!-- 16&#45;&gt;15 -->
<g id="edge27" class="edge">
<title>16&#45;&gt;15</title>
<path fill="none" stroke="grey" stroke-width="2" d="M2154.24,-503.68C2128.18,-482.95 2081.25,-448.93 2035,-432 1933.57,-394.88 1808.65,-383.41 1728.19,-380.05"/>
<polygon fill="grey" stroke="grey" stroke-width="2" points="1728.24,-376.55 1718.12,-379.67 1727.98,-383.55 1728.24,-376.55"/>
</g>
<!-- 17&#45;&gt;16 -->
<g id="edge29" class="edge">
<title>17&#45;&gt;16</title>
<path fill="none" stroke="grey" stroke-width="2" d="M1986.86,-1007.96C2042.55,-988.01 2117,-948.99 2117,-883 2117,-883 2117,-883 2117,-665 2117,-621.7 2140.4,-576.11 2157.48,-548.61"/>
<polygon fill="grey" stroke="grey" stroke-width="2" points="2160.54,-550.32 2162.98,-540.01 2154.64,-546.55 2160.54,-550.32"/>
</g>
<!-- 18 -->
<g id="node19" class="node">
<title>18</title>
<path fill="none" stroke="#d8cb56" stroke-width="2" d="M2015,-1188C2015,-1188 1873,-1188 1873,-1188 1867,-1188 1861,-1182 1861,-1176 1861,-1176 1861,-1164 1861,-1164 1861,-1158 1867,-1152 1873,-1152 1873,-1152 2015,-1152 2015,-1152 2021,-1152 2027,-1158 2027,-1164 2027,-1164 2027,-1176 2027,-1176 2027,-1182 2021,-1188 2015,-1188"/>
<text text-anchor="middle" x="1944" y="-1167.5" font-family="sans" font-size="10.00">fetch_brain_parcellation_ccfv3</text>
</g>
<!-- 18&#45;&gt;17 -->
<g id="edge31" class="edge">
<title>18&#45;&gt;17</title>
<path fill="none" stroke="grey" stroke-width="2" d="M1954.72,-1151.74C1964.54,-1133.66 1976.38,-1104.53 1968,-1080 1964.56,-1069.93 1958.34,-1060.28 1951.77,-1052.05"/>
<polygon fill="grey" stroke="grey" stroke-width="2" points="1954.32,-1049.65 1945.17,-1044.32 1949,-1054.2 1954.32,-1049.65"/>
</g>
<!-- 18&#45;&gt;19 -->
<g id="edge33" class="edge">
<title>18&#45;&gt;19</title>
<path fill="none" stroke="grey" stroke-width="2" d="M1925.21,-1151.7C1915.83,-1143.05 1904.32,-1132.45 1894.09,-1123.03"/>
<polygon fill="grey" stroke="grey" stroke-width="2" points="1896.3,-1120.3 1886.57,-1116.1 1891.55,-1125.45 1896.3,-1120.3"/>
</g>
<!-- 19&#45;&gt;17 -->
<g id="edge32" class="edge">
<title>19&#45;&gt;17</title>
<path fill="none" stroke="grey" stroke-width="2" d="M1882.58,-1079.7C1889.66,-1071.3 1898.28,-1061.07 1906.05,-1051.86"/>
<polygon fill="grey" stroke="grey" stroke-width="2" points="1908.81,-1054.01 1912.58,-1044.1 1903.46,-1049.49 1908.81,-1054.01"/>
</g>
<!-- 20&#45;&gt;3 -->
<g id="edge12" class="edge">
<title>20&#45;&gt;3</title>
<path fill="none" stroke="grey" stroke-width="2" d="M1297.5,-647.99C1309.77,-621.82 1331,-569.79 1331,-523 1331,-523 1331,-523 1331,-449 1331,-396.79 1379.03,-354.2 1414.82,-329.71"/>
<polygon fill="grey" stroke="grey" stroke-width="2" points="1416.76,-332.61 1423.16,-324.17 1412.89,-326.78 1416.76,-332.61"/>
</g>
<!-- 20&#45;&gt;31 -->
<g id="edge51" class="edge">
<title>20&#45;&gt;31</title>
<path fill="none" stroke="grey" stroke-width="2" d="M1281.55,-647.99C1272.31,-628.5 1254.92,-596.61 1232,-576 1176.94,-526.49 1098.7,-491.59 1044.47,-471.48"/>
<polygon fill="grey" stroke="grey" stroke-width="2" points="1045.57,-468.15 1034.97,-468.01 1043.17,-474.73 1045.57,-468.15"/>
</g>
<!-- 20&#45;&gt;32 -->
<g id="edge55" class="edge">
<title>20&#45;&gt;32</title>
<path fill="none" stroke="grey" stroke-width="2" d="M1273.4,-647.91C1252.03,-624.86 1214.31,-585.56 1197,-576 1163.79,-557.65 1124.25,-545.58 1088.13,-537.67"/>
<polygon fill="grey" stroke="grey" stroke-width="2" points="1088.55,-534.18 1078.05,-535.55 1087.11,-541.03 1088.55,-534.18"/>
</g>
<!-- 20&#45;&gt;38 -->
<g id="edge64" class="edge">
<title>20&#45;&gt;38</title>
<path fill="none" stroke="grey" stroke-width="2" d="M1242.52,-647.88C1216.08,-638.14 1182.8,-625.87 1154.94,-615.61"/>
<polygon fill="grey" stroke="grey" stroke-width="2" points="1155.92,-612.24 1145.33,-612.07 1153.5,-618.81 1155.92,-612.24"/>
</g>
<!-- 20&#45;&gt;41 -->
<g id="edge70" class="edge">
<title>20&#45;&gt;41</title>
<path fill="none" stroke="grey" stroke-width="2" d="M1286.38,-647.97C1279.03,-600.19 1258.17,-464.62 1249.19,-406.27"/>
<polygon fill="grey" stroke="grey" stroke-width="2" points="1252.64,-405.66 1247.66,-396.31 1245.72,-406.72 1252.64,-405.66"/>
</g>
<!-- 21&#45;&gt;20 -->
<g id="edge36" class="edge">
<title>21&#45;&gt;20</title>
<path fill="none" stroke="grey" stroke-width="2" d="M1276.96,-719.7C1278.72,-711.98 1280.84,-702.71 1282.8,-694.11"/>
<polygon fill="grey" stroke="grey" stroke-width="2" points="1286.27,-694.63 1285.09,-684.1 1279.45,-693.07 1286.27,-694.63"/>
</g>
<!-- 21&#45;&gt;38 -->
<g id="edge63" class="edge">
<title>21&#45;&gt;38</title>
<path fill="none" stroke="grey" stroke-width="2" d="M1242.8,-719.78C1226.59,-710.03 1206.6,-697.19 1190,-684 1165.02,-664.16 1139.27,-638.39 1121.57,-619.69"/>
<polygon fill="grey" stroke="grey" stroke-width="2" points="1123.89,-617.05 1114.5,-612.15 1118.78,-621.84 1123.89,-617.05"/>
</g>
<!-- 22 -->
<g id="node23" class="node">
<title>22</title>
<path fill="none" stroke="#d8d356" stroke-width="2" d="M1242.5,-828C1242.5,-828 1063.5,-828 1063.5,-828 1057.5,-828 1051.5,-822 1051.5,-816 1051.5,-816 1051.5,-804 1051.5,-804 1051.5,-798 1057.5,-792 1063.5,-792 1063.5,-792 1242.5,-792 1242.5,-792 1248.5,-792 1254.5,-798 1254.5,-804 1254.5,-804 1254.5,-816 1254.5,-816 1254.5,-822 1248.5,-828 1242.5,-828"/>
<text text-anchor="middle" x="1153" y="-807.5" font-family="sans" font-size="10.00">fetch_corrected_nissl_stained_volume</text>
</g>
<!-- 22&#45;&gt;21 -->
<g id="edge39" class="edge">
<title>22&#45;&gt;21</title>
<path fill="none" stroke="grey" stroke-width="2" d="M1182.36,-791.88C1198.05,-782.72 1217.56,-771.34 1234.45,-761.48"/>
<polygon fill="grey" stroke="grey" stroke-width="2" points="1236.66,-764.25 1243.53,-756.19 1233.13,-758.21 1236.66,-764.25"/>
</g>
<!-- 23&#45;&gt;20 -->
<g id="edge37" class="edge">
<title>23&#45;&gt;20</title>
<path fill="none" stroke="grey" stroke-width="2" d="M1510.82,-723.67C1469.65,-713.15 1411.63,-698.33 1365.26,-686.48"/>
<polygon fill="grey" stroke="grey" stroke-width="2" points="1366.11,-683.09 1355.55,-684 1364.37,-689.87 1366.11,-683.09"/>
</g>
<!-- 24 -->
<g id="node25" class="node">
<title>24</title>
<path fill="none" stroke="#b6d856" stroke-width="2" d="M1372,-828C1372,-828 1284,-828 1284,-828 1278,-828 1272,-822 1272,-816 1272,-816 1272,-804 1272,-804 1272,-798 1278,-792 1284,-792 1284,-792 1372,-792 1372,-792 1378,-792 1384,-798 1384,-804 1384,-804 1384,-816 1384,-816 1384,-822 1378,-828 1372,-828"/>
<text text-anchor="middle" x="1328" y="-807.5" font-family="sans" font-size="10.00">fetch_gene_aldh1l1</text>
</g>
<!-- 24&#45;&gt;23 -->
<g id="edge40" class="edge">
<title>24&#45;&gt;23</title>
<path fill="none" stroke="grey" stroke-width="2" d="M1384.29,-792.23C1419.41,-781.77 1464.66,-768.29 1500.84,-757.52"/>
<polygon fill="grey" stroke="grey" stroke-width="2" points="1502.21,-760.76 1510.79,-754.55 1500.21,-754.05 1502.21,-760.76"/>
</g>
<!-- 25 -->
<g id="node26" class="node">
<title>25</title>
<path fill="none" stroke="#59d856" stroke-width="2" d="M1483.5,-828C1483.5,-828 1414.5,-828 1414.5,-828 1408.5,-828 1402.5,-822 1402.5,-816 1402.5,-816 1402.5,-804 1402.5,-804 1402.5,-798 1408.5,-792 1414.5,-792 1414.5,-792 1483.5,-792 1483.5,-792 1489.5,-792 1495.5,-798 1495.5,-804 1495.5,-804 1495.5,-816 1495.5,-816 1495.5,-822 1489.5,-828 1483.5,-828"/>
<text text-anchor="middle" x="1449" y="-807.5" font-family="sans" font-size="10.00">fetch_gene_cnp</text>
</g>
<!-- 25&#45;&gt;23 -->
<g id="edge41" class="edge">
<title>25&#45;&gt;23</title>
<path fill="none" stroke="grey" stroke-width="2" d="M1476.89,-791.88C1491.79,-782.72 1510.33,-771.34 1526.38,-761.48"/>
<polygon fill="grey" stroke="grey" stroke-width="2" points="1528.31,-764.41 1535.01,-756.19 1524.65,-758.44 1528.31,-764.41"/>
</g>
<!-- 26 -->
<g id="node27" class="node">
<title>26</title>
<path fill="none" stroke="#97d856" stroke-width="2" d="M1600,-828C1600,-828 1526,-828 1526,-828 1520,-828 1514,-822 1514,-816 1514,-816 1514,-804 1514,-804 1514,-798 1520,-792 1526,-792 1526,-792 1600,-792 1600,-792 1606,-792 1612,-798 1612,-804 1612,-804 1612,-816 1612,-816 1612,-822 1606,-828 1600,-828"/>
<text text-anchor="middle" x="1563" y="-807.5" font-family="sans" font-size="10.00">fetch_gene_mbp</text>
</g>
<!-- 26&#45;&gt;23 -->
<g id="edge42" class="edge">
<title>26&#45;&gt;23</title>
<path fill="none" stroke="grey" stroke-width="2" d="M1563,-791.7C1563,-783.98 1563,-774.71 1563,-766.11"/>
<polygon fill="grey" stroke="grey" stroke-width="2" points="1566.5,-766.1 1563,-756.1 1559.5,-766.1 1566.5,-766.1"/>
</g>
<!-- 27 -->
<g id="node28" class="node">
<title>27</title>
<path fill="none" stroke="#56d892" stroke-width="2" d="M1716,-828C1716,-828 1642,-828 1642,-828 1636,-828 1630,-822 1630,-816 1630,-816 1630,-804 1630,-804 1630,-798 1636,-792 1642,-792 1642,-792 1716,-792 1716,-792 1722,-792 1728,-798 1728,-804 1728,-804 1728,-816 1728,-816 1728,-822 1722,-828 1716,-828"/>
<text text-anchor="middle" x="1679" y="-807.5" font-family="sans" font-size="10.00">fetch_gene_gfap</text>
</g>
<!-- 27&#45;&gt;23 -->
<g id="edge43" class="edge">
<title>27&#45;&gt;23</title>
<path fill="none" stroke="grey" stroke-width="2" d="M1650.62,-791.88C1635.46,-782.72 1616.59,-771.34 1600.26,-761.48"/>
<polygon fill="grey" stroke="grey" stroke-width="2" points="1601.86,-758.36 1591.49,-756.19 1598.24,-764.35 1601.86,-758.36"/>
</g>
<!-- 28 -->
<g id="node29" class="node">
<title>28</title>
<path fill="none" stroke="#d88556" stroke-width="2" d="M1839.5,-828C1839.5,-828 1758.5,-828 1758.5,-828 1752.5,-828 1746.5,-822 1746.5,-816 1746.5,-816 1746.5,-804 1746.5,-804 1746.5,-798 1752.5,-792 1758.5,-792 1758.5,-792 1839.5,-792 1839.5,-792 1845.5,-792 1851.5,-798 1851.5,-804 1851.5,-804 1851.5,-816 1851.5,-816 1851.5,-822 1845.5,-828 1839.5,-828"/>
<text text-anchor="middle" x="1799" y="-807.5" font-family="sans" font-size="10.00">fetch_gene_s100b</text>
</g>
<!-- 28&#45;&gt;23 -->
<g id="edge44" class="edge">
<title>28&#45;&gt;23</title>
<path fill="none" stroke="grey" stroke-width="2" d="M1746.33,-793.38C1710.42,-782.73 1662.71,-768.58 1624.97,-757.38"/>
<polygon fill="grey" stroke="grey" stroke-width="2" points="1625.68,-753.94 1615.1,-754.45 1623.69,-760.65 1625.68,-753.94"/>
</g>
<!-- 29 -->
<g id="node30" class="node">
<title>29</title>
<path fill="none" stroke="#56d8a9" stroke-width="2" d="M1980.5,-828C1980.5,-828 1881.5,-828 1881.5,-828 1875.5,-828 1869.5,-822 1869.5,-816 1869.5,-816 1869.5,-804 1869.5,-804 1869.5,-798 1875.5,-792 1881.5,-792 1881.5,-792 1980.5,-792 1980.5,-792 1986.5,-792 1992.5,-798 1992.5,-804 1992.5,-804 1992.5,-816 1992.5,-816 1992.5,-822 1986.5,-828 1980.5,-828"/>
<text text-anchor="middle" x="1931" y="-807.5" font-family="sans" font-size="10.00">fetch_gene_tmem119</text>
</g>
<!-- 29&#45;&gt;23 -->
<g id="edge45" class="edge">
<title>29&#45;&gt;23</title>
<path fill="none" stroke="grey" stroke-width="2" d="M1869.48,-794.04C1866.27,-793.33 1863.1,-792.65 1860,-792 1779.3,-775.15 1685.57,-758.99 1625.33,-749.03"/>
<polygon fill="grey" stroke="grey" stroke-width="2" points="1625.65,-745.54 1615.22,-747.37 1624.52,-752.45 1625.65,-745.54"/>
</g>
<!-- 30&#45;&gt;2 -->
<g id="edge5" class="edge">
<title>30&#45;&gt;2</title>
<path fill="none" stroke="grey" stroke-width="2" d="M1100.4,-287.97C1169.74,-277.55 1258.48,-264.22 1329.58,-253.54"/>
<polygon fill="grey" stroke="grey" stroke-width="2" points="1330.13,-257 1339.5,-252.05 1329.09,-250.07 1330.13,-257"/>
</g>
<!-- 31&#45;&gt;30 -->
<g id="edge49" class="edge">
<title>31&#45;&gt;30</title>
<path fill="none" stroke="grey" stroke-width="2" d="M982.6,-431.87C983.46,-407.67 985.02,-363.21 986.04,-334.39"/>
<polygon fill="grey" stroke="grey" stroke-width="2" points="989.54,-334.31 986.39,-324.19 982.54,-334.06 989.54,-334.31"/>
</g>
<!-- 31&#45;&gt;41 -->
<g id="edge71" class="edge">
<title>31&#45;&gt;41</title>
<path fill="none" stroke="grey" stroke-width="2" d="M1046,-431.97C1089.78,-420.31 1147.25,-405.02 1189.17,-393.86"/>
<polygon fill="grey" stroke="grey" stroke-width="2" points="1190.17,-397.21 1198.94,-391.26 1188.37,-390.45 1190.17,-397.21"/>
</g>
<!-- 31&#45;&gt;43 -->
<g id="edge76" class="edge">
<title>31&#45;&gt;43</title>
<path fill="none" stroke="grey" stroke-width="2" d="M849.99,-436.45C718.06,-423.9 516.12,-404.69 382.59,-391.99"/>
<polygon fill="grey" stroke="grey" stroke-width="2" points="382.58,-388.47 372.3,-391.01 381.92,-395.44 382.58,-388.47"/>
</g>
<!-- 32&#45;&gt;31 -->
<g id="edge52" class="edge">
<title>32&#45;&gt;31</title>
<path fill="none" stroke="grey" stroke-width="2" d="M981.25,-503.7C981.36,-495.98 981.49,-486.71 981.61,-478.11"/>
<polygon fill="grey" stroke="grey" stroke-width="2" points="985.11,-478.15 981.76,-468.1 978.11,-478.05 985.11,-478.15"/>
</g>
<!-- 33 -->
<g id="node34" class="node">
<title>33</title>
<path fill="none" stroke="#56d89a" stroke-width="2" d="M702.5,-612C702.5,-612 577.5,-612 577.5,-612 571.5,-612 565.5,-606 565.5,-600 565.5,-600 565.5,-588 565.5,-588 565.5,-582 571.5,-576 577.5,-576 577.5,-576 702.5,-576 702.5,-576 708.5,-576 714.5,-582 714.5,-588 714.5,-588 714.5,-600 714.5,-600 714.5,-606 708.5,-612 702.5,-612"/>
<text text-anchor="middle" x="640" y="-591.5" font-family="sans" font-size="10.00">fetch_genes_correctednissl</text>
</g>
<!-- 33&#45;&gt;32 -->
<g id="edge53" class="edge">
<title>33&#45;&gt;32</title>
<path fill="none" stroke="grey" stroke-width="2" d="M714.83,-577.64C765.77,-567.18 833.56,-553.27 887.97,-542.1"/>
<polygon fill="grey" stroke="grey" stroke-width="2" points="888.88,-545.48 897.97,-540.04 887.47,-538.63 888.88,-545.48"/>
</g>
<!-- 34 -->
<g id="node35" class="node">
<title>34</title>
<path fill="none" stroke="#d8a456" stroke-width="2" d="M708.5,-684C708.5,-684 571.5,-684 571.5,-684 565.5,-684 559.5,-678 559.5,-672 559.5,-672 559.5,-660 559.5,-660 559.5,-654 565.5,-648 571.5,-648 571.5,-648 708.5,-648 708.5,-648 714.5,-648 720.5,-654 720.5,-660 720.5,-660 720.5,-672 720.5,-672 720.5,-678 714.5,-684 708.5,-684"/>
<text text-anchor="middle" x="640" y="-663.5" font-family="sans" font-size="10.00">fetch_gene_pv_correctednissl</text>
</g>
<!-- 34&#45;&gt;33 -->
<g id="edge58" class="edge">
<title>34&#45;&gt;33</title>
<path fill="none" stroke="grey" stroke-width="2" d="M640,-647.7C640,-639.98 640,-630.71 640,-622.11"/>
<polygon fill="grey" stroke="grey" stroke-width="2" points="643.5,-622.1 640,-612.1 636.5,-622.1 643.5,-622.1"/>
</g>
<!-- 35 -->
<g id="node36" class="node">
<title>35</title>
<path fill="none" stroke="#565bd8" stroke-width="2" d="M891,-684C891,-684 751,-684 751,-684 745,-684 739,-678 739,-672 739,-672 739,-660 739,-660 739,-654 745,-648 751,-648 751,-648 891,-648 891,-648 897,-648 903,-654 903,-660 903,-660 903,-672 903,-672 903,-678 897,-684 891,-684"/>
<text text-anchor="middle" x="821" y="-663.5" font-family="sans" font-size="10.00">fetch_gene_sst_correctednissl</text>
</g>
<!-- 35&#45;&gt;33 -->
<g id="edge59" class="edge">
<title>35&#45;&gt;33</title>
<path fill="none" stroke="grey" stroke-width="2" d="M776.72,-647.88C751.65,-638.18 720.1,-625.98 693.63,-615.74"/>
<polygon fill="grey" stroke="grey" stroke-width="2" points="694.72,-612.41 684.13,-612.07 692.2,-618.94 694.72,-612.41"/>
</g>
<!-- 36 -->
<g id="node37" class="node">
<title>36</title>
<path fill="none" stroke="#5682d8" stroke-width="2" d="M332,-684C332,-684 192,-684 192,-684 186,-684 180,-678 180,-672 180,-672 180,-660 180,-660 180,-654 186,-648 192,-648 192,-648 332,-648 332,-648 338,-648 344,-654 344,-660 344,-660 344,-672 344,-672 344,-678 338,-684 332,-684"/>
<text text-anchor="middle" x="262" y="-663.5" font-family="sans" font-size="10.00">fetch_gene_vip_correctednissl</text>
</g>
<!-- 36&#45;&gt;33 -->
<g id="edge60" class="edge">
<title>36&#45;&gt;33</title>
<path fill="none" stroke="grey" stroke-width="2" d="M344.34,-649.61C347.26,-649.07 350.16,-648.53 353,-648 421.03,-635.36 498.14,-621.13 555.29,-610.6"/>
<polygon fill="grey" stroke="grey" stroke-width="2" points="556.16,-613.99 565.36,-608.74 554.89,-607.11 556.16,-613.99"/>
</g>
<!-- 37 -->
<g id="node38" class="node">
<title>37</title>
<path fill="none" stroke="#d85e56" stroke-width="2" d="M529.5,-684C529.5,-684 374.5,-684 374.5,-684 368.5,-684 362.5,-678 362.5,-672 362.5,-672 362.5,-660 362.5,-660 362.5,-654 368.5,-648 374.5,-648 374.5,-648 529.5,-648 529.5,-648 535.5,-648 541.5,-654 541.5,-660 541.5,-660 541.5,-672 541.5,-672 541.5,-678 535.5,-684 529.5,-684"/>
<text text-anchor="middle" x="452" y="-663.5" font-family="sans" font-size="10.00">fetch_gene_gad67_correctednissl</text>
</g>
<!-- 37&#45;&gt;33 -->
<g id="edge61" class="edge">
<title>37&#45;&gt;33</title>
<path fill="none" stroke="grey" stroke-width="2" d="M497.99,-647.88C524.15,-638.14 557.09,-625.87 584.65,-615.61"/>
<polygon fill="grey" stroke="grey" stroke-width="2" points="586.01,-618.84 594.16,-612.07 583.57,-612.28 586.01,-618.84"/>
</g>
<!-- 38&#45;&gt;32 -->
<g id="edge56" class="edge">
<title>38&#45;&gt;32</title>
<path fill="none" stroke="grey" stroke-width="2" d="M1070.13,-575.88C1054.71,-566.72 1035.52,-555.34 1018.9,-545.48"/>
<polygon fill="grey" stroke="grey" stroke-width="2" points="1020.36,-542.28 1009.98,-540.19 1016.79,-548.3 1020.36,-542.28"/>
</g>
<!-- 39 -->
<g id="node40" class="node">
<title>39</title>
<path fill="none" stroke="#56d88a" stroke-width="2" d="M1093,-684C1093,-684 933,-684 933,-684 927,-684 921,-678 921,-672 921,-672 921,-660 921,-660 921,-654 927,-648 933,-648 933,-648 1093,-648 1093,-648 1099,-648 1105,-654 1105,-660 1105,-660 1105,-672 1105,-672 1105,-678 1099,-684 1093,-684"/>
<text text-anchor="middle" x="1013" y="-663.5" font-family="sans" font-size="10.00">compile_densities_measurements</text>
</g>
<!-- 39&#45;&gt;32 -->
<g id="edge57" class="edge">
<title>39&#45;&gt;32</title>
<path fill="none" stroke="grey" stroke-width="2" d="M1008.65,-647.85C1006.06,-637.48 1002.75,-624 1000,-612 995.26,-591.34 990.27,-567.89 986.6,-550.25"/>
<polygon fill="grey" stroke="grey" stroke-width="2" points="989.95,-549.18 984.49,-540.1 983.09,-550.6 989.95,-549.18"/>
</g>
<!-- 39&#45;&gt;38 -->
<g id="edge65" class="edge">
<title>39&#45;&gt;38</title>
<path fill="none" stroke="grey" stroke-width="2" d="M1034.26,-647.7C1045.09,-638.88 1058.42,-628.03 1070.16,-618.47"/>
<polygon fill="grey" stroke="grey" stroke-width="2" points="1072.44,-621.13 1077.99,-612.1 1068.02,-615.7 1072.44,-621.13"/>
</g>
<!-- 40&#45;&gt;2 -->
<g id="edge6" class="edge">
<title>40&#45;&gt;2</title>
<path fill="none" stroke="grey" stroke-width="2" d="M1294.86,-287.97C1324.19,-278.14 1361.25,-265.73 1392.12,-255.39"/>
<polygon fill="grey" stroke="grey" stroke-width="2" points="1393.54,-258.61 1401.91,-252.11 1391.32,-251.97 1393.54,-258.61"/>
</g>
<!-- 41&#45;&gt;40 -->
<g id="edge68" class="edge">
<title>41&#45;&gt;40</title>
<path fill="none" stroke="grey" stroke-width="2" d="M1244.75,-359.7C1244.64,-351.98 1244.51,-342.71 1244.39,-334.11"/>
<polygon fill="grey" stroke="grey" stroke-width="2" points="1247.89,-334.05 1244.24,-324.1 1240.89,-334.15 1247.89,-334.05"/>
</g>
<!-- 42&#45;&gt;2 -->
<g id="edge7" class="edge">
<title>42&#45;&gt;2</title>
<path fill="none" stroke="grey" stroke-width="2" d="M604.53,-295.36C793.15,-281.94 1132.69,-257.79 1319.97,-244.46"/>
<polygon fill="grey" stroke="grey" stroke-width="2" points="1320.42,-247.94 1330.15,-243.74 1319.92,-240.96 1320.42,-247.94"/>
</g>
<!-- 43&#45;&gt;42 -->
<g id="edge74" class="edge">
<title>43&#45;&gt;42</title>
<path fill="none" stroke="grey" stroke-width="2" d="M300.27,-359.97C331.83,-350.06 371.79,-337.51 404.9,-327.12"/>
<polygon fill="grey" stroke="grey" stroke-width="2" points="406,-330.45 414.49,-324.11 403.9,-323.77 406,-330.45"/>
</g>
<!-- 44 -->
<g id="node45" class="node">
<title>44</title>
<path fill="none" stroke="#a7d856" stroke-width="2" d="M360,-468C360,-468 258,-468 258,-468 252,-468 246,-462 246,-456 246,-456 246,-444 246,-444 246,-438 252,-432 258,-432 258,-432 360,-432 360,-432 366,-432 372,-438 372,-444 372,-444 372,-456 372,-456 372,-462 366,-468 360,-468"/>
<text text-anchor="middle" x="309" y="-447.5" font-family="sans" font-size="10.00">fetch_probability_map</text>
</g>
<!-- 44&#45;&gt;43 -->
<g id="edge75" class="edge">
<title>44&#45;&gt;43</title>
<path fill="none" stroke="grey" stroke-width="2" d="M293.43,-431.7C285.8,-423.22 276.48,-412.86 268.12,-403.58"/>
<polygon fill="grey" stroke="grey" stroke-width="2" points="270.69,-401.2 261.39,-396.1 265.48,-405.88 270.69,-401.2"/>
</g>
<!-- 45 -->
<g id="node46" class="node">
<title>45</title>
<path fill="none" stroke="#5663d8" stroke-width="2" d="M215.5,-468C215.5,-468 78.5,-468 78.5,-468 72.5,-468 66.5,-462 66.5,-456 66.5,-456 66.5,-444 66.5,-444 66.5,-438 72.5,-432 78.5,-432 78.5,-432 215.5,-432 215.5,-432 221.5,-432 227.5,-438 227.5,-444 227.5,-444 227.5,-456 227.5,-456 227.5,-462 221.5,-468 215.5,-468"/>
<text text-anchor="middle" x="147" y="-447.5" font-family="sans" font-size="10.00">fetch_isocortex_23_metadata</text>
</g>
<!-- 45&#45;&gt;43 -->
<g id="edge78" class="edge">
<title>45&#45;&gt;43</title>
<path fill="none" stroke="grey" stroke-width="2" d="M171.22,-431.88C183.92,-422.89 199.66,-411.76 213.42,-402.03"/>
<polygon fill="grey" stroke="grey" stroke-width="2" points="215.54,-404.82 221.69,-396.19 211.5,-399.11 215.54,-404.82"/>
</g>
<!-- 46&#45;&gt;2 -->
<g id="edge9" class="edge">
<title>46&#45;&gt;2</title>
<path fill="none" stroke="grey" stroke-width="2" d="M1598.79,-287.88C1571.93,-278.14 1538.12,-265.87 1509.82,-255.61"/>
<polygon fill="grey" stroke="grey" stroke-width="2" points="1510.65,-252.19 1500.06,-252.07 1508.27,-258.77 1510.65,-252.19"/>
</g>
<!-- 47&#45;&gt;0 -->
<g id="edge2" class="edge">
<title>47&#45;&gt;0</title>
<path fill="none" stroke="grey" stroke-width="2" d="M1663.7,-71.7C1655.14,-63.14 1644.66,-52.66 1635.3,-43.3"/>
<polygon fill="grey" stroke="grey" stroke-width="2" points="1637.65,-40.7 1628.1,-36.1 1632.7,-45.65 1637.65,-40.7"/>
</g>
</g>
</svg>
