<?xml version="1.0" encoding="UTF-8" standalone="no"?>
<!DOCTYPE svg PUBLIC "-//W3C//DTD SVG 1.1//EN"
 "http://www.w3.org/Graphics/SVG/1.1/DTD/svg11.dtd">
<!-- Generated by graphviz version 2.43.0 (0)
 -->
<!-- Title: snakemake_dag Pages: 1 -->
<svg width="2568pt" height="1556pt"
 viewBox="0.00 0.00 2568.18 1556.00" xmlns="http://www.w3.org/2000/svg" xmlns:xlink="http://www.w3.org/1999/xlink">
<g id="graph0" class="graph" transform="scale(1 1) rotate(0) translate(4 1552)">
<title>snakemake_dag</title>
<polygon fill="white" stroke="transparent" points="-4,4 -4,-1552 2564.18,-1552 2564.18,4 -4,4"/>
<!-- 0 -->
<g id="node1" class="node">
<title>0</title>
<path fill="none" stroke="#68d856" stroke-width="2" d="M2189.18,-36C2189.18,-36 2097.18,-36 2097.18,-36 2091.18,-36 2085.18,-30 2085.18,-24 2085.18,-24 2085.18,-12 2085.18,-12 2085.18,-6 2091.18,0 2097.18,0 2097.18,0 2189.18,0 2189.18,0 2195.18,0 2201.18,-6 2201.18,-12 2201.18,-12 2201.18,-24 2201.18,-24 2201.18,-30 2195.18,-36 2189.18,-36"/>
<text text-anchor="middle" x="2143.18" y="-15.5" font-family="sans" font-size="10.00">push_atlas_datasets</text>
</g>
<!-- 1 -->
<g id="node2" class="node">
<title>1</title>
<path fill="none" stroke="#56d8a2" stroke-width="2" d="M2325.18,-1044C2325.18,-1044 2239.18,-1044 2239.18,-1044 2233.18,-1044 2227.18,-1038 2227.18,-1032 2227.18,-1032 2227.18,-1020 2227.18,-1020 2227.18,-1014 2233.18,-1008 2239.18,-1008 2239.18,-1008 2325.18,-1008 2325.18,-1008 2331.18,-1008 2337.18,-1014 2337.18,-1020 2337.18,-1020 2337.18,-1032 2337.18,-1032 2337.18,-1038 2331.18,-1044 2325.18,-1044"/>
<text text-anchor="middle" x="2282.18" y="-1023.5" font-family="sans" font-size="10.00">push_atlas_release</text>
</g>
<!-- 1&#45;&gt;0 -->
<g id="edge1" class="edge">
<title>1&#45;&gt;0</title>
<path fill="none" stroke="grey" stroke-width="2" d="M2277.53,-1007.66C2270.81,-981.05 2259.18,-928.45 2259.18,-883 2259.18,-883 2259.18,-883 2259.18,-161 2259.18,-109.79 2213.38,-66.87 2179.33,-42.04"/>
<polygon fill="grey" stroke="grey" stroke-width="2" points="2181.15,-39.04 2170.97,-36.12 2177.11,-44.75 2181.15,-39.04"/>
</g>
<!-- 2 -->
<g id="node3" class="node">
<title>2</title>
<path fill="none" stroke="#d89556" stroke-width="2" d="M2038.18,-1116C2038.18,-1116 1948.18,-1116 1948.18,-1116 1942.18,-1116 1936.18,-1110 1936.18,-1104 1936.18,-1104 1936.18,-1092 1936.18,-1092 1936.18,-1086 1942.18,-1080 1948.18,-1080 1948.18,-1080 2038.18,-1080 2038.18,-1080 2044.18,-1080 2050.18,-1086 2050.18,-1092 2050.18,-1092 2050.18,-1104 2050.18,-1104 2050.18,-1110 2044.18,-1116 2038.18,-1116"/>
<text text-anchor="middle" x="1993.18" y="-1095.5" font-family="sans" font-size="10.00">export_brain_region</text>
</g>
<!-- 2&#45;&gt;1 -->
<g id="edge5" class="edge">
<title>2&#45;&gt;1</title>
<path fill="none" stroke="grey" stroke-width="2" d="M2050.28,-1083.17C2098.39,-1071.52 2167.22,-1054.85 2217.39,-1042.69"/>
<polygon fill="grey" stroke="grey" stroke-width="2" points="2218.27,-1046.08 2227.16,-1040.33 2216.62,-1039.28 2218.27,-1046.08"/>
</g>
<!-- 17 -->
<g id="node18" class="node">
<title>17</title>
<path fill="none" stroke="#56d89a" stroke-width="2" d="M2196.68,-972C2196.68,-972 2137.68,-972 2137.68,-972 2131.68,-972 2125.68,-966 2125.68,-960 2125.68,-960 2125.68,-948 2125.68,-948 2125.68,-942 2131.68,-936 2137.68,-936 2137.68,-936 2196.68,-936 2196.68,-936 2202.68,-936 2208.68,-942 2208.68,-948 2208.68,-948 2208.68,-960 2208.68,-960 2208.68,-966 2202.68,-972 2196.68,-972"/>
<text text-anchor="middle" x="2167.18" y="-951.5" font-family="sans" font-size="10.00">push_meshes</text>
</g>
<!-- 2&#45;&gt;17 -->
<g id="edge31" class="edge">
<title>2&#45;&gt;17</title>
<path fill="none" stroke="grey" stroke-width="2" d="M2014.17,-1079.87C2045.13,-1054.6 2103.15,-1007.25 2138.17,-978.68"/>
<polygon fill="grey" stroke="grey" stroke-width="2" points="2140.58,-981.22 2146.12,-972.19 2136.16,-975.8 2140.58,-981.22"/>
</g>
<!-- 19 -->
<g id="node20" class="node">
<title>19</title>
<path fill="none" stroke="#afd856" stroke-width="2" d="M2142.68,-756C2142.68,-756 2089.68,-756 2089.68,-756 2083.68,-756 2077.68,-750 2077.68,-744 2077.68,-744 2077.68,-732 2077.68,-732 2077.68,-726 2083.68,-720 2089.68,-720 2089.68,-720 2142.68,-720 2142.68,-720 2148.68,-720 2154.68,-726 2154.68,-732 2154.68,-732 2154.68,-744 2154.68,-744 2154.68,-750 2148.68,-756 2142.68,-756"/>
<text text-anchor="middle" x="2116.18" y="-735.5" font-family="sans" font-size="10.00">push_masks</text>
</g>
<!-- 2&#45;&gt;19 -->
<g id="edge36" class="edge">
<title>2&#45;&gt;19</title>
<path fill="none" stroke="grey" stroke-width="2" d="M1999.11,-1079.73C2018.92,-1022.08 2082.89,-835.89 2106.93,-765.92"/>
<polygon fill="grey" stroke="grey" stroke-width="2" points="2110.37,-766.69 2110.31,-756.09 2103.75,-764.41 2110.37,-766.69"/>
</g>
<!-- 3 -->
<g id="node4" class="node">
<title>3</title>
<path fill="none" stroke="#d86e56" stroke-width="2" d="M1153.18,-1260C1153.18,-1260 1033.18,-1260 1033.18,-1260 1027.18,-1260 1021.18,-1254 1021.18,-1248 1021.18,-1248 1021.18,-1236 1021.18,-1236 1021.18,-1230 1027.18,-1224 1033.18,-1224 1033.18,-1224 1153.18,-1224 1153.18,-1224 1159.18,-1224 1165.18,-1230 1165.18,-1236 1165.18,-1236 1165.18,-1248 1165.18,-1248 1165.18,-1254 1159.18,-1260 1153.18,-1260"/>
<text text-anchor="middle" x="1093.18" y="-1239.5" font-family="sans" font-size="10.00">split_barrel_ccfv3_l23split</text>
</g>
<!-- 3&#45;&gt;2 -->
<g id="edge11" class="edge">
<title>3&#45;&gt;2</title>
<path fill="none" stroke="grey" stroke-width="2" d="M1165.5,-1239.85C1389.61,-1235.95 2059.39,-1221.52 2091.18,-1188 2102.19,-1176.39 2099.37,-1165.74 2091.18,-1152 2083.22,-1138.64 2070.59,-1128.45 2057.02,-1120.75"/>
<polygon fill="grey" stroke="grey" stroke-width="2" points="2058.49,-1117.56 2048,-1116.04 2055.25,-1123.77 2058.49,-1117.56"/>
</g>
<!-- 10 -->
<g id="node11" class="node">
<title>10</title>
<path fill="none" stroke="#d6d856" stroke-width="2" d="M1639.68,-1188C1639.68,-1188 1532.68,-1188 1532.68,-1188 1526.68,-1188 1520.68,-1182 1520.68,-1176 1520.68,-1176 1520.68,-1164 1520.68,-1164 1520.68,-1158 1526.68,-1152 1532.68,-1152 1532.68,-1152 1639.68,-1152 1639.68,-1152 1645.68,-1152 1651.68,-1158 1651.68,-1164 1651.68,-1164 1651.68,-1176 1651.68,-1176 1651.68,-1182 1645.68,-1188 1639.68,-1188"/>
<text text-anchor="middle" x="1586.18" y="-1167.5" font-family="sans" font-size="10.00">validate_annotation_v3</text>
</g>
<!-- 3&#45;&gt;10 -->
<g id="edge22" class="edge">
<title>3&#45;&gt;10</title>
<path fill="none" stroke="grey" stroke-width="2" d="M1165.44,-1233.54C1248.09,-1224.58 1387.35,-1208.22 1506.18,-1188 1507.48,-1187.78 1508.79,-1187.55 1510.11,-1187.32"/>
<polygon fill="grey" stroke="grey" stroke-width="2" points="1511.14,-1190.69 1520.34,-1185.44 1509.87,-1183.8 1511.14,-1190.69"/>
</g>
<!-- 13 -->
<g id="node14" class="node">
<title>13</title>
<path fill="none" stroke="#56d892" stroke-width="2" d="M2396.18,-1116C2396.18,-1116 2322.18,-1116 2322.18,-1116 2316.18,-1116 2310.18,-1110 2310.18,-1104 2310.18,-1104 2310.18,-1092 2310.18,-1092 2310.18,-1086 2316.18,-1080 2322.18,-1080 2322.18,-1080 2396.18,-1080 2396.18,-1080 2402.18,-1080 2408.18,-1086 2408.18,-1092 2408.18,-1092 2408.18,-1104 2408.18,-1104 2408.18,-1110 2402.18,-1116 2396.18,-1116"/>
<text text-anchor="middle" x="2359.18" y="-1095.5" font-family="sans" font-size="10.00">placement_hints</text>
</g>
<!-- 3&#45;&gt;13 -->
<g id="edge25" class="edge">
<title>3&#45;&gt;13</title>
<path fill="none" stroke="grey" stroke-width="2" d="M1165.35,-1241.51C1410.02,-1242.76 2198.26,-1242.45 2297.18,-1188 2321.82,-1174.44 2338.81,-1146.41 2348.69,-1125.41"/>
<polygon fill="grey" stroke="grey" stroke-width="2" points="2351.99,-1126.61 2352.86,-1116.05 2345.6,-1123.76 2351.99,-1126.61"/>
</g>
<!-- 20 -->
<g id="node21" class="node">
<title>20</title>
<path fill="none" stroke="#b6d856" stroke-width="2" d="M2000.18,-828C2000.18,-828 1872.18,-828 1872.18,-828 1866.18,-828 1860.18,-822 1860.18,-816 1860.18,-816 1860.18,-804 1860.18,-804 1860.18,-798 1866.18,-792 1872.18,-792 1872.18,-792 2000.18,-792 2000.18,-792 2006.18,-792 2012.18,-798 2012.18,-804 2012.18,-804 2012.18,-816 2012.18,-816 2012.18,-822 2006.18,-828 2000.18,-828"/>
<text text-anchor="middle" x="1936.18" y="-807.5" font-family="sans" font-size="10.00">push_neuron_glia_densities</text>
</g>
<!-- 3&#45;&gt;20 -->
<g id="edge38" class="edge">
<title>3&#45;&gt;20</title>
<path fill="none" stroke="grey" stroke-width="2" d="M1165.41,-1240.6C1343.76,-1238.98 1794.39,-1230.64 1846.18,-1188 1877.81,-1161.96 1870.18,-1139.97 1870.18,-1099 1870.18,-1099 1870.18,-1099 1870.18,-953 1870.18,-908.84 1896.75,-863.56 1916.17,-836.35"/>
<polygon fill="grey" stroke="grey" stroke-width="2" points="1919.08,-838.31 1922.18,-828.18 1913.44,-834.16 1919.08,-838.31"/>
</g>
<!-- 22 -->
<g id="node23" class="node">
<title>22</title>
<path fill="none" stroke="#d89c56" stroke-width="2" d="M597.18,-972C597.18,-972 441.18,-972 441.18,-972 435.18,-972 429.18,-966 429.18,-960 429.18,-960 429.18,-948 429.18,-948 429.18,-942 435.18,-936 441.18,-936 441.18,-936 597.18,-936 597.18,-936 603.18,-936 609.18,-942 609.18,-948 609.18,-948 609.18,-960 609.18,-960 609.18,-966 603.18,-972 597.18,-972"/>
<text text-anchor="middle" x="519.18" y="-951.5" font-family="sans" font-size="10.00">glia_cell_densities_correctednissl</text>
</g>
<!-- 3&#45;&gt;22 -->
<g id="edge41" class="edge">
<title>3&#45;&gt;22</title>
<path fill="none" stroke="grey" stroke-width="2" d="M1021.02,-1241.39C841.18,-1241.62 384.13,-1237.29 338.18,-1188 270.77,-1115.69 407.87,-1019.98 479.44,-977.25"/>
<polygon fill="grey" stroke="grey" stroke-width="2" points="481.4,-980.16 488.24,-972.07 477.85,-974.13 481.4,-980.16"/>
</g>
<!-- 24 -->
<g id="node25" class="node">
<title>24</title>
<path fill="none" stroke="#56d8d0" stroke-width="2" d="M859.68,-1116C859.68,-1116 734.68,-1116 734.68,-1116 728.68,-1116 722.68,-1110 722.68,-1104 722.68,-1104 722.68,-1092 722.68,-1092 722.68,-1086 728.68,-1080 734.68,-1080 734.68,-1080 859.68,-1080 859.68,-1080 865.68,-1080 871.68,-1086 871.68,-1092 871.68,-1092 871.68,-1104 871.68,-1104 871.68,-1110 865.68,-1116 859.68,-1116"/>
<text text-anchor="middle" x="797.18" y="-1095.5" font-family="sans" font-size="10.00">cell_density_correctednissl</text>
</g>
<!-- 3&#45;&gt;24 -->
<g id="edge48" class="edge">
<title>3&#45;&gt;24</title>
<path fill="none" stroke="grey" stroke-width="2" d="M1165.43,-1241.7C1264.33,-1240.94 1434.1,-1232.91 1473.18,-1188 1483.68,-1175.93 1484.14,-1163.65 1473.18,-1152 1428.33,-1104.32 950.12,-1124.22 885.18,-1116 884.1,-1115.86 883.01,-1115.72 881.92,-1115.57"/>
<polygon fill="grey" stroke="grey" stroke-width="2" points="882.37,-1112.1 871.97,-1114.13 881.36,-1119.03 882.37,-1112.1"/>
</g>
<!-- 27 -->
<g id="node28" class="node">
<title>27</title>
<path fill="none" stroke="#56d85b" stroke-width="2" d="M692.18,-1116C692.18,-1116 612.18,-1116 612.18,-1116 606.18,-1116 600.18,-1110 600.18,-1104 600.18,-1104 600.18,-1092 600.18,-1092 600.18,-1086 606.18,-1080 612.18,-1080 612.18,-1080 692.18,-1080 692.18,-1080 698.18,-1080 704.18,-1086 704.18,-1092 704.18,-1092 704.18,-1104 704.18,-1104 704.18,-1110 698.18,-1116 692.18,-1116"/>
<text text-anchor="middle" x="652.18" y="-1095.5" font-family="sans" font-size="10.00">combine_markers</text>
</g>
<!-- 3&#45;&gt;27 -->
<g id="edge58" class="edge">
<title>3&#45;&gt;27</title>
<path fill="none" stroke="grey" stroke-width="2" d="M1020.95,-1230.84C981.39,-1223.12 932.55,-1209.96 893.18,-1188 872.86,-1176.67 875.55,-1163.24 855.18,-1152 798.55,-1120.76 776.7,-1132.55 714.18,-1116 714.08,-1115.97 713.98,-1115.95 713.88,-1115.92"/>
<polygon fill="grey" stroke="grey" stroke-width="2" points="714.82,-1112.55 704.26,-1113.35 713.02,-1119.31 714.82,-1112.55"/>
</g>
<!-- 34 -->
<g id="node35" class="node">
<title>34</title>
<path fill="none" stroke="#56d863" stroke-width="2" d="M2104.18,-540C2104.18,-540 1948.18,-540 1948.18,-540 1942.18,-540 1936.18,-534 1936.18,-528 1936.18,-528 1936.18,-516 1936.18,-516 1936.18,-510 1942.18,-504 1948.18,-504 1948.18,-504 2104.18,-504 2104.18,-504 2110.18,-504 2116.18,-510 2116.18,-516 2116.18,-516 2116.18,-528 2116.18,-528 2116.18,-534 2110.18,-540 2104.18,-540"/>
<text text-anchor="middle" x="2026.18" y="-519.5" font-family="sans" font-size="10.00">push_inhibitory_neuron_densities</text>
</g>
<!-- 3&#45;&gt;34 -->
<g id="edge61" class="edge">
<title>3&#45;&gt;34</title>
<path fill="none" stroke="grey" stroke-width="2" d="M1165.46,-1240.36C1347.55,-1238.14 1814.66,-1228.53 1871.18,-1188 1888.79,-1175.38 2014.73,-848.68 2021.18,-828 2033.23,-789.39 2040.18,-779.45 2040.18,-739 2040.18,-739 2040.18,-739 2040.18,-665 2040.18,-625.02 2034.62,-579.02 2030.5,-550.47"/>
<polygon fill="grey" stroke="grey" stroke-width="2" points="2033.95,-549.81 2029.01,-540.43 2027.02,-550.84 2033.95,-549.81"/>
</g>
<!-- 35 -->
<g id="node36" class="node">
<title>35</title>
<path fill="none" stroke="#59d856" stroke-width="2" d="M722.18,-612C722.18,-612 588.18,-612 588.18,-612 582.18,-612 576.18,-606 576.18,-600 576.18,-600 576.18,-588 576.18,-588 576.18,-582 582.18,-576 588.18,-576 588.18,-576 722.18,-576 722.18,-576 728.18,-576 734.18,-582 734.18,-588 734.18,-588 734.18,-600 734.18,-600 734.18,-606 728.18,-612 722.18,-612"/>
<text text-anchor="middle" x="655.18" y="-591.5" font-family="sans" font-size="10.00">validate_inhibitory_densities</text>
</g>
<!-- 3&#45;&gt;35 -->
<g id="edge64" class="edge">
<title>3&#45;&gt;35</title>
<path fill="none" stroke="grey" stroke-width="2" d="M1020.94,-1240.42C824.92,-1238.32 293.22,-1228.86 226.18,-1188 186.87,-1164.04 173.18,-1145.04 173.18,-1099 173.18,-1099 173.18,-1099 173.18,-881 173.18,-742.48 259.79,-716.52 380.18,-648 436.89,-615.73 509.71,-602.73 566.17,-597.66"/>
<polygon fill="grey" stroke="grey" stroke-width="2" points="566.48,-601.15 576.15,-596.83 565.9,-594.17 566.48,-601.15"/>
</g>
<!-- 36 -->
<g id="node37" class="node">
<title>36</title>
<path fill="none" stroke="#56d8b1" stroke-width="2" d="M775.18,-684C775.18,-684 535.18,-684 535.18,-684 529.18,-684 523.18,-678 523.18,-672 523.18,-672 523.18,-660 523.18,-660 523.18,-654 529.18,-648 535.18,-648 535.18,-648 775.18,-648 775.18,-648 781.18,-648 787.18,-654 787.18,-660 787.18,-660 787.18,-672 787.18,-672 787.18,-678 781.18,-684 775.18,-684"/>
<text text-anchor="middle" x="655.18" y="-663.5" font-family="sans" font-size="10.00">inhibitory_neuron_densities_linprog_correctednissl</text>
</g>
<!-- 3&#45;&gt;36 -->
<g id="edge67" class="edge">
<title>3&#45;&gt;36</title>
<path fill="none" stroke="grey" stroke-width="2" d="M1020.91,-1239.47C835.11,-1235.1 350.79,-1220.66 286.18,-1188 240.02,-1164.66 211.18,-1150.73 211.18,-1099 211.18,-1099 211.18,-1099 211.18,-1025 211.18,-834.83 461.06,-728.51 585.9,-687.26"/>
<polygon fill="grey" stroke="grey" stroke-width="2" points="587.34,-690.47 595.76,-684.05 585.17,-683.82 587.34,-690.47"/>
</g>
<!-- 37 -->
<g id="node38" class="node">
<title>37</title>
<path fill="none" stroke="#56b1d8" stroke-width="2" d="M1077.18,-756C1077.18,-756 907.18,-756 907.18,-756 901.18,-756 895.18,-750 895.18,-744 895.18,-744 895.18,-732 895.18,-732 895.18,-726 901.18,-720 907.18,-720 907.18,-720 1077.18,-720 1077.18,-720 1083.18,-720 1089.18,-726 1089.18,-732 1089.18,-732 1089.18,-744 1089.18,-744 1089.18,-750 1083.18,-756 1077.18,-756"/>
<text text-anchor="middle" x="992.18" y="-735.5" font-family="sans" font-size="10.00">fit_average_densities_correctednissl</text>
</g>
<!-- 3&#45;&gt;37 -->
<g id="edge74" class="edge">
<title>3&#45;&gt;37</title>
<path fill="none" stroke="grey" stroke-width="2" d="M1021.04,-1241.54C837.63,-1242.17 364.62,-1238.79 317.18,-1188 191.56,-1053.51 278.93,-884.23 438.18,-792 511.7,-749.43 745.62,-740.33 884.89,-738.81"/>
<polygon fill="grey" stroke="grey" stroke-width="2" points="885.2,-742.31 895.16,-738.71 885.13,-735.31 885.2,-742.31"/>
</g>
<!-- 45 -->
<g id="node46" class="node">
<title>45</title>
<path fill="none" stroke="#61d856" stroke-width="2" d="M1556.68,-828C1556.68,-828 1401.68,-828 1401.68,-828 1395.68,-828 1389.68,-822 1389.68,-816 1389.68,-816 1389.68,-804 1389.68,-804 1389.68,-798 1395.68,-792 1401.68,-792 1401.68,-792 1556.68,-792 1556.68,-792 1562.68,-792 1568.68,-798 1568.68,-804 1568.68,-804 1568.68,-816 1568.68,-816 1568.68,-822 1562.68,-828 1556.68,-828"/>
<text text-anchor="middle" x="1479.18" y="-807.5" font-family="sans" font-size="10.00">average_densities_correctednissl</text>
</g>
<!-- 3&#45;&gt;45 -->
<g id="edge84" class="edge">
<title>3&#45;&gt;45</title>
<path fill="none" stroke="grey" stroke-width="2" d="M1165.35,-1238.97C1310.03,-1234.24 1624.84,-1220.31 1661.18,-1188 1691.41,-1161.13 1680.18,-1139.45 1680.18,-1099 1680.18,-1099 1680.18,-1099 1680.18,-1025 1680.18,-949.09 1676.52,-918.01 1623.18,-864 1609.17,-849.81 1591.04,-839.39 1572.4,-831.75"/>
<polygon fill="grey" stroke="grey" stroke-width="2" points="1573.51,-828.42 1562.92,-828.1 1571,-834.96 1573.51,-828.42"/>
</g>
<!-- 48 -->
<g id="node49" class="node">
<title>48</title>
<path fill="none" stroke="#56d882" stroke-width="2" d="M528.18,-324C528.18,-324 378.18,-324 378.18,-324 372.18,-324 366.18,-318 366.18,-312 366.18,-312 366.18,-300 366.18,-300 366.18,-294 372.18,-288 378.18,-288 378.18,-288 528.18,-288 528.18,-288 534.18,-288 540.18,-294 540.18,-300 540.18,-300 540.18,-312 540.18,-312 540.18,-318 534.18,-324 528.18,-324"/>
<text text-anchor="middle" x="453.18" y="-303.5" font-family="sans" font-size="10.00">push_metype_pipeline_datasets</text>
</g>
<!-- 3&#45;&gt;48 -->
<g id="edge90" class="edge">
<title>3&#45;&gt;48</title>
<path fill="none" stroke="grey" stroke-width="2" d="M1021.01,-1241.09C811.77,-1240.77 215.05,-1235.66 142.18,-1188 105.09,-1163.74 97.18,-1143.32 97.18,-1099 97.18,-1099 97.18,-1099 97.18,-881 97.18,-785.51 116.18,-762.49 116.18,-667 116.18,-667 116.18,-667 116.18,-449 116.18,-344.19 256.31,-315.51 355.85,-308.35"/>
<polygon fill="grey" stroke="grey" stroke-width="2" points="356.21,-311.84 365.96,-307.69 355.75,-304.85 356.21,-311.84"/>
</g>
<!-- 50 -->
<g id="node51" class="node">
<title>50</title>
<path fill="none" stroke="#569ad8" stroke-width="2" d="M805.18,-468C805.18,-468 577.18,-468 577.18,-468 571.18,-468 565.18,-462 565.18,-456 565.18,-456 565.18,-444 565.18,-444 565.18,-438 571.18,-432 577.18,-432 577.18,-432 805.18,-432 805.18,-432 811.18,-432 817.18,-438 817.18,-444 817.18,-444 817.18,-456 817.18,-456 817.18,-462 811.18,-468 805.18,-468"/>
<text text-anchor="middle" x="691.18" y="-447.5" font-family="sans" font-size="10.00">create_mtypes_densities_from_probability_map</text>
</g>
<!-- 3&#45;&gt;50 -->
<g id="edge95" class="edge">
<title>3&#45;&gt;50</title>
<path fill="none" stroke="grey" stroke-width="2" d="M1020.84,-1240.83C817.64,-1239.8 251.97,-1232.88 182.18,-1188 144.56,-1163.8 135.18,-1143.73 135.18,-1099 135.18,-1099 135.18,-1099 135.18,-881 135.18,-785.51 154.18,-762.49 154.18,-667 154.18,-667 154.18,-667 154.18,-593 154.18,-552.55 143.07,-531.01 173.18,-504 201.13,-478.93 410.97,-464.08 554.84,-456.74"/>
<polygon fill="grey" stroke="grey" stroke-width="2" points="555.27,-460.22 565.08,-456.22 554.92,-453.23 555.27,-460.22"/>
</g>
<!-- 58 -->
<g id="node59" class="node">
<title>58</title>
<path fill="none" stroke="#56d8a9" stroke-width="2" d="M1550.18,-540C1550.18,-540 1482.18,-540 1482.18,-540 1476.18,-540 1470.18,-534 1470.18,-528 1470.18,-528 1470.18,-516 1470.18,-516 1470.18,-510 1476.18,-504 1482.18,-504 1482.18,-504 1550.18,-504 1550.18,-504 1556.18,-504 1562.18,-510 1562.18,-516 1562.18,-516 1562.18,-528 1562.18,-528 1562.18,-534 1556.18,-540 1550.18,-540"/>
<text text-anchor="middle" x="1516.18" y="-519.5" font-family="sans" font-size="10.00">excitatory_split</text>
</g>
<!-- 3&#45;&gt;58 -->
<g id="edge106" class="edge">
<title>3&#45;&gt;58</title>
<path fill="none" stroke="grey" stroke-width="2" d="M1165.33,-1238.48C1301.27,-1233.09 1590.21,-1218.36 1685.18,-1188 1757.93,-1164.74 1832.18,-1175.37 1832.18,-1099 1832.18,-1099 1832.18,-1099 1832.18,-1025 1832.18,-928.4 1794.18,-907.6 1794.18,-811 1794.18,-811 1794.18,-811 1794.18,-665 1794.18,-624.55 1803.9,-604.48 1775.18,-576 1747.13,-548.18 1639.67,-533.81 1572.29,-527.38"/>
<polygon fill="grey" stroke="grey" stroke-width="2" points="1572.53,-523.89 1562.25,-526.45 1571.89,-530.86 1572.53,-523.89"/>
</g>
<!-- 60 -->
<g id="node61" class="node">
<title>60</title>
<path fill="none" stroke="#5663d8" stroke-width="2" d="M262.18,-108C262.18,-108 162.18,-108 162.18,-108 156.18,-108 150.18,-102 150.18,-96 150.18,-96 150.18,-84 150.18,-84 150.18,-78 156.18,-72 162.18,-72 162.18,-72 262.18,-72 262.18,-72 268.18,-72 274.18,-78 274.18,-84 274.18,-84 274.18,-96 274.18,-96 274.18,-102 268.18,-108 262.18,-108"/>
<text text-anchor="middle" x="212.18" y="-87.5" font-family="sans" font-size="10.00">push_cellComposition</text>
</g>
<!-- 3&#45;&gt;60 -->
<g id="edge111" class="edge">
<title>3&#45;&gt;60</title>
<path fill="none" stroke="grey" stroke-width="2" d="M1021.09,-1241.32C798.79,-1241.74 133.99,-1238.71 52.18,-1188 13.62,-1164.1 2.18,-1144.37 2.18,-1099 2.18,-1099 2.18,-1099 2.18,-233 2.18,-192.55 -6.54,-173.45 21.18,-144 51.52,-111.78 99.57,-98.55 139.89,-93.37"/>
<polygon fill="grey" stroke="grey" stroke-width="2" points="140.42,-96.83 149.96,-92.22 139.63,-89.88 140.42,-96.83"/>
</g>
<!-- 62 -->
<g id="node63" class="node">
<title>62</title>
<path fill="none" stroke="#567bd8" stroke-width="2" d="M241.68,-180C241.68,-180 42.68,-180 42.68,-180 36.68,-180 30.68,-174 30.68,-168 30.68,-168 30.68,-156 30.68,-156 30.68,-150 36.68,-144 42.68,-144 42.68,-144 241.68,-144 241.68,-144 247.68,-144 253.68,-150 253.68,-156 253.68,-156 253.68,-168 253.68,-168 253.68,-174 247.68,-180 241.68,-180"/>
<text text-anchor="middle" x="142.18" y="-159.5" font-family="sans" font-size="10.00">create_cellCompositionSummary_payload</text>
</g>
<!-- 3&#45;&gt;62 -->
<g id="edge115" class="edge">
<title>3&#45;&gt;62</title>
<path fill="none" stroke="grey" stroke-width="2" d="M1021.06,-1240.74C806.62,-1239.46 182.87,-1231.96 103.18,-1188 60.75,-1164.59 40.18,-1147.46 40.18,-1099 40.18,-1099 40.18,-1099 40.18,-305 40.18,-255.82 81.04,-212.01 111.04,-186.48"/>
<polygon fill="grey" stroke="grey" stroke-width="2" points="113.3,-189.15 118.78,-180.08 108.84,-183.75 113.3,-189.15"/>
</g>
<!-- 4 -->
<g id="node5" class="node">
<title>4</title>
<path fill="none" stroke="#56a2d8" stroke-width="2" d="M1641.68,-1332C1641.68,-1332 1414.68,-1332 1414.68,-1332 1408.68,-1332 1402.68,-1326 1402.68,-1320 1402.68,-1320 1402.68,-1308 1402.68,-1308 1402.68,-1302 1408.68,-1296 1414.68,-1296 1414.68,-1296 1641.68,-1296 1641.68,-1296 1647.68,-1296 1653.68,-1302 1653.68,-1308 1653.68,-1308 1653.68,-1320 1653.68,-1320 1653.68,-1326 1647.68,-1332 1641.68,-1332"/>
<text text-anchor="middle" x="1528.18" y="-1311.5" font-family="sans" font-size="10.00">create_leaves_only_hierarchy_annotation_ccfv3</text>
</g>
<!-- 4&#45;&gt;3 -->
<g id="edge14" class="edge">
<title>4&#45;&gt;3</title>
<path fill="none" stroke="grey" stroke-width="2" d="M1422.32,-1295.97C1346.34,-1283.74 1245.41,-1267.5 1175.44,-1256.24"/>
<polygon fill="grey" stroke="grey" stroke-width="2" points="1175.78,-1252.75 1165.35,-1254.61 1174.67,-1259.66 1175.78,-1252.75"/>
</g>
<!-- 5 -->
<g id="node6" class="node">
<title>5</title>
<path fill="none" stroke="#56c9d8" stroke-width="2" d="M2325.68,-1404C2325.68,-1404 2182.68,-1404 2182.68,-1404 2176.68,-1404 2170.68,-1398 2170.68,-1392 2170.68,-1392 2170.68,-1380 2170.68,-1380 2170.68,-1374 2176.68,-1368 2182.68,-1368 2182.68,-1368 2325.68,-1368 2325.68,-1368 2331.68,-1368 2337.68,-1374 2337.68,-1380 2337.68,-1380 2337.68,-1392 2337.68,-1392 2337.68,-1398 2331.68,-1404 2325.68,-1404"/>
<text text-anchor="middle" x="2254.18" y="-1383.5" font-family="sans" font-size="10.00">split_isocortex_layer_23_ccfv3</text>
</g>
<!-- 5&#45;&gt;4 -->
<g id="edge16" class="edge">
<title>5&#45;&gt;4</title>
<path fill="none" stroke="grey" stroke-width="2" d="M2170.55,-1376.94C2046.53,-1364.98 1812.56,-1342.42 1663.82,-1328.08"/>
<polygon fill="grey" stroke="grey" stroke-width="2" points="1664,-1324.58 1653.71,-1327.1 1663.33,-1331.55 1664,-1324.58"/>
</g>
<!-- 6 -->
<g id="node7" class="node">
<title>6</title>
<path fill="none" stroke="#d8cb56" stroke-width="2" d="M2473.18,-1548C2473.18,-1548 2319.18,-1548 2319.18,-1548 2313.18,-1548 2307.18,-1542 2307.18,-1536 2307.18,-1536 2307.18,-1524 2307.18,-1524 2307.18,-1518 2313.18,-1512 2319.18,-1512 2319.18,-1512 2473.18,-1512 2473.18,-1512 2479.18,-1512 2485.18,-1518 2485.18,-1524 2485.18,-1524 2485.18,-1536 2485.18,-1536 2485.18,-1542 2479.18,-1548 2473.18,-1548"/>
<text text-anchor="middle" x="2396.18" y="-1527.5" font-family="sans" font-size="10.00">fetch_ccf_brain_region_hierarchy</text>
</g>
<!-- 6&#45;&gt;5 -->
<g id="edge17" class="edge">
<title>6&#45;&gt;5</title>
<path fill="none" stroke="grey" stroke-width="2" d="M2396.96,-1511.95C2396.94,-1492.44 2394.02,-1460.52 2377.18,-1440 2365.73,-1426.05 2349.92,-1415.68 2333.44,-1408.01"/>
<polygon fill="grey" stroke="grey" stroke-width="2" points="2334.8,-1404.79 2324.24,-1404.02 2332.02,-1411.21 2334.8,-1404.79"/>
</g>
<!-- 8 -->
<g id="node9" class="node">
<title>8</title>
<path fill="none" stroke="#56d89a" stroke-width="2" d="M2356.18,-1476C2356.18,-1476 2198.18,-1476 2198.18,-1476 2192.18,-1476 2186.18,-1470 2186.18,-1464 2186.18,-1464 2186.18,-1452 2186.18,-1452 2186.18,-1446 2192.18,-1440 2198.18,-1440 2198.18,-1440 2356.18,-1440 2356.18,-1440 2362.18,-1440 2368.18,-1446 2368.18,-1452 2368.18,-1452 2368.18,-1464 2368.18,-1464 2368.18,-1470 2362.18,-1476 2356.18,-1476"/>
<text text-anchor="middle" x="2277.18" y="-1455.5" font-family="sans" font-size="10.00">direction_vectors_isocortex_ccfv3</text>
</g>
<!-- 6&#45;&gt;8 -->
<g id="edge21" class="edge">
<title>6&#45;&gt;8</title>
<path fill="none" stroke="grey" stroke-width="2" d="M2367.07,-1511.88C2351.51,-1502.72 2332.16,-1491.34 2315.41,-1481.48"/>
<polygon fill="grey" stroke="grey" stroke-width="2" points="2316.8,-1478.24 2306.4,-1476.19 2313.25,-1484.28 2316.8,-1478.24"/>
</g>
<!-- 15 -->
<g id="node16" class="node">
<title>15</title>
<path fill="none" stroke="#56d85b" stroke-width="2" d="M2508.18,-1188C2508.18,-1188 2360.18,-1188 2360.18,-1188 2354.18,-1188 2348.18,-1182 2348.18,-1176 2348.18,-1176 2348.18,-1164 2348.18,-1164 2348.18,-1158 2354.18,-1152 2360.18,-1152 2360.18,-1152 2508.18,-1152 2508.18,-1152 2514.18,-1152 2520.18,-1158 2520.18,-1164 2520.18,-1164 2520.18,-1176 2520.18,-1176 2520.18,-1182 2514.18,-1188 2508.18,-1188"/>
<text text-anchor="middle" x="2434.18" y="-1167.5" font-family="sans" font-size="10.00">direction_vectors_default_ccfv3</text>
</g>
<!-- 6&#45;&gt;15 -->
<g id="edge28" class="edge">
<title>6&#45;&gt;15</title>
<path fill="none" stroke="grey" stroke-width="2" d="M2403.87,-1511.91C2414.97,-1485.62 2434.18,-1433.45 2434.18,-1387 2434.18,-1387 2434.18,-1387 2434.18,-1313 2434.18,-1273 2434.18,-1226.65 2434.18,-1198.08"/>
<polygon fill="grey" stroke="grey" stroke-width="2" points="2437.68,-1198.05 2434.18,-1188.05 2430.68,-1198.05 2437.68,-1198.05"/>
</g>
<!-- 7 -->
<g id="node8" class="node">
<title>7</title>
<path fill="none" stroke="#bed856" stroke-width="2" d="M2229.18,-1548C2229.18,-1548 2087.18,-1548 2087.18,-1548 2081.18,-1548 2075.18,-1542 2075.18,-1536 2075.18,-1536 2075.18,-1524 2075.18,-1524 2075.18,-1518 2081.18,-1512 2087.18,-1512 2087.18,-1512 2229.18,-1512 2229.18,-1512 2235.18,-1512 2241.18,-1518 2241.18,-1524 2241.18,-1524 2241.18,-1536 2241.18,-1536 2241.18,-1542 2235.18,-1548 2229.18,-1548"/>
<text text-anchor="middle" x="2158.18" y="-1527.5" font-family="sans" font-size="10.00">fetch_brain_parcellation_ccfv3</text>
</g>
<!-- 7&#45;&gt;5 -->
<g id="edge18" class="edge">
<title>7&#45;&gt;5</title>
<path fill="none" stroke="grey" stroke-width="2" d="M2158.17,-1511.82C2158.95,-1492.75 2162.61,-1461.81 2177.18,-1440 2185.31,-1427.84 2197.26,-1417.67 2209.33,-1409.6"/>
<polygon fill="grey" stroke="grey" stroke-width="2" points="2211.48,-1412.38 2218.09,-1404.1 2207.76,-1406.46 2211.48,-1412.38"/>
</g>
<!-- 7&#45;&gt;8 -->
<g id="edge20" class="edge">
<title>7&#45;&gt;8</title>
<path fill="none" stroke="grey" stroke-width="2" d="M2187.29,-1511.88C2202.85,-1502.72 2222.2,-1491.34 2238.96,-1481.48"/>
<polygon fill="grey" stroke="grey" stroke-width="2" points="2241.11,-1484.28 2247.96,-1476.19 2237.56,-1478.24 2241.11,-1484.28"/>
</g>
<!-- 7&#45;&gt;15 -->
<g id="edge29" class="edge">
<title>7&#45;&gt;15</title>
<path fill="none" stroke="grey" stroke-width="2" d="M2150.49,-1511.91C2139.39,-1485.62 2120.18,-1433.45 2120.18,-1387 2120.18,-1387 2120.18,-1387 2120.18,-1313 2120.18,-1261.86 2260.2,-1215.7 2353.24,-1190.67"/>
<polygon fill="grey" stroke="grey" stroke-width="2" points="2354.16,-1194.05 2362.93,-1188.1 2352.37,-1187.28 2354.16,-1194.05"/>
</g>
<!-- 8&#45;&gt;5 -->
<g id="edge19" class="edge">
<title>8&#45;&gt;5</title>
<path fill="none" stroke="grey" stroke-width="2" d="M2271.5,-1439.7C2268.93,-1431.9 2265.85,-1422.51 2263,-1413.83"/>
<polygon fill="grey" stroke="grey" stroke-width="2" points="2266.25,-1412.51 2259.8,-1404.1 2259.6,-1414.7 2266.25,-1412.51"/>
</g>
<!-- 9 -->
<g id="node10" class="node">
<title>9</title>
<path fill="none" stroke="#56d8a9" stroke-width="2" d="M1143.68,-1332C1143.68,-1332 1042.68,-1332 1042.68,-1332 1036.68,-1332 1030.68,-1326 1030.68,-1320 1030.68,-1320 1030.68,-1308 1030.68,-1308 1030.68,-1302 1036.68,-1296 1042.68,-1296 1042.68,-1296 1143.68,-1296 1143.68,-1296 1149.68,-1296 1155.68,-1302 1155.68,-1308 1155.68,-1308 1155.68,-1320 1155.68,-1320 1155.68,-1326 1149.68,-1332 1143.68,-1332"/>
<text text-anchor="middle" x="1093.18" y="-1311.5" font-family="sans" font-size="10.00">fetch_barrel_positions</text>
</g>
<!-- 9&#45;&gt;3 -->
<g id="edge15" class="edge">
<title>9&#45;&gt;3</title>
<path fill="none" stroke="grey" stroke-width="2" d="M1093.18,-1295.7C1093.18,-1287.98 1093.18,-1278.71 1093.18,-1270.11"/>
<polygon fill="grey" stroke="grey" stroke-width="2" points="1096.68,-1270.1 1093.18,-1260.1 1089.68,-1270.1 1096.68,-1270.1"/>
</g>
<!-- 10&#45;&gt;1 -->
<g id="edge6" class="edge">
<title>10&#45;&gt;1</title>
<path fill="none" stroke="grey" stroke-width="2" d="M1651.86,-1165.97C1817.43,-1158.05 2240.39,-1135.97 2263.18,-1116 2280.41,-1100.91 2284.22,-1074.38 2284.28,-1054.19"/>
<polygon fill="grey" stroke="grey" stroke-width="2" points="2287.78,-1053.93 2284.01,-1044.03 2280.78,-1054.12 2287.78,-1053.93"/>
</g>
<!-- 10&#45;&gt;2 -->
<g id="edge12" class="edge">
<title>10&#45;&gt;2</title>
<path fill="none" stroke="grey" stroke-width="2" d="M1652.03,-1157.68C1727.38,-1144.71 1850.16,-1123.6 1926.05,-1110.55"/>
<polygon fill="grey" stroke="grey" stroke-width="2" points="1926.72,-1113.98 1935.98,-1108.84 1925.53,-1107.08 1926.72,-1113.98"/>
</g>
<!-- 12 -->
<g id="node13" class="node">
<title>12</title>
<path fill="none" stroke="#56d8c9" stroke-width="2" d="M2241.68,-1116C2241.68,-1116 2118.68,-1116 2118.68,-1116 2112.68,-1116 2106.68,-1110 2106.68,-1104 2106.68,-1104 2106.68,-1092 2106.68,-1092 2106.68,-1086 2112.68,-1080 2118.68,-1080 2118.68,-1080 2241.68,-1080 2241.68,-1080 2247.68,-1080 2253.68,-1086 2253.68,-1092 2253.68,-1092 2253.68,-1104 2253.68,-1104 2253.68,-1110 2247.68,-1116 2241.68,-1116"/>
<text text-anchor="middle" x="2180.18" y="-1095.5" font-family="sans" font-size="10.00">create_hemispheres_ccfv3</text>
</g>
<!-- 10&#45;&gt;12 -->
<g id="edge23" class="edge">
<title>10&#45;&gt;12</title>
<path fill="none" stroke="grey" stroke-width="2" d="M1652.06,-1162.21C1743.51,-1152.64 1914.07,-1134.32 2059.18,-1116 2071.3,-1114.47 2084.1,-1112.77 2096.65,-1111.05"/>
<polygon fill="grey" stroke="grey" stroke-width="2" points="2097.21,-1114.5 2106.64,-1109.67 2096.25,-1107.57 2097.21,-1114.5"/>
</g>
<!-- 10&#45;&gt;13 -->
<g id="edge24" class="edge">
<title>10&#45;&gt;13</title>
<path fill="none" stroke="grey" stroke-width="2" d="M1651.76,-1165.69C1803.12,-1157.81 2173.27,-1136.98 2296.18,-1116 2297.44,-1115.79 2298.7,-1115.56 2299.98,-1115.32"/>
<polygon fill="grey" stroke="grey" stroke-width="2" points="2300.78,-1118.72 2309.85,-1113.26 2299.35,-1111.87 2300.78,-1118.72"/>
</g>
<!-- 21 -->
<g id="node22" class="node">
<title>21</title>
<path fill="none" stroke="#d8ac56" stroke-width="2" d="M1387.68,-900C1387.68,-900 1220.68,-900 1220.68,-900 1214.68,-900 1208.68,-894 1208.68,-888 1208.68,-888 1208.68,-876 1208.68,-876 1208.68,-870 1214.68,-864 1220.68,-864 1220.68,-864 1387.68,-864 1387.68,-864 1393.68,-864 1399.68,-870 1399.68,-876 1399.68,-876 1399.68,-888 1399.68,-888 1399.68,-894 1393.68,-900 1387.68,-900"/>
<text text-anchor="middle" x="1304.18" y="-879.5" font-family="sans" font-size="10.00">validate_neuron_glia_cell_densities</text>
</g>
<!-- 10&#45;&gt;21 -->
<g id="edge39" class="edge">
<title>10&#45;&gt;21</title>
<path fill="none" stroke="grey" stroke-width="2" d="M1520.4,-1152.19C1497.12,-1143.97 1471.85,-1132.26 1452.18,-1116 1381.84,-1057.85 1334.24,-957.26 1314.49,-909.57"/>
<polygon fill="grey" stroke="grey" stroke-width="2" points="1317.7,-908.17 1310.69,-900.23 1311.21,-910.81 1317.7,-908.17"/>
</g>
<!-- 10&#45;&gt;22 -->
<g id="edge42" class="edge">
<title>10&#45;&gt;22</title>
<path fill="none" stroke="grey" stroke-width="2" d="M1520.65,-1156.31C1510.8,-1154.68 1500.74,-1153.18 1491.18,-1152 1374.02,-1137.58 1071.84,-1157.11 961.18,-1116 936.18,-1106.71 936.89,-1092.2 913.18,-1080 814.47,-1029.19 691.17,-994.14 609.05,-974.36"/>
<polygon fill="grey" stroke="grey" stroke-width="2" points="609.78,-970.93 599.25,-972.02 608.16,-977.74 609.78,-970.93"/>
</g>
<!-- 23 -->
<g id="node24" class="node">
<title>23</title>
<path fill="none" stroke="#9fd856" stroke-width="2" d="M1111.18,-1044C1111.18,-1044 1015.18,-1044 1015.18,-1044 1009.18,-1044 1003.18,-1038 1003.18,-1032 1003.18,-1032 1003.18,-1020 1003.18,-1020 1003.18,-1014 1009.18,-1008 1015.18,-1008 1015.18,-1008 1111.18,-1008 1111.18,-1008 1117.18,-1008 1123.18,-1014 1123.18,-1020 1123.18,-1020 1123.18,-1032 1123.18,-1032 1123.18,-1038 1117.18,-1044 1111.18,-1044"/>
<text text-anchor="middle" x="1063.18" y="-1023.5" font-family="sans" font-size="10.00">validate_cell_density</text>
</g>
<!-- 10&#45;&gt;23 -->
<g id="edge46" class="edge">
<title>10&#45;&gt;23</title>
<path fill="none" stroke="grey" stroke-width="2" d="M1520.53,-1157.13C1510.7,-1155.39 1500.68,-1153.63 1491.18,-1152 1394.4,-1135.35 1367.5,-1143.35 1273.18,-1116 1213.08,-1098.57 1147.14,-1068.74 1105.49,-1048.46"/>
<polygon fill="grey" stroke="grey" stroke-width="2" points="1106.99,-1045.3 1096.47,-1044.04 1103.9,-1051.58 1106.99,-1045.3"/>
</g>
<!-- 10&#45;&gt;24 -->
<g id="edge49" class="edge">
<title>10&#45;&gt;24</title>
<path fill="none" stroke="grey" stroke-width="2" d="M1520.4,-1154.2C1515.6,-1153.37 1510.82,-1152.62 1506.18,-1152 1232.18,-1115.16 1159.51,-1150.29 885.18,-1116 884.1,-1115.86 883.01,-1115.72 881.92,-1115.58"/>
<polygon fill="grey" stroke="grey" stroke-width="2" points="882.36,-1112.11 871.97,-1114.15 881.37,-1119.04 882.36,-1112.11"/>
</g>
<!-- 10&#45;&gt;27 -->
<g id="edge59" class="edge">
<title>10&#45;&gt;27</title>
<path fill="none" stroke="grey" stroke-width="2" d="M1520.59,-1157.98C1505.09,-1155.69 1488.58,-1153.52 1473.18,-1152 1140.38,-1119.16 1049.48,-1168 714.42,-1115.77"/>
<polygon fill="grey" stroke="grey" stroke-width="2" points="714.86,-1112.3 704.43,-1114.2 713.77,-1119.21 714.86,-1112.3"/>
</g>
<!-- 10&#45;&gt;35 -->
<g id="edge62" class="edge">
<title>10&#45;&gt;35</title>
<path fill="none" stroke="grey" stroke-width="2" d="M1619.49,-1151.87C1658.59,-1129.09 1718.18,-1084.89 1718.18,-1027 1718.18,-1027 1718.18,-1027 1718.18,-737 1718.18,-639.05 999.88,-606.18 744.21,-597.58"/>
<polygon fill="grey" stroke="grey" stroke-width="2" points="744.32,-594.09 734.21,-597.25 744.09,-601.08 744.32,-594.09"/>
</g>
<!-- 10&#45;&gt;36 -->
<g id="edge68" class="edge">
<title>10&#45;&gt;36</title>
<path fill="none" stroke="grey" stroke-width="2" d="M1526.24,-1151.91C1492.54,-1142.01 1449.8,-1128.96 1412.18,-1116 1286.08,-1072.54 1260.44,-1044.6 1132.18,-1008 967.3,-960.96 922.59,-962.4 753.18,-936 687.93,-925.83 501.96,-949.45 458.18,-900 390.61,-823.68 535.93,-730.45 612.27,-688.85"/>
<polygon fill="grey" stroke="grey" stroke-width="2" points="614.07,-691.86 621.22,-684.04 610.75,-685.69 614.07,-691.86"/>
</g>
<!-- 10&#45;&gt;37 -->
<g id="edge75" class="edge">
<title>10&#45;&gt;37</title>
<path fill="none" stroke="grey" stroke-width="2" d="M1593.56,-1151.92C1619.71,-1088.59 1700.04,-866.91 1578.18,-792 1538.48,-767.59 1257.59,-751.05 1099.56,-743.56"/>
<polygon fill="grey" stroke="grey" stroke-width="2" points="1099.48,-740.06 1089.33,-743.08 1099.15,-747.05 1099.48,-740.06"/>
</g>
<!-- 10&#45;&gt;45 -->
<g id="edge85" class="edge">
<title>10&#45;&gt;45</title>
<path fill="none" stroke="grey" stroke-width="2" d="M1557.13,-1151.91C1521.62,-1128.58 1466.18,-1083.16 1466.18,-1027 1466.18,-1027 1466.18,-1027 1466.18,-953 1466.18,-912.83 1471.4,-866.53 1475.23,-838.01"/>
<polygon fill="grey" stroke="grey" stroke-width="2" points="1478.71,-838.39 1476.61,-828 1471.78,-837.43 1478.71,-838.39"/>
</g>
<!-- 49 -->
<g id="node50" class="node">
<title>49</title>
<path fill="none" stroke="#5673d8" stroke-width="2" d="M1119.68,-396C1119.68,-396 1000.68,-396 1000.68,-396 994.68,-396 988.68,-390 988.68,-384 988.68,-384 988.68,-372 988.68,-372 988.68,-366 994.68,-360 1000.68,-360 1000.68,-360 1119.68,-360 1119.68,-360 1125.68,-360 1131.68,-366 1131.68,-372 1131.68,-372 1131.68,-384 1131.68,-384 1131.68,-390 1125.68,-396 1119.68,-396"/>
<text text-anchor="middle" x="1060.18" y="-375.5" font-family="sans" font-size="10.00">validate_all_ME_densities</text>
</g>
<!-- 10&#45;&gt;49 -->
<g id="edge91" class="edge">
<title>10&#45;&gt;49</title>
<path fill="none" stroke="grey" stroke-width="2" d="M1652.01,-1157.03C1679.97,-1149.22 1711.32,-1136.5 1734.18,-1116 1796.81,-1059.83 1832.18,-876.96 1832.18,-811 1832.18,-811 1832.18,-811 1832.18,-737 1832.18,-663.87 1847.27,-630.21 1798.18,-576 1773.24,-548.46 1303.97,-432.43 1302.18,-432 1248.92,-419.05 1188.72,-405.86 1141.69,-395.88"/>
<polygon fill="grey" stroke="grey" stroke-width="2" points="1142.36,-392.44 1131.86,-393.8 1140.91,-399.29 1142.36,-392.44"/>
</g>
<!-- 10&#45;&gt;50 -->
<g id="edge96" class="edge">
<title>10&#45;&gt;50</title>
<path fill="none" stroke="grey" stroke-width="2" d="M1520.6,-1156.7C1510.76,-1155.02 1500.71,-1153.39 1491.18,-1152 1351.32,-1131.54 1313.84,-1143.46 1175.18,-1116 1003.37,-1081.97 965.42,-1053.11 796.18,-1008 732.02,-990.9 708.27,-1005.92 651.18,-972 632.52,-960.91 637.35,-946.18 618.18,-936 522.15,-884.99 456.24,-973.59 376.18,-900 245.94,-780.29 284.39,-621.99 416.18,-504 437.41,-484.99 496.86,-472.28 555.07,-464.08"/>
<polygon fill="grey" stroke="grey" stroke-width="2" points="555.72,-467.53 565.15,-462.7 554.77,-460.59 555.72,-467.53"/>
</g>
<!-- 10&#45;&gt;58 -->
<g id="edge107" class="edge">
<title>10&#45;&gt;58</title>
<path fill="none" stroke="grey" stroke-width="2" d="M1635.35,-1151.98C1685.56,-1131.1 1756.18,-1090.45 1756.18,-1027 1756.18,-1027 1756.18,-1027 1756.18,-737 1756.18,-624.15 1602.56,-702.52 1535.18,-612 1521.95,-594.22 1517.51,-569.21 1516.21,-550.23"/>
<polygon fill="grey" stroke="grey" stroke-width="2" points="1519.7,-549.95 1515.76,-540.12 1512.71,-550.26 1519.7,-549.95"/>
</g>
<!-- 10&#45;&gt;62 -->
<g id="edge116" class="edge">
<title>10&#45;&gt;62</title>
<path fill="none" stroke="grey" stroke-width="2" d="M1520.66,-1156.26C1510.81,-1154.64 1500.75,-1153.15 1491.18,-1152 1363.41,-1136.64 1028.88,-1172.35 913.18,-1116 893.93,-1106.63 899.57,-1090.95 881.18,-1080 878.36,-1078.32 423.1,-973.52 420.18,-972 239.46,-878.1 78.18,-870.66 78.18,-667 78.18,-667 78.18,-667 78.18,-305 78.18,-261.08 103.94,-215.73 122.78,-188.44"/>
<polygon fill="grey" stroke="grey" stroke-width="2" points="125.67,-190.42 128.61,-180.24 119.96,-186.37 125.67,-190.42"/>
</g>
<!-- 11 -->
<g id="node12" class="node">
<title>11</title>
<path fill="none" stroke="#61d856" stroke-width="2" d="M2069.68,-1188C2069.68,-1188 1948.68,-1188 1948.68,-1188 1942.68,-1188 1936.68,-1182 1936.68,-1176 1936.68,-1176 1936.68,-1164 1936.68,-1164 1936.68,-1158 1942.68,-1152 1948.68,-1152 1948.68,-1152 2069.68,-1152 2069.68,-1152 2075.68,-1152 2081.68,-1158 2081.68,-1164 2081.68,-1164 2081.68,-1176 2081.68,-1176 2081.68,-1182 2075.68,-1188 2069.68,-1188"/>
<text text-anchor="middle" x="2009.18" y="-1167.5" font-family="sans" font-size="10.00">fetch_regions_layers_map</text>
</g>
<!-- 11&#45;&gt;2 -->
<g id="edge13" class="edge">
<title>11&#45;&gt;2</title>
<path fill="none" stroke="grey" stroke-width="2" d="M2005.23,-1151.7C2003.46,-1143.98 2001.34,-1134.71 1999.38,-1126.11"/>
<polygon fill="grey" stroke="grey" stroke-width="2" points="2002.73,-1125.07 1997.09,-1116.1 1995.91,-1126.63 2002.73,-1125.07"/>
</g>
<!-- 12&#45;&gt;1 -->
<g id="edge7" class="edge">
<title>12&#45;&gt;1</title>
<path fill="none" stroke="grey" stroke-width="2" d="M2205.13,-1079.88C2218.22,-1070.89 2234.44,-1059.76 2248.62,-1050.03"/>
<polygon fill="grey" stroke="grey" stroke-width="2" points="2250.87,-1052.73 2257.13,-1044.19 2246.91,-1046.96 2250.87,-1052.73"/>
</g>
<!-- 13&#45;&gt;1 -->
<g id="edge8" class="edge">
<title>13&#45;&gt;1</title>
<path fill="none" stroke="grey" stroke-width="2" d="M2340.15,-1079.7C2330.64,-1071.05 2318.97,-1060.45 2308.61,-1051.03"/>
<polygon fill="grey" stroke="grey" stroke-width="2" points="2310.75,-1048.24 2301,-1044.1 2306.04,-1053.42 2310.75,-1048.24"/>
</g>
<!-- 14 -->
<g id="node15" class="node">
<title>14</title>
<path fill="none" stroke="#56a2d8" stroke-width="2" d="M2276.18,-1188C2276.18,-1188 2156.18,-1188 2156.18,-1188 2150.18,-1188 2144.18,-1182 2144.18,-1176 2144.18,-1176 2144.18,-1164 2144.18,-1164 2144.18,-1158 2150.18,-1152 2156.18,-1152 2156.18,-1152 2276.18,-1152 2276.18,-1152 2282.18,-1152 2288.18,-1158 2288.18,-1164 2288.18,-1164 2288.18,-1176 2288.18,-1176 2288.18,-1182 2282.18,-1188 2276.18,-1188"/>
<text text-anchor="middle" x="2216.18" y="-1167.5" font-family="sans" font-size="10.00">fetch_isocortex_metadata</text>
</g>
<!-- 14&#45;&gt;13 -->
<g id="edge26" class="edge">
<title>14&#45;&gt;13</title>
<path fill="none" stroke="grey" stroke-width="2" d="M2251.16,-1151.88C2270.38,-1142.47 2294.41,-1130.71 2314.92,-1120.67"/>
<polygon fill="grey" stroke="grey" stroke-width="2" points="2316.62,-1123.73 2324.06,-1116.19 2313.54,-1117.44 2316.62,-1123.73"/>
</g>
<!-- 14&#45;&gt;58 -->
<g id="edge110" class="edge">
<title>14&#45;&gt;58</title>
<path fill="none" stroke="grey" stroke-width="2" d="M2150.58,-1151.96C2131.2,-1143.96 2111.61,-1132.44 2098.18,-1116 2072.54,-1084.6 2078.18,-1067.54 2078.18,-1027 2078.18,-1027 2078.18,-1027 2078.18,-881 2078.18,-781.01 1918.05,-634.04 1808.18,-576 1733.14,-536.36 1633.77,-525.79 1572.46,-523.29"/>
<polygon fill="grey" stroke="grey" stroke-width="2" points="1572.32,-519.78 1562.21,-522.93 1572.08,-526.78 1572.32,-519.78"/>
</g>
<!-- 15&#45;&gt;1 -->
<g id="edge9" class="edge">
<title>15&#45;&gt;1</title>
<path fill="none" stroke="grey" stroke-width="2" d="M2435.52,-1151.89C2436.11,-1132.31 2434.06,-1100.34 2417.18,-1080 2399.65,-1058.88 2372.56,-1046.13 2347.24,-1038.46"/>
<polygon fill="grey" stroke="grey" stroke-width="2" points="2347.85,-1035 2337.28,-1035.67 2345.96,-1041.74 2347.85,-1035"/>
</g>
<!-- 15&#45;&gt;13 -->
<g id="edge27" class="edge">
<title>15&#45;&gt;13</title>
<path fill="none" stroke="grey" stroke-width="2" d="M2415.64,-1151.7C2406.38,-1143.05 2395.02,-1132.45 2384.92,-1123.03"/>
<polygon fill="grey" stroke="grey" stroke-width="2" points="2387.21,-1120.37 2377.51,-1116.1 2382.43,-1125.49 2387.21,-1120.37"/>
</g>
<!-- 16 -->
<g id="node17" class="node">
<title>16</title>
<path fill="none" stroke="#56d8c1" stroke-width="2" d="M2548.18,-1116C2548.18,-1116 2476.18,-1116 2476.18,-1116 2470.18,-1116 2464.18,-1110 2464.18,-1104 2464.18,-1104 2464.18,-1092 2464.18,-1092 2464.18,-1086 2470.18,-1080 2476.18,-1080 2476.18,-1080 2548.18,-1080 2548.18,-1080 2554.18,-1080 2560.18,-1086 2560.18,-1092 2560.18,-1092 2560.18,-1104 2560.18,-1104 2560.18,-1110 2554.18,-1116 2548.18,-1116"/>
<text text-anchor="middle" x="2512.18" y="-1095.5" font-family="sans" font-size="10.00">orientation_field</text>
</g>
<!-- 15&#45;&gt;16 -->
<g id="edge30" class="edge">
<title>15&#45;&gt;16</title>
<path fill="none" stroke="grey" stroke-width="2" d="M2453.46,-1151.7C2463.1,-1143.05 2474.91,-1132.45 2485.41,-1123.03"/>
<polygon fill="grey" stroke="grey" stroke-width="2" points="2488.02,-1125.39 2493.12,-1116.1 2483.34,-1120.18 2488.02,-1125.39"/>
</g>
<!-- 16&#45;&gt;1 -->
<g id="edge10" class="edge">
<title>16&#45;&gt;1</title>
<path fill="none" stroke="grey" stroke-width="2" d="M2463.97,-1082.33C2429.99,-1071.98 2384.11,-1058.02 2346.94,-1046.71"/>
<polygon fill="grey" stroke="grey" stroke-width="2" points="2347.78,-1043.31 2337.2,-1043.74 2345.75,-1050 2347.78,-1043.31"/>
</g>
<!-- 17&#45;&gt;0 -->
<g id="edge2" class="edge">
<title>17&#45;&gt;0</title>
<path fill="none" stroke="grey" stroke-width="2" d="M2170.42,-935.58C2175.09,-908.87 2183.18,-856.15 2183.18,-811 2183.18,-811 2183.18,-811 2183.18,-161 2183.18,-119.48 2167.14,-73.61 2155.38,-45.54"/>
<polygon fill="grey" stroke="grey" stroke-width="2" points="2158.46,-43.84 2151.28,-36.05 2152.03,-46.62 2158.46,-43.84"/>
</g>
<!-- 18 -->
<g id="node19" class="node">
<title>18</title>
<path fill="none" stroke="#78d856" stroke-width="2" d="M2086.68,-252C2086.68,-252 1965.68,-252 1965.68,-252 1959.68,-252 1953.68,-246 1953.68,-240 1953.68,-240 1953.68,-228 1953.68,-228 1953.68,-222 1959.68,-216 1965.68,-216 1965.68,-216 2086.68,-216 2086.68,-216 2092.68,-216 2098.68,-222 2098.68,-228 2098.68,-228 2098.68,-240 2098.68,-240 2098.68,-246 2092.68,-252 2086.68,-252"/>
<text text-anchor="middle" x="2026.18" y="-231.5" font-family="sans" font-size="10.00">push_volumetric_datasets</text>
</g>
<!-- 18&#45;&gt;0 -->
<g id="edge3" class="edge">
<title>18&#45;&gt;0</title>
<path fill="none" stroke="grey" stroke-width="2" d="M2035.56,-215.85C2055.97,-178.52 2104.53,-89.69 2128.82,-45.26"/>
<polygon fill="grey" stroke="grey" stroke-width="2" points="2132.03,-46.69 2133.76,-36.23 2125.89,-43.33 2132.03,-46.69"/>
</g>
<!-- 19&#45;&gt;18 -->
<g id="edge32" class="edge">
<title>19&#45;&gt;18</title>
<path fill="none" stroke="grey" stroke-width="2" d="M2121.85,-719.73C2130.03,-693.21 2144.18,-640.73 2144.18,-595 2144.18,-595 2144.18,-595 2144.18,-377 2144.18,-325.44 2097.59,-282.6 2062.96,-257.89"/>
<polygon fill="grey" stroke="grey" stroke-width="2" points="2064.66,-254.82 2054.45,-252.01 2060.68,-260.57 2064.66,-254.82"/>
</g>
<!-- 20&#45;&gt;18 -->
<g id="edge33" class="edge">
<title>20&#45;&gt;18</title>
<path fill="none" stroke="grey" stroke-width="2" d="M1930.51,-791.73C1922.33,-765.21 1908.18,-712.73 1908.18,-667 1908.18,-667 1908.18,-667 1908.18,-377 1908.18,-325.44 1954.78,-282.6 1989.41,-257.89"/>
<polygon fill="grey" stroke="grey" stroke-width="2" points="1991.68,-260.57 1997.92,-252.01 1987.7,-254.82 1991.68,-260.57"/>
</g>
<!-- 21&#45;&gt;20 -->
<g id="edge37" class="edge">
<title>21&#45;&gt;20</title>
<path fill="none" stroke="grey" stroke-width="2" d="M1399.82,-870.41C1522.21,-856.85 1732.4,-833.57 1850.03,-820.54"/>
<polygon fill="grey" stroke="grey" stroke-width="2" points="1850.52,-824.01 1860.08,-819.43 1849.75,-817.05 1850.52,-824.01"/>
</g>
<!-- 21&#45;&gt;35 -->
<g id="edge66" class="edge">
<title>21&#45;&gt;35</title>
<path fill="none" stroke="grey" stroke-width="2" d="M1208.63,-865.38C1205.45,-864.91 1202.29,-864.45 1199.18,-864 1135.56,-854.86 966.59,-862.23 912.18,-828 831.62,-777.32 870.25,-707.77 796.18,-648 778.71,-633.9 757.1,-623.3 736.09,-615.43"/>
<polygon fill="grey" stroke="grey" stroke-width="2" points="737.09,-612.07 726.5,-612.01 734.74,-618.67 737.09,-612.07"/>
</g>
<!-- 21&#45;&gt;36 -->
<g id="edge69" class="edge">
<title>21&#45;&gt;36</title>
<path fill="none" stroke="grey" stroke-width="2" d="M1208.65,-865.29C1205.45,-864.85 1202.29,-864.41 1199.18,-864 1045.04,-843.57 994.4,-888.56 851.18,-828 828.22,-818.29 827.39,-807.89 808.18,-792 765.23,-756.48 715.17,-715.7 684.32,-690.64"/>
<polygon fill="grey" stroke="grey" stroke-width="2" points="686.5,-687.9 676.53,-684.31 682.09,-693.33 686.5,-687.9"/>
</g>
<!-- 21&#45;&gt;37 -->
<g id="edge76" class="edge">
<title>21&#45;&gt;37</title>
<path fill="none" stroke="grey" stroke-width="2" d="M1208.63,-865.4C1205.44,-864.92 1202.29,-864.45 1199.18,-864 1137.98,-855.06 963.99,-874.48 923.18,-828 912.62,-815.98 916.11,-806.35 923.18,-792 929.14,-779.91 939.33,-769.8 950.08,-761.77"/>
<polygon fill="grey" stroke="grey" stroke-width="2" points="952.12,-764.61 958.35,-756.04 948.13,-758.86 952.12,-764.61"/>
</g>
<!-- 21&#45;&gt;45 -->
<g id="edge87" class="edge">
<title>21&#45;&gt;45</title>
<path fill="none" stroke="grey" stroke-width="2" d="M1346.99,-863.88C1371.13,-854.22 1401.46,-842.09 1426.99,-831.88"/>
<polygon fill="grey" stroke="grey" stroke-width="2" points="1428.53,-835.03 1436.51,-828.07 1425.93,-828.53 1428.53,-835.03"/>
</g>
<!-- 21&#45;&gt;58 -->
<g id="edge108" class="edge">
<title>21&#45;&gt;58</title>
<path fill="none" stroke="grey" stroke-width="2" d="M1319.16,-863.97C1327.12,-854.09 1336.41,-841.05 1342.18,-828 1358.53,-791.01 1361.18,-779.45 1361.18,-739 1361.18,-739 1361.18,-739 1361.18,-665 1361.18,-607.64 1419.61,-567.19 1464.72,-544.5"/>
<polygon fill="grey" stroke="grey" stroke-width="2" points="1466.37,-547.59 1473.83,-540.07 1463.3,-541.3 1466.37,-547.59"/>
</g>
<!-- 22&#45;&gt;21 -->
<g id="edge40" class="edge">
<title>22&#45;&gt;21</title>
<path fill="none" stroke="grey" stroke-width="2" d="M609.34,-948.35C737.8,-941.2 981.07,-925.69 1198.65,-900"/>
<polygon fill="grey" stroke="grey" stroke-width="2" points="1199.14,-903.47 1208.66,-898.81 1198.32,-896.52 1199.14,-903.47"/>
</g>
<!-- 23&#45;&gt;22 -->
<g id="edge43" class="edge">
<title>23&#45;&gt;22</title>
<path fill="none" stroke="grey" stroke-width="2" d="M1003.07,-1015.55C986.29,-1013 968.04,-1010.31 951.18,-1008 919.13,-1003.6 736.63,-981.37 619.32,-967.13"/>
<polygon fill="grey" stroke="grey" stroke-width="2" points="619.58,-963.64 609.23,-965.91 618.74,-970.59 619.58,-963.64"/>
</g>
<!-- 23&#45;&gt;35 -->
<g id="edge65" class="edge">
<title>23&#45;&gt;35</title>
<path fill="none" stroke="grey" stroke-width="2" d="M1003.02,-1011.1C998.34,-1010.04 993.69,-1009 989.18,-1008 839.22,-974.8 802.18,-964.09 651.18,-936 551.19,-917.4 511.35,-954.04 425.18,-900 384.34,-874.39 363.18,-859.21 363.18,-811 363.18,-811 363.18,-811 363.18,-737 363.18,-645.63 480.23,-613.04 566.12,-601.42"/>
<polygon fill="grey" stroke="grey" stroke-width="2" points="566.69,-604.88 576.16,-600.14 565.8,-597.93 566.69,-604.88"/>
</g>
<!-- 23&#45;&gt;45 -->
<g id="edge86" class="edge">
<title>23&#45;&gt;45</title>
<path fill="none" stroke="grey" stroke-width="2" d="M1123.32,-1013.89C1196.37,-998.14 1320.77,-963.85 1409.18,-900 1432.43,-883.21 1451.92,-856.65 1464.38,-836.91"/>
<polygon fill="grey" stroke="grey" stroke-width="2" points="1467.52,-838.47 1469.75,-828.11 1461.55,-834.82 1467.52,-838.47"/>
</g>
<!-- 24&#45;&gt;23 -->
<g id="edge47" class="edge">
<title>24&#45;&gt;23</title>
<path fill="none" stroke="grey" stroke-width="2" d="M861.91,-1079.97C901.69,-1069.5 952.65,-1056.09 993.34,-1045.38"/>
<polygon fill="grey" stroke="grey" stroke-width="2" points="994.4,-1048.72 1003.18,-1042.79 992.62,-1041.95 994.4,-1048.72"/>
</g>
<!-- 25 -->
<g id="node26" class="node">
<title>25</title>
<path fill="none" stroke="#70d856" stroke-width="2" d="M1451.68,-1188C1451.68,-1188 1272.68,-1188 1272.68,-1188 1266.68,-1188 1260.68,-1182 1260.68,-1176 1260.68,-1176 1260.68,-1164 1260.68,-1164 1260.68,-1158 1266.68,-1152 1272.68,-1152 1272.68,-1152 1451.68,-1152 1451.68,-1152 1457.68,-1152 1463.68,-1158 1463.68,-1164 1463.68,-1164 1463.68,-1176 1463.68,-1176 1463.68,-1182 1457.68,-1188 1451.68,-1188"/>
<text text-anchor="middle" x="1362.18" y="-1167.5" font-family="sans" font-size="10.00">fetch_corrected_nissl_stained_volume</text>
</g>
<!-- 25&#45;&gt;24 -->
<g id="edge50" class="edge">
<title>25&#45;&gt;24</title>
<path fill="none" stroke="grey" stroke-width="2" d="M1260.59,-1153.22C1257.42,-1152.8 1254.28,-1152.39 1251.18,-1152 1089,-1131.62 1046.93,-1139.53 885.18,-1116 884.1,-1115.84 883.02,-1115.68 881.93,-1115.52"/>
<polygon fill="grey" stroke="grey" stroke-width="2" points="882.42,-1112.05 871.99,-1113.94 881.32,-1118.97 882.42,-1112.05"/>
</g>
<!-- 26 -->
<g id="node27" class="node">
<title>26</title>
<path fill="none" stroke="#afd856" stroke-width="2" d="M452.68,-1188C452.68,-1188 359.68,-1188 359.68,-1188 353.68,-1188 347.68,-1182 347.68,-1176 347.68,-1176 347.68,-1164 347.68,-1164 347.68,-1158 353.68,-1152 359.68,-1152 359.68,-1152 452.68,-1152 452.68,-1152 458.68,-1152 464.68,-1158 464.68,-1164 464.68,-1164 464.68,-1176 464.68,-1176 464.68,-1182 458.68,-1188 452.68,-1188"/>
<text text-anchor="middle" x="406.18" y="-1167.5" font-family="sans" font-size="10.00">fetch_regions_config</text>
</g>
<!-- 26&#45;&gt;22 -->
<g id="edge45" class="edge">
<title>26&#45;&gt;22</title>
<path fill="none" stroke="grey" stroke-width="2" d="M415.24,-1151.85C434.95,-1114.52 481.85,-1025.69 505.32,-981.26"/>
<polygon fill="grey" stroke="grey" stroke-width="2" points="508.51,-982.71 510.08,-972.23 502.32,-979.44 508.51,-982.71"/>
</g>
<!-- 26&#45;&gt;24 -->
<g id="edge51" class="edge">
<title>26&#45;&gt;24</title>
<path fill="none" stroke="grey" stroke-width="2" d="M464.71,-1153.99C467.9,-1153.29 471.08,-1152.62 474.18,-1152 576.43,-1131.57 605.69,-1134.46 712.66,-1116.03"/>
<polygon fill="grey" stroke="grey" stroke-width="2" points="713.31,-1119.47 722.56,-1114.3 712.11,-1112.58 713.31,-1119.47"/>
</g>
<!-- 26&#45;&gt;37 -->
<g id="edge79" class="edge">
<title>26&#45;&gt;37</title>
<path fill="none" stroke="grey" stroke-width="2" d="M405.19,-1151.96C403.74,-1125.31 401.18,-1072.14 401.18,-1027 401.18,-1027 401.18,-1027 401.18,-881 401.18,-782.65 714.55,-752.24 884.91,-742.97"/>
<polygon fill="grey" stroke="grey" stroke-width="2" points="885.12,-746.46 894.92,-742.44 884.75,-739.47 885.12,-746.46"/>
</g>
<!-- 27&#45;&gt;22 -->
<g id="edge44" class="edge">
<title>27&#45;&gt;22</title>
<path fill="none" stroke="grey" stroke-width="2" d="M636.14,-1079.87C612.77,-1054.92 569.24,-1008.45 542.38,-979.77"/>
<polygon fill="grey" stroke="grey" stroke-width="2" points="544.67,-977.1 535.28,-972.19 539.56,-981.88 544.67,-977.1"/>
</g>
<!-- 28 -->
<g id="node29" class="node">
<title>28</title>
<path fill="none" stroke="#88d856" stroke-width="2" d="M1002.18,-1188C1002.18,-1188 914.18,-1188 914.18,-1188 908.18,-1188 902.18,-1182 902.18,-1176 902.18,-1176 902.18,-1164 902.18,-1164 902.18,-1158 908.18,-1152 914.18,-1152 914.18,-1152 1002.18,-1152 1002.18,-1152 1008.18,-1152 1014.18,-1158 1014.18,-1164 1014.18,-1164 1014.18,-1176 1014.18,-1176 1014.18,-1182 1008.18,-1188 1002.18,-1188"/>
<text text-anchor="middle" x="958.18" y="-1167.5" font-family="sans" font-size="10.00">fetch_gene_aldh1l1</text>
</g>
<!-- 28&#45;&gt;27 -->
<g id="edge52" class="edge">
<title>28&#45;&gt;27</title>
<path fill="none" stroke="grey" stroke-width="2" d="M902.06,-1155.19C897.37,-1154.09 892.7,-1153.01 888.18,-1152 811.13,-1134.68 790.97,-1134.45 714.18,-1116 714.08,-1115.98 713.98,-1115.95 713.88,-1115.93"/>
<polygon fill="grey" stroke="grey" stroke-width="2" points="714.76,-1112.54 704.21,-1113.53 713.07,-1119.33 714.76,-1112.54"/>
</g>
<!-- 29 -->
<g id="node30" class="node">
<title>29</title>
<path fill="none" stroke="#d88556" stroke-width="2" d="M1113.68,-1188C1113.68,-1188 1044.68,-1188 1044.68,-1188 1038.68,-1188 1032.68,-1182 1032.68,-1176 1032.68,-1176 1032.68,-1164 1032.68,-1164 1032.68,-1158 1038.68,-1152 1044.68,-1152 1044.68,-1152 1113.68,-1152 1113.68,-1152 1119.68,-1152 1125.68,-1158 1125.68,-1164 1125.68,-1164 1125.68,-1176 1125.68,-1176 1125.68,-1182 1119.68,-1188 1113.68,-1188"/>
<text text-anchor="middle" x="1079.18" y="-1167.5" font-family="sans" font-size="10.00">fetch_gene_cnp</text>
</g>
<!-- 29&#45;&gt;27 -->
<g id="edge53" class="edge">
<title>29&#45;&gt;27</title>
<path fill="none" stroke="grey" stroke-width="2" d="M1032.59,-1154.18C1029.42,-1153.38 1026.26,-1152.64 1023.18,-1152 891,-1124.47 851.74,-1141.51 714.53,-1115.86"/>
<polygon fill="grey" stroke="grey" stroke-width="2" points="714.96,-1112.38 704.48,-1113.94 713.64,-1119.26 714.96,-1112.38"/>
</g>
<!-- 30 -->
<g id="node31" class="node">
<title>30</title>
<path fill="none" stroke="#d87d56" stroke-width="2" d="M1230.18,-1188C1230.18,-1188 1156.18,-1188 1156.18,-1188 1150.18,-1188 1144.18,-1182 1144.18,-1176 1144.18,-1176 1144.18,-1164 1144.18,-1164 1144.18,-1158 1150.18,-1152 1156.18,-1152 1156.18,-1152 1230.18,-1152 1230.18,-1152 1236.18,-1152 1242.18,-1158 1242.18,-1164 1242.18,-1164 1242.18,-1176 1242.18,-1176 1242.18,-1182 1236.18,-1188 1230.18,-1188"/>
<text text-anchor="middle" x="1193.18" y="-1167.5" font-family="sans" font-size="10.00">fetch_gene_mbp</text>
</g>
<!-- 30&#45;&gt;27 -->
<g id="edge54" class="edge">
<title>30&#45;&gt;27</title>
<path fill="none" stroke="grey" stroke-width="2" d="M1143.98,-1153.85C1141.02,-1153.17 1138.07,-1152.54 1135.18,-1152 953.75,-1118.01 900.86,-1147.91 714.31,-1115.79"/>
<polygon fill="grey" stroke="grey" stroke-width="2" points="714.91,-1112.34 704.46,-1114.05 713.7,-1119.23 714.91,-1112.34"/>
</g>
<!-- 31 -->
<g id="node32" class="node">
<title>31</title>
<path fill="none" stroke="#56d8d8" stroke-width="2" d="M569.18,-1188C569.18,-1188 495.18,-1188 495.18,-1188 489.18,-1188 483.18,-1182 483.18,-1176 483.18,-1176 483.18,-1164 483.18,-1164 483.18,-1158 489.18,-1152 495.18,-1152 495.18,-1152 569.18,-1152 569.18,-1152 575.18,-1152 581.18,-1158 581.18,-1164 581.18,-1164 581.18,-1176 581.18,-1176 581.18,-1182 575.18,-1188 569.18,-1188"/>
<text text-anchor="middle" x="532.18" y="-1167.5" font-family="sans" font-size="10.00">fetch_gene_gfap</text>
</g>
<!-- 31&#45;&gt;27 -->
<g id="edge55" class="edge">
<title>31&#45;&gt;27</title>
<path fill="none" stroke="grey" stroke-width="2" d="M561.54,-1151.88C577.23,-1142.72 596.74,-1131.34 613.64,-1121.48"/>
<polygon fill="grey" stroke="grey" stroke-width="2" points="615.84,-1124.25 622.71,-1116.19 612.31,-1118.21 615.84,-1124.25"/>
</g>
<!-- 32 -->
<g id="node33" class="node">
<title>32</title>
<path fill="none" stroke="#d87556" stroke-width="2" d="M692.68,-1188C692.68,-1188 611.68,-1188 611.68,-1188 605.68,-1188 599.68,-1182 599.68,-1176 599.68,-1176 599.68,-1164 599.68,-1164 599.68,-1158 605.68,-1152 611.68,-1152 611.68,-1152 692.68,-1152 692.68,-1152 698.68,-1152 704.68,-1158 704.68,-1164 704.68,-1164 704.68,-1176 704.68,-1176 704.68,-1182 698.68,-1188 692.68,-1188"/>
<text text-anchor="middle" x="652.18" y="-1167.5" font-family="sans" font-size="10.00">fetch_gene_s100b</text>
</g>
<!-- 32&#45;&gt;27 -->
<g id="edge56" class="edge">
<title>32&#45;&gt;27</title>
<path fill="none" stroke="grey" stroke-width="2" d="M652.18,-1151.7C652.18,-1143.98 652.18,-1134.71 652.18,-1126.11"/>
<polygon fill="grey" stroke="grey" stroke-width="2" points="655.68,-1126.1 652.18,-1116.1 648.68,-1126.1 655.68,-1126.1"/>
</g>
<!-- 33 -->
<g id="node34" class="node">
<title>33</title>
<path fill="none" stroke="#d85656" stroke-width="2" d="M833.68,-1188C833.68,-1188 734.68,-1188 734.68,-1188 728.68,-1188 722.68,-1182 722.68,-1176 722.68,-1176 722.68,-1164 722.68,-1164 722.68,-1158 728.68,-1152 734.68,-1152 734.68,-1152 833.68,-1152 833.68,-1152 839.68,-1152 845.68,-1158 845.68,-1164 845.68,-1164 845.68,-1176 845.68,-1176 845.68,-1182 839.68,-1188 833.68,-1188"/>
<text text-anchor="middle" x="784.18" y="-1167.5" font-family="sans" font-size="10.00">fetch_gene_tmem119</text>
</g>
<!-- 33&#45;&gt;27 -->
<g id="edge57" class="edge">
<title>33&#45;&gt;27</title>
<path fill="none" stroke="grey" stroke-width="2" d="M751.89,-1151.88C734.31,-1142.55 712.37,-1130.92 693.55,-1120.94"/>
<polygon fill="grey" stroke="grey" stroke-width="2" points="695.07,-1117.78 684.6,-1116.19 691.79,-1123.97 695.07,-1117.78"/>
</g>
<!-- 34&#45;&gt;18 -->
<g id="edge34" class="edge">
<title>34&#45;&gt;18</title>
<path fill="none" stroke="grey" stroke-width="2" d="M2026.18,-503.97C2026.18,-456.29 2026.18,-321.18 2026.18,-262.63"/>
<polygon fill="grey" stroke="grey" stroke-width="2" points="2029.68,-262.31 2026.18,-252.31 2022.68,-262.31 2029.68,-262.31"/>
</g>
<!-- 35&#45;&gt;34 -->
<g id="edge60" class="edge">
<title>35&#45;&gt;34</title>
<path fill="none" stroke="grey" stroke-width="2" d="M734.32,-588.96C969.68,-576.94 1665.08,-541.44 1925.88,-528.12"/>
<polygon fill="grey" stroke="grey" stroke-width="2" points="1926.28,-531.61 1936.09,-527.6 1925.93,-524.61 1926.28,-531.61"/>
</g>
<!-- 35&#45;&gt;50 -->
<g id="edge94" class="edge">
<title>35&#45;&gt;50</title>
<path fill="none" stroke="grey" stroke-width="2" d="M634.8,-575.53C625.37,-566.09 615.17,-553.6 610.18,-540 604.67,-524.98 602.57,-518.07 610.18,-504 617,-491.39 628.27,-481.3 640.26,-473.45"/>
<polygon fill="grey" stroke="grey" stroke-width="2" points="642.32,-476.29 649.07,-468.13 638.7,-470.3 642.32,-476.29"/>
</g>
<!-- 57 -->
<g id="node58" class="node">
<title>57</title>
<path fill="none" stroke="#56d8d0" stroke-width="2" d="M550.68,-540C550.68,-540 437.68,-540 437.68,-540 431.68,-540 425.68,-534 425.68,-528 425.68,-528 425.68,-516 425.68,-516 425.68,-510 431.68,-504 437.68,-504 437.68,-504 550.68,-504 550.68,-504 556.68,-504 562.68,-510 562.68,-516 562.68,-516 562.68,-528 562.68,-528 562.68,-534 556.68,-540 550.68,-540"/>
<text text-anchor="middle" x="494.18" y="-519.5" font-family="sans" font-size="10.00">compute_lamp5_density</text>
</g>
<!-- 35&#45;&gt;57 -->
<g id="edge104" class="edge">
<title>35&#45;&gt;57</title>
<path fill="none" stroke="grey" stroke-width="2" d="M615.8,-575.88C593.79,-566.31 566.17,-554.3 542.82,-544.15"/>
<polygon fill="grey" stroke="grey" stroke-width="2" points="544,-540.85 533.44,-540.07 541.21,-547.27 544,-540.85"/>
</g>
<!-- 35&#45;&gt;58 -->
<g id="edge105" class="edge">
<title>35&#45;&gt;58</title>
<path fill="none" stroke="grey" stroke-width="2" d="M734.4,-590.4C873.88,-585.18 1172.18,-571.15 1422.18,-540 1434.4,-538.48 1447.43,-536.41 1459.78,-534.24"/>
<polygon fill="grey" stroke="grey" stroke-width="2" points="1460.74,-537.62 1469.96,-532.4 1459.5,-530.73 1460.74,-537.62"/>
</g>
<!-- 36&#45;&gt;35 -->
<g id="edge63" class="edge">
<title>36&#45;&gt;35</title>
<path fill="none" stroke="grey" stroke-width="2" d="M655.18,-647.7C655.18,-639.98 655.18,-630.71 655.18,-622.11"/>
<polygon fill="grey" stroke="grey" stroke-width="2" points="658.68,-622.1 655.18,-612.1 651.68,-622.1 658.68,-622.1"/>
</g>
<!-- 37&#45;&gt;36 -->
<g id="edge70" class="edge">
<title>37&#45;&gt;36</title>
<path fill="none" stroke="grey" stroke-width="2" d="M910.17,-719.97C860.95,-709.74 798.21,-696.71 747.29,-686.13"/>
<polygon fill="grey" stroke="grey" stroke-width="2" points="747.77,-682.66 737.26,-684.05 746.34,-689.51 747.77,-682.66"/>
</g>
<!-- 38 -->
<g id="node39" class="node">
<title>38</title>
<path fill="none" stroke="#56d8c1" stroke-width="2" d="M787.68,-828C787.68,-828 662.68,-828 662.68,-828 656.68,-828 650.68,-822 650.68,-816 650.68,-816 650.68,-804 650.68,-804 650.68,-798 656.68,-792 662.68,-792 662.68,-792 787.68,-792 787.68,-792 793.68,-792 799.68,-798 799.68,-804 799.68,-804 799.68,-816 799.68,-816 799.68,-822 793.68,-828 787.68,-828"/>
<text text-anchor="middle" x="725.18" y="-807.5" font-family="sans" font-size="10.00">fetch_genes_correctednissl</text>
</g>
<!-- 38&#45;&gt;37 -->
<g id="edge71" class="edge">
<title>38&#45;&gt;37</title>
<path fill="none" stroke="grey" stroke-width="2" d="M790.16,-791.97C828.52,-781.91 877.23,-769.14 917.21,-758.65"/>
<polygon fill="grey" stroke="grey" stroke-width="2" points="918.13,-762.03 926.92,-756.11 916.35,-755.26 918.13,-762.03"/>
</g>
<!-- 39 -->
<g id="node40" class="node">
<title>39</title>
<path fill="none" stroke="#56d8b9" stroke-width="2" d="M995.68,-900C995.68,-900 858.68,-900 858.68,-900 852.68,-900 846.68,-894 846.68,-888 846.68,-888 846.68,-876 846.68,-876 846.68,-870 852.68,-864 858.68,-864 858.68,-864 995.68,-864 995.68,-864 1001.68,-864 1007.68,-870 1007.68,-876 1007.68,-876 1007.68,-888 1007.68,-888 1007.68,-894 1001.68,-900 995.68,-900"/>
<text text-anchor="middle" x="927.18" y="-879.5" font-family="sans" font-size="10.00">fetch_gene_pv_correctednissl</text>
</g>
<!-- 39&#45;&gt;38 -->
<g id="edge80" class="edge">
<title>39&#45;&gt;38</title>
<path fill="none" stroke="grey" stroke-width="2" d="M878.02,-863.97C849.68,-854.14 813.86,-841.73 784.02,-831.39"/>
<polygon fill="grey" stroke="grey" stroke-width="2" points="785.15,-828.08 774.56,-828.11 782.86,-834.69 785.15,-828.08"/>
</g>
<!-- 40 -->
<g id="node41" class="node">
<title>40</title>
<path fill="none" stroke="#5663d8" stroke-width="2" d="M1178.18,-900C1178.18,-900 1038.18,-900 1038.18,-900 1032.18,-900 1026.18,-894 1026.18,-888 1026.18,-888 1026.18,-876 1026.18,-876 1026.18,-870 1032.18,-864 1038.18,-864 1038.18,-864 1178.18,-864 1178.18,-864 1184.18,-864 1190.18,-870 1190.18,-876 1190.18,-876 1190.18,-888 1190.18,-888 1190.18,-894 1184.18,-900 1178.18,-900"/>
<text text-anchor="middle" x="1108.18" y="-879.5" font-family="sans" font-size="10.00">fetch_gene_sst_correctednissl</text>
</g>
<!-- 40&#45;&gt;38 -->
<g id="edge81" class="edge">
<title>40&#45;&gt;38</title>
<path fill="none" stroke="grey" stroke-width="2" d="M1025.85,-865.58C1022.92,-865.05 1020.03,-864.52 1017.18,-864 926.6,-847.55 903.72,-844.73 813.18,-828 812.11,-827.8 811.03,-827.6 809.95,-827.4"/>
<polygon fill="grey" stroke="grey" stroke-width="2" points="810.53,-823.95 800.06,-825.55 809.24,-830.83 810.53,-823.95"/>
</g>
<!-- 41 -->
<g id="node42" class="node">
<title>41</title>
<path fill="none" stroke="#d87556" stroke-width="2" d="M619.18,-900C619.18,-900 479.18,-900 479.18,-900 473.18,-900 467.18,-894 467.18,-888 467.18,-888 467.18,-876 467.18,-876 467.18,-870 473.18,-864 479.18,-864 479.18,-864 619.18,-864 619.18,-864 625.18,-864 631.18,-870 631.18,-876 631.18,-876 631.18,-888 631.18,-888 631.18,-894 625.18,-900 619.18,-900"/>
<text text-anchor="middle" x="549.18" y="-879.5" font-family="sans" font-size="10.00">fetch_gene_vip_correctednissl</text>
</g>
<!-- 41&#45;&gt;38 -->
<g id="edge82" class="edge">
<title>41&#45;&gt;38</title>
<path fill="none" stroke="grey" stroke-width="2" d="M592.24,-863.88C616.51,-854.22 647.02,-842.09 672.69,-831.88"/>
<polygon fill="grey" stroke="grey" stroke-width="2" points="674.27,-835.02 682.27,-828.07 671.68,-828.51 674.27,-835.02"/>
</g>
<!-- 42 -->
<g id="node43" class="node">
<title>42</title>
<path fill="none" stroke="#d88556" stroke-width="2" d="M816.68,-900C816.68,-900 661.68,-900 661.68,-900 655.68,-900 649.68,-894 649.68,-888 649.68,-888 649.68,-876 649.68,-876 649.68,-870 655.68,-864 661.68,-864 661.68,-864 816.68,-864 816.68,-864 822.68,-864 828.68,-870 828.68,-876 828.68,-876 828.68,-888 828.68,-888 828.68,-894 822.68,-900 816.68,-900"/>
<text text-anchor="middle" x="739.18" y="-879.5" font-family="sans" font-size="10.00">fetch_gene_gad67_correctednissl</text>
</g>
<!-- 42&#45;&gt;38 -->
<g id="edge83" class="edge">
<title>42&#45;&gt;38</title>
<path fill="none" stroke="grey" stroke-width="2" d="M735.72,-863.7C734.18,-855.98 732.32,-846.71 730.6,-838.11"/>
<polygon fill="grey" stroke="grey" stroke-width="2" points="734,-837.22 728.6,-828.1 727.13,-838.6 734,-837.22"/>
</g>
<!-- 43 -->
<g id="node44" class="node">
<title>43</title>
<path fill="none" stroke="#5692d8" stroke-width="2" d="M1044.68,-828C1044.68,-828 943.68,-828 943.68,-828 937.68,-828 931.68,-822 931.68,-816 931.68,-816 931.68,-804 931.68,-804 931.68,-798 937.68,-792 943.68,-792 943.68,-792 1044.68,-792 1044.68,-792 1050.68,-792 1056.68,-798 1056.68,-804 1056.68,-804 1056.68,-816 1056.68,-816 1056.68,-822 1050.68,-828 1044.68,-828"/>
<text text-anchor="middle" x="994.18" y="-807.5" font-family="sans" font-size="10.00">fetch_realigned_slices</text>
</g>
<!-- 43&#45;&gt;37 -->
<g id="edge72" class="edge">
<title>43&#45;&gt;37</title>
<path fill="none" stroke="grey" stroke-width="2" d="M993.69,-791.7C993.47,-783.98 993.2,-774.71 992.96,-766.11"/>
<polygon fill="grey" stroke="grey" stroke-width="2" points="996.45,-766 992.67,-756.1 989.46,-766.2 996.45,-766"/>
</g>
<!-- 44 -->
<g id="node45" class="node">
<title>44</title>
<path fill="none" stroke="#56b9d8" stroke-width="2" d="M1151.68,-828C1151.68,-828 1086.68,-828 1086.68,-828 1080.68,-828 1074.68,-822 1074.68,-816 1074.68,-816 1074.68,-804 1074.68,-804 1074.68,-798 1080.68,-792 1086.68,-792 1086.68,-792 1151.68,-792 1151.68,-792 1157.68,-792 1163.68,-798 1163.68,-804 1163.68,-804 1163.68,-816 1163.68,-816 1163.68,-822 1157.68,-828 1151.68,-828"/>
<text text-anchor="middle" x="1119.18" y="-807.5" font-family="sans" font-size="10.00">fetch_std_cells</text>
</g>
<!-- 44&#45;&gt;37 -->
<g id="edge73" class="edge">
<title>44&#45;&gt;37</title>
<path fill="none" stroke="grey" stroke-width="2" d="M1088.11,-791.88C1071.35,-782.64 1050.48,-771.13 1032.48,-761.21"/>
<polygon fill="grey" stroke="grey" stroke-width="2" points="1033.82,-757.95 1023.37,-756.19 1030.44,-764.08 1033.82,-757.95"/>
</g>
<!-- 45&#45;&gt;37 -->
<g id="edge77" class="edge">
<title>45&#45;&gt;37</title>
<path fill="none" stroke="grey" stroke-width="2" d="M1389.57,-796.12C1307.7,-784.35 1186.51,-766.93 1099.5,-754.43"/>
<polygon fill="grey" stroke="grey" stroke-width="2" points="1099.99,-750.96 1089.6,-753 1099,-757.89 1099.99,-750.96"/>
</g>
<!-- 46 -->
<g id="node47" class="node">
<title>46</title>
<path fill="none" stroke="#9fd856" stroke-width="2" d="M1602.18,-900C1602.18,-900 1506.18,-900 1506.18,-900 1500.18,-900 1494.18,-894 1494.18,-888 1494.18,-888 1494.18,-876 1494.18,-876 1494.18,-870 1500.18,-864 1506.18,-864 1506.18,-864 1602.18,-864 1602.18,-864 1608.18,-864 1614.18,-870 1614.18,-876 1614.18,-876 1614.18,-888 1614.18,-888 1614.18,-894 1608.18,-900 1602.18,-900"/>
<text text-anchor="middle" x="1554.18" y="-879.5" font-family="sans" font-size="10.00">fetch_measurements</text>
</g>
<!-- 46&#45;&gt;45 -->
<g id="edge88" class="edge">
<title>46&#45;&gt;45</title>
<path fill="none" stroke="grey" stroke-width="2" d="M1535.64,-863.7C1526.38,-855.05 1515.02,-844.45 1504.92,-835.03"/>
<polygon fill="grey" stroke="grey" stroke-width="2" points="1507.21,-832.37 1497.51,-828.1 1502.43,-837.49 1507.21,-832.37"/>
</g>
<!-- 47 -->
<g id="node48" class="node">
<title>47</title>
<path fill="none" stroke="#d85e56" stroke-width="2" d="M1320.68,-828C1320.68,-828 1193.68,-828 1193.68,-828 1187.68,-828 1181.68,-822 1181.68,-816 1181.68,-816 1181.68,-804 1181.68,-804 1181.68,-798 1187.68,-792 1193.68,-792 1193.68,-792 1320.68,-792 1320.68,-792 1326.68,-792 1332.68,-798 1332.68,-804 1332.68,-804 1332.68,-816 1332.68,-816 1332.68,-822 1326.68,-828 1320.68,-828"/>
<text text-anchor="middle" x="1257.18" y="-807.5" font-family="sans" font-size="10.00">fetch_homogenous_regions</text>
</g>
<!-- 47&#45;&gt;37 -->
<g id="edge78" class="edge">
<title>47&#45;&gt;37</title>
<path fill="none" stroke="grey" stroke-width="2" d="M1192.69,-791.97C1154.7,-781.93 1106.47,-769.19 1066.84,-758.72"/>
<polygon fill="grey" stroke="grey" stroke-width="2" points="1067.52,-755.28 1056.96,-756.11 1065.73,-762.05 1067.52,-755.28"/>
</g>
<!-- 48&#45;&gt;18 -->
<g id="edge35" class="edge">
<title>48&#45;&gt;18</title>
<path fill="none" stroke="grey" stroke-width="2" d="M540.27,-301.12C816.88,-288.81 1673.09,-250.71 1943.47,-238.68"/>
<polygon fill="grey" stroke="grey" stroke-width="2" points="1943.78,-242.17 1953.61,-238.23 1943.46,-235.18 1943.78,-242.17"/>
</g>
<!-- 61 -->
<g id="node62" class="node">
<title>61</title>
<path fill="none" stroke="#ced856" stroke-width="2" d="M376.18,-252C376.18,-252 188.18,-252 188.18,-252 182.18,-252 176.18,-246 176.18,-240 176.18,-240 176.18,-228 176.18,-228 176.18,-222 182.18,-216 188.18,-216 188.18,-216 376.18,-216 376.18,-216 382.18,-216 388.18,-222 388.18,-228 388.18,-228 388.18,-240 388.18,-240 388.18,-246 382.18,-252 376.18,-252"/>
<text text-anchor="middle" x="282.18" y="-231.5" font-family="sans" font-size="10.00">create_cellCompositionVolume_payload</text>
</g>
<!-- 48&#45;&gt;61 -->
<g id="edge114" class="edge">
<title>48&#45;&gt;61</title>
<path fill="none" stroke="grey" stroke-width="2" d="M411.35,-287.88C387.77,-278.22 358.12,-266.09 333.18,-255.88"/>
<polygon fill="grey" stroke="grey" stroke-width="2" points="334.46,-252.62 323.88,-252.07 331.81,-259.1 334.46,-252.62"/>
</g>
<!-- 49&#45;&gt;48 -->
<g id="edge89" class="edge">
<title>49&#45;&gt;48</title>
<path fill="none" stroke="grey" stroke-width="2" d="M988.47,-368.73C879.68,-356.18 672.73,-332.32 550.47,-318.22"/>
<polygon fill="grey" stroke="grey" stroke-width="2" points="550.7,-314.72 540.37,-317.05 549.9,-321.68 550.7,-314.72"/>
</g>
<!-- 50&#45;&gt;49 -->
<g id="edge92" class="edge">
<title>50&#45;&gt;49</title>
<path fill="none" stroke="grey" stroke-width="2" d="M780.98,-431.97C841.27,-420.53 920.09,-405.58 978.6,-394.48"/>
<polygon fill="grey" stroke="grey" stroke-width="2" points="979.37,-397.89 988.54,-392.59 978.06,-391.02 979.37,-397.89"/>
</g>
<!-- 51 -->
<g id="node52" class="node">
<title>51</title>
<path fill="none" stroke="#568ad8" stroke-width="2" d="M750.68,-540C750.68,-540 631.68,-540 631.68,-540 625.68,-540 619.68,-534 619.68,-528 619.68,-528 619.68,-516 619.68,-516 619.68,-510 625.68,-504 631.68,-504 631.68,-504 750.68,-504 750.68,-504 756.68,-504 762.68,-510 762.68,-516 762.68,-516 762.68,-528 762.68,-528 762.68,-534 756.68,-540 750.68,-540"/>
<text text-anchor="middle" x="691.18" y="-519.5" font-family="sans" font-size="10.00">fetch_probability_map_L1</text>
</g>
<!-- 51&#45;&gt;50 -->
<g id="edge97" class="edge">
<title>51&#45;&gt;50</title>
<path fill="none" stroke="grey" stroke-width="2" d="M691.18,-503.7C691.18,-495.98 691.18,-486.71 691.18,-478.11"/>
<polygon fill="grey" stroke="grey" stroke-width="2" points="694.68,-478.1 691.18,-468.1 687.68,-478.1 694.68,-478.1"/>
</g>
<!-- 52 -->
<g id="node53" class="node">
<title>52</title>
<path fill="none" stroke="#88d856" stroke-width="2" d="M917.68,-540C917.68,-540 792.68,-540 792.68,-540 786.68,-540 780.68,-534 780.68,-528 780.68,-528 780.68,-516 780.68,-516 780.68,-510 786.68,-504 792.68,-504 792.68,-504 917.68,-504 917.68,-504 923.68,-504 929.68,-510 929.68,-516 929.68,-516 929.68,-528 929.68,-528 929.68,-534 923.68,-540 917.68,-540"/>
<text text-anchor="middle" x="855.18" y="-519.5" font-family="sans" font-size="10.00">fetch_probability_map_L23</text>
</g>
<!-- 52&#45;&gt;50 -->
<g id="edge98" class="edge">
<title>52&#45;&gt;50</title>
<path fill="none" stroke="grey" stroke-width="2" d="M815.06,-503.88C792.54,-494.26 764.26,-482.19 740.41,-472.01"/>
<polygon fill="grey" stroke="grey" stroke-width="2" points="741.74,-468.77 731.17,-468.07 738.99,-475.21 741.74,-468.77"/>
</g>
<!-- 53 -->
<g id="node54" class="node">
<title>53</title>
<path fill="none" stroke="#a7d856" stroke-width="2" d="M1078.68,-540C1078.68,-540 959.68,-540 959.68,-540 953.68,-540 947.68,-534 947.68,-528 947.68,-528 947.68,-516 947.68,-516 947.68,-510 953.68,-504 959.68,-504 959.68,-504 1078.68,-504 1078.68,-504 1084.68,-504 1090.68,-510 1090.68,-516 1090.68,-516 1090.68,-528 1090.68,-528 1090.68,-534 1084.68,-540 1078.68,-540"/>
<text text-anchor="middle" x="1019.18" y="-519.5" font-family="sans" font-size="10.00">fetch_probability_map_L4</text>
</g>
<!-- 53&#45;&gt;50 -->
<g id="edge99" class="edge">
<title>53&#45;&gt;50</title>
<path fill="none" stroke="grey" stroke-width="2" d="M947.61,-505.72C898.64,-495.28 833.36,-481.34 780.92,-470.15"/>
<polygon fill="grey" stroke="grey" stroke-width="2" points="781.46,-466.69 770.95,-468.02 780,-473.53 781.46,-466.69"/>
</g>
<!-- 54 -->
<g id="node55" class="node">
<title>54</title>
<path fill="none" stroke="#56d873" stroke-width="2" d="M1239.68,-540C1239.68,-540 1120.68,-540 1120.68,-540 1114.68,-540 1108.68,-534 1108.68,-528 1108.68,-528 1108.68,-516 1108.68,-516 1108.68,-510 1114.68,-504 1120.68,-504 1120.68,-504 1239.68,-504 1239.68,-504 1245.68,-504 1251.68,-510 1251.68,-516 1251.68,-516 1251.68,-528 1251.68,-528 1251.68,-534 1245.68,-540 1239.68,-540"/>
<text text-anchor="middle" x="1180.18" y="-519.5" font-family="sans" font-size="10.00">fetch_probability_map_L5</text>
</g>
<!-- 54&#45;&gt;50 -->
<g id="edge100" class="edge">
<title>54&#45;&gt;50</title>
<path fill="none" stroke="grey" stroke-width="2" d="M1108.28,-505.43C1105.55,-504.93 1102.84,-504.45 1100.18,-504 1009.65,-488.54 907.17,-475.27 827.43,-465.87"/>
<polygon fill="grey" stroke="grey" stroke-width="2" points="827.67,-462.38 817.33,-464.69 826.85,-469.33 827.67,-462.38"/>
</g>
<!-- 55 -->
<g id="node56" class="node">
<title>55</title>
<path fill="none" stroke="#56c9d8" stroke-width="2" d="M1400.68,-540C1400.68,-540 1281.68,-540 1281.68,-540 1275.68,-540 1269.68,-534 1269.68,-528 1269.68,-528 1269.68,-516 1269.68,-516 1269.68,-510 1275.68,-504 1281.68,-504 1281.68,-504 1400.68,-504 1400.68,-504 1406.68,-504 1412.68,-510 1412.68,-516 1412.68,-516 1412.68,-528 1412.68,-528 1412.68,-534 1406.68,-540 1400.68,-540"/>
<text text-anchor="middle" x="1341.18" y="-519.5" font-family="sans" font-size="10.00">fetch_probability_map_L6</text>
</g>
<!-- 55&#45;&gt;50 -->
<g id="edge101" class="edge">
<title>55&#45;&gt;50</title>
<path fill="none" stroke="grey" stroke-width="2" d="M1269.3,-505.31C1266.56,-504.85 1263.85,-504.41 1261.18,-504 1113.68,-481.55 943.15,-467.2 827.34,-459.18"/>
<polygon fill="grey" stroke="grey" stroke-width="2" points="827.57,-455.68 817.35,-458.49 827.09,-462.67 827.57,-455.68"/>
</g>
<!-- 56 -->
<g id="node57" class="node">
<title>56</title>
<path fill="none" stroke="#5692d8" stroke-width="2" d="M338.18,-540C338.18,-540 194.18,-540 194.18,-540 188.18,-540 182.18,-534 182.18,-528 182.18,-528 182.18,-516 182.18,-516 182.18,-510 188.18,-504 194.18,-504 194.18,-504 338.18,-504 338.18,-504 344.18,-504 350.18,-510 350.18,-516 350.18,-516 350.18,-528 350.18,-528 350.18,-534 344.18,-540 338.18,-540"/>
<text text-anchor="middle" x="266.18" y="-519.5" font-family="sans" font-size="10.00">fetch_probability_map_TH_INH</text>
</g>
<!-- 56&#45;&gt;50 -->
<g id="edge102" class="edge">
<title>56&#45;&gt;50</title>
<path fill="none" stroke="grey" stroke-width="2" d="M350.37,-506.33C355.04,-505.54 359.67,-504.76 364.18,-504 433.9,-492.3 512.06,-479.62 574.48,-469.59"/>
<polygon fill="grey" stroke="grey" stroke-width="2" points="575.04,-473.05 584.36,-468.01 573.93,-466.14 575.04,-473.05"/>
</g>
<!-- 57&#45;&gt;50 -->
<g id="edge103" class="edge">
<title>57&#45;&gt;50</title>
<path fill="none" stroke="grey" stroke-width="2" d="M542.12,-503.97C569.65,-494.19 604.4,-481.84 633.42,-471.52"/>
<polygon fill="grey" stroke="grey" stroke-width="2" points="634.78,-474.76 643.03,-468.11 632.43,-468.16 634.78,-474.76"/>
</g>
<!-- 58&#45;&gt;49 -->
<g id="edge93" class="edge">
<title>58&#45;&gt;49</title>
<path fill="none" stroke="grey" stroke-width="2" d="M1469.95,-506.6C1388.16,-481.13 1217.82,-428.09 1124.59,-399.06"/>
<polygon fill="grey" stroke="grey" stroke-width="2" points="1125.57,-395.7 1114.98,-396.07 1123.49,-402.38 1125.57,-395.7"/>
</g>
<!-- 59 -->
<g id="node60" class="node">
<title>59</title>
<path fill="none" stroke="#8fd856" stroke-width="2" d="M1754.18,-612C1754.18,-612 1556.18,-612 1556.18,-612 1550.18,-612 1544.18,-606 1544.18,-600 1544.18,-600 1544.18,-588 1544.18,-588 1544.18,-582 1550.18,-576 1556.18,-576 1556.18,-576 1754.18,-576 1754.18,-576 1760.18,-576 1766.18,-582 1766.18,-588 1766.18,-588 1766.18,-600 1766.18,-600 1766.18,-606 1760.18,-612 1754.18,-612"/>
<text text-anchor="middle" x="1655.18" y="-591.5" font-family="sans" font-size="10.00">fetch_mapping_cortex_all_to_exc_mtypes</text>
</g>
<!-- 59&#45;&gt;58 -->
<g id="edge109" class="edge">
<title>59&#45;&gt;58</title>
<path fill="none" stroke="grey" stroke-width="2" d="M1621.18,-575.88C1602.58,-566.51 1579.35,-554.81 1559.48,-544.8"/>
<polygon fill="grey" stroke="grey" stroke-width="2" points="1560.82,-541.56 1550.32,-540.19 1557.67,-547.81 1560.82,-541.56"/>
</g>
<!-- 60&#45;&gt;0 -->
<g id="edge4" class="edge">
<title>60&#45;&gt;0</title>
<path fill="none" stroke="grey" stroke-width="2" d="M274.24,-86.75C562.93,-76.29 1773.1,-32.42 2074.82,-21.48"/>
<polygon fill="grey" stroke="grey" stroke-width="2" points="2075.3,-24.96 2085.16,-21.1 2075.04,-17.97 2075.3,-24.96"/>
</g>
<!-- 61&#45;&gt;60 -->
<g id="edge112" class="edge">
<title>61&#45;&gt;60</title>
<path fill="none" stroke="grey" stroke-width="2" d="M281.01,-215.66C279.15,-197.01 274.37,-166.93 262.18,-144 256.63,-133.57 248.48,-123.69 240.36,-115.36"/>
<polygon fill="grey" stroke="grey" stroke-width="2" points="242.58,-112.64 232.98,-108.16 237.7,-117.65 242.58,-112.64"/>
</g>
<!-- 61&#45;&gt;62 -->
<g id="edge117" class="edge">
<title>61&#45;&gt;62</title>
<path fill="none" stroke="grey" stroke-width="2" d="M247.93,-215.88C229.12,-206.47 205.6,-194.71 185.52,-184.67"/>
<polygon fill="grey" stroke="grey" stroke-width="2" points="187.07,-181.53 176.56,-180.19 183.94,-187.79 187.07,-181.53"/>
</g>
<!-- 62&#45;&gt;60 -->
<g id="edge113" class="edge">
<title>62&#45;&gt;60</title>
<path fill="none" stroke="grey" stroke-width="2" d="M159.48,-143.7C168.05,-135.14 178.52,-124.66 187.88,-115.3"/>
<polygon fill="grey" stroke="grey" stroke-width="2" points="190.48,-117.65 195.08,-108.1 185.53,-112.7 190.48,-117.65"/>
</g>
</g>
</svg>
