<?xml version="1.0" encoding="UTF-8" standalone="no"?>
<!DOCTYPE svg PUBLIC "-//W3C//DTD SVG 1.1//EN"
 "http://www.w3.org/Graphics/SVG/1.1/DTD/svg11.dtd">
<!-- Generated by graphviz version 2.43.0 (0)
 -->
<!-- Title: snakemake_dag Pages: 1 -->
<svg width="946pt" height="476pt"
 viewBox="0.00 0.00 946.00 476.00" xmlns="http://www.w3.org/2000/svg" xmlns:xlink="http://www.w3.org/1999/xlink">
<g id="graph0" class="graph" transform="scale(1 1) rotate(0) translate(4 472)">
<title>snakemake_dag</title>
<polygon fill="white" stroke="transparent" points="-4,4 -4,-472 942,-472 942,4 -4,4"/>
<!-- 0 -->
<g id="node1" class="node">
<title>0</title>
<path fill="none" stroke="#78d856" stroke-width="2" d="M456,-36C456,-36 310,-36 310,-36 304,-36 298,-30 298,-24 298,-24 298,-12 298,-12 298,-6 304,0 310,0 310,0 456,0 456,0 462,0 468,-6 468,-12 468,-12 468,-24 468,-24 468,-30 462,-36 456,-36"/>
<text text-anchor="middle" x="383" y="-15.5" font-family="sans" font-size="10.00">push_volumetric_ccfv3_l23split</text>
</g>
<!-- 1 -->
<g id="node2" class="node">
<title>1</title>
<path fill="none" stroke="#d89c56" stroke-width="2" d="M102,-108C102,-108 12,-108 12,-108 6,-108 0,-102 0,-96 0,-96 0,-84 0,-84 0,-78 6,-72 12,-72 12,-72 102,-72 102,-72 108,-72 114,-78 114,-84 114,-84 114,-96 114,-96 114,-102 108,-108 102,-108"/>
<text text-anchor="middle" x="57" y="-87.5" font-family="sans" font-size="10.00">export_brain_region</text>
</g>
<!-- 1&#45;&gt;0 -->
<g id="edge1" class="edge">
<title>1&#45;&gt;0</title>
<path fill="none" stroke="grey" stroke-width="2" d="M114.32,-75.12C118.94,-74.05 123.55,-73 128,-72 180.73,-60.21 239.8,-47.88 287.79,-38.08"/>
<polygon fill="grey" stroke="grey" stroke-width="2" points="288.76,-41.45 297.86,-36.03 287.36,-34.6 288.76,-41.45"/>
</g>
<!-- 2 -->
<g id="node3" class="node">
<title>2</title>
<path fill="none" stroke="#56d8a2" stroke-width="2" d="M384,-180C384,-180 264,-180 264,-180 258,-180 252,-174 252,-168 252,-168 252,-156 252,-156 252,-150 258,-144 264,-144 264,-144 384,-144 384,-144 390,-144 396,-150 396,-156 396,-156 396,-168 396,-168 396,-174 390,-180 384,-180"/>
<text text-anchor="middle" x="324" y="-159.5" font-family="sans" font-size="10.00">split_barrel_ccfv3_l23split</text>
</g>
<!-- 2&#45;&gt;0 -->
<g id="edge3" class="edge">
<title>2&#45;&gt;0</title>
<path fill="none" stroke="grey" stroke-width="2" d="M251.78,-148.31C195.05,-135.11 130.34,-110.85 161,-72 177.12,-51.58 235.09,-38.17 287.75,-29.94"/>
<polygon fill="grey" stroke="grey" stroke-width="2" points="288.49,-33.37 297.85,-28.42 287.44,-26.45 288.49,-33.37"/>
</g>
<!-- 2&#45;&gt;1 -->
<g id="edge8" class="edge">
<title>2&#45;&gt;1</title>
<path fill="none" stroke="grey" stroke-width="2" d="M259.03,-143.97C218.01,-133.21 165.16,-119.36 123.8,-108.51"/>
<polygon fill="grey" stroke="grey" stroke-width="2" points="124.65,-105.12 114.09,-105.97 122.87,-111.89 124.65,-105.12"/>
</g>
<!-- 10 -->
<g id="node11" class="node">
<title>10</title>
<path fill="none" stroke="#56d8b1" stroke-width="2" d="M444.5,-108C444.5,-108 321.5,-108 321.5,-108 315.5,-108 309.5,-102 309.5,-96 309.5,-96 309.5,-84 309.5,-84 309.5,-78 315.5,-72 321.5,-72 321.5,-72 444.5,-72 444.5,-72 450.5,-72 456.5,-78 456.5,-84 456.5,-84 456.5,-96 456.5,-96 456.5,-102 450.5,-108 444.5,-108"/>
<text text-anchor="middle" x="383" y="-87.5" font-family="sans" font-size="10.00">create_hemispheres_ccfv3</text>
</g>
<!-- 2&#45;&gt;10 -->
<g id="edge17" class="edge">
<title>2&#45;&gt;10</title>
<path fill="none" stroke="grey" stroke-width="2" d="M338.58,-143.7C345.66,-135.3 354.28,-125.07 362.05,-115.86"/>
<polygon fill="grey" stroke="grey" stroke-width="2" points="364.81,-118.01 368.58,-108.1 359.46,-113.49 364.81,-118.01"/>
</g>
<!-- 11 -->
<g id="node12" class="node">
<title>11</title>
<path fill="none" stroke="#d87d56" stroke-width="2" d="M561,-108C561,-108 487,-108 487,-108 481,-108 475,-102 475,-96 475,-96 475,-84 475,-84 475,-78 481,-72 487,-72 487,-72 561,-72 561,-72 567,-72 573,-78 573,-84 573,-84 573,-96 573,-96 573,-102 567,-108 561,-108"/>
<text text-anchor="middle" x="524" y="-87.5" font-family="sans" font-size="10.00">placement_hints</text>
</g>
<!-- 2&#45;&gt;11 -->
<g id="edge18" class="edge">
<title>2&#45;&gt;11</title>
<path fill="none" stroke="grey" stroke-width="2" d="M372.67,-143.97C400.61,-134.19 435.9,-121.84 465.36,-111.52"/>
<polygon fill="grey" stroke="grey" stroke-width="2" points="466.83,-114.72 475.11,-108.11 464.52,-108.11 466.83,-114.72"/>
</g>
<!-- 3 -->
<g id="node4" class="node">
<title>3</title>
<path fill="none" stroke="#56d89a" stroke-width="2" d="M379.5,-252C379.5,-252 152.5,-252 152.5,-252 146.5,-252 140.5,-246 140.5,-240 140.5,-240 140.5,-228 140.5,-228 140.5,-222 146.5,-216 152.5,-216 152.5,-216 379.5,-216 379.5,-216 385.5,-216 391.5,-222 391.5,-228 391.5,-228 391.5,-240 391.5,-240 391.5,-246 385.5,-252 379.5,-252"/>
<text text-anchor="middle" x="266" y="-231.5" font-family="sans" font-size="10.00">create_leaves_only_hierarchy_annotation_ccfv3</text>
</g>
<!-- 3&#45;&gt;2 -->
<g id="edge9" class="edge">
<title>3&#45;&gt;2</title>
<path fill="none" stroke="grey" stroke-width="2" d="M280.34,-215.7C287.29,-207.3 295.77,-197.07 303.4,-187.86"/>
<polygon fill="grey" stroke="grey" stroke-width="2" points="306.14,-190.04 309.83,-180.1 300.75,-185.57 306.14,-190.04"/>
</g>
<!-- 4 -->
<g id="node5" class="node">
<title>4</title>
<path fill="none" stroke="#56d8d8" stroke-width="2" d="M523.5,-324C523.5,-324 380.5,-324 380.5,-324 374.5,-324 368.5,-318 368.5,-312 368.5,-312 368.5,-300 368.5,-300 368.5,-294 374.5,-288 380.5,-288 380.5,-288 523.5,-288 523.5,-288 529.5,-288 535.5,-294 535.5,-300 535.5,-300 535.5,-312 535.5,-312 535.5,-318 529.5,-324 523.5,-324"/>
<text text-anchor="middle" x="452" y="-303.5" font-family="sans" font-size="10.00">split_isocortex_layer_23_ccfv3</text>
</g>
<!-- 4&#45;&gt;3 -->
<g id="edge11" class="edge">
<title>4&#45;&gt;3</title>
<path fill="none" stroke="grey" stroke-width="2" d="M406.5,-287.88C380.62,-278.14 348.03,-265.87 320.76,-255.61"/>
<polygon fill="grey" stroke="grey" stroke-width="2" points="321.94,-252.31 311.35,-252.07 319.48,-258.87 321.94,-252.31"/>
</g>
<!-- 5 -->
<g id="node6" class="node">
<title>5</title>
<path fill="none" stroke="#56a2d8" stroke-width="2" d="M591,-468C591,-468 437,-468 437,-468 431,-468 425,-462 425,-456 425,-456 425,-444 425,-444 425,-438 431,-432 437,-432 437,-432 591,-432 591,-432 597,-432 603,-438 603,-444 603,-444 603,-456 603,-456 603,-462 597,-468 591,-468"/>
<text text-anchor="middle" x="514" y="-447.5" font-family="sans" font-size="10.00">fetch_ccf_brain_region_hierarchy</text>
</g>
<!-- 5&#45;&gt;4 -->
<g id="edge12" class="edge">
<title>5&#45;&gt;4</title>
<path fill="none" stroke="grey" stroke-width="2" d="M499.28,-431.85C491.41,-421.93 482.11,-408.89 476,-396 466.6,-376.18 460.39,-352.06 456.64,-333.94"/>
<polygon fill="grey" stroke="grey" stroke-width="2" points="460.06,-333.18 454.71,-324.03 453.19,-334.52 460.06,-333.18"/>
</g>
<!-- 7 -->
<g id="node8" class="node">
<title>7</title>
<path fill="none" stroke="#d8b456" stroke-width="2" d="M688,-396C688,-396 530,-396 530,-396 524,-396 518,-390 518,-384 518,-384 518,-372 518,-372 518,-366 524,-360 530,-360 530,-360 688,-360 688,-360 694,-360 700,-366 700,-372 700,-372 700,-384 700,-384 700,-390 694,-396 688,-396"/>
<text text-anchor="middle" x="609" y="-375.5" font-family="sans" font-size="10.00">direction_vectors_isocortex_ccfv3</text>
</g>
<!-- 5&#45;&gt;7 -->
<g id="edge16" class="edge">
<title>5&#45;&gt;7</title>
<path fill="none" stroke="grey" stroke-width="2" d="M537.48,-431.7C549.56,-422.8 564.45,-411.82 577.52,-402.2"/>
<polygon fill="grey" stroke="grey" stroke-width="2" points="579.81,-404.85 585.79,-396.1 575.66,-399.22 579.81,-404.85"/>
</g>
<!-- 12 -->
<g id="node13" class="node">
<title>12</title>
<path fill="none" stroke="#d86e56" stroke-width="2" d="M885.5,-324C885.5,-324 668.5,-324 668.5,-324 662.5,-324 656.5,-318 656.5,-312 656.5,-312 656.5,-300 656.5,-300 656.5,-294 662.5,-288 668.5,-288 668.5,-288 885.5,-288 885.5,-288 891.5,-288 897.5,-294 897.5,-300 897.5,-300 897.5,-312 897.5,-312 897.5,-318 891.5,-324 885.5,-324"/>
<text text-anchor="middle" x="777" y="-303.5" font-family="sans" font-size="10.00">interpolate_direction_vectors_isocortex_ccfv3</text>
</g>
<!-- 5&#45;&gt;12 -->
<g id="edge21" class="edge">
<title>5&#45;&gt;12</title>
<path fill="none" stroke="grey" stroke-width="2" d="M597.27,-431.95C641.43,-421.83 690.33,-408.55 709,-396 721.74,-387.44 744.62,-355.6 760.29,-332.45"/>
<polygon fill="grey" stroke="grey" stroke-width="2" points="763.25,-334.32 765.91,-324.06 757.43,-330.42 763.25,-334.32"/>
</g>
<!-- 6 -->
<g id="node7" class="node">
<title>6</title>
<path fill="none" stroke="#569ad8" stroke-width="2" d="M775,-468C775,-468 633,-468 633,-468 627,-468 621,-462 621,-456 621,-456 621,-444 621,-444 621,-438 627,-432 633,-432 633,-432 775,-432 775,-432 781,-432 787,-438 787,-444 787,-444 787,-456 787,-456 787,-462 781,-468 775,-468"/>
<text text-anchor="middle" x="704" y="-447.5" font-family="sans" font-size="10.00">fetch_brain_parcellation_ccfv3</text>
</g>
<!-- 6&#45;&gt;4 -->
<g id="edge13" class="edge">
<title>6&#45;&gt;4</title>
<path fill="none" stroke="grey" stroke-width="2" d="M620.85,-432.64C576.42,-422.69 527.21,-409.37 509,-396 487.39,-380.14 471.88,-353.39 462.55,-333.36"/>
<polygon fill="grey" stroke="grey" stroke-width="2" points="465.71,-331.86 458.46,-324.13 459.31,-334.69 465.71,-331.86"/>
</g>
<!-- 6&#45;&gt;7 -->
<g id="edge15" class="edge">
<title>6&#45;&gt;7</title>
<path fill="none" stroke="grey" stroke-width="2" d="M680.52,-431.7C668.44,-422.8 653.55,-411.82 640.48,-402.2"/>
<polygon fill="grey" stroke="grey" stroke-width="2" points="642.34,-399.22 632.21,-396.1 638.19,-404.85 642.34,-399.22"/>
</g>
<!-- 6&#45;&gt;12 -->
<g id="edge20" class="edge">
<title>6&#45;&gt;12</title>
<path fill="none" stroke="grey" stroke-width="2" d="M718.17,-431.57C725.87,-421.57 735.18,-408.53 742,-396 752.86,-376.04 762.12,-351.97 768.38,-333.9"/>
<polygon fill="grey" stroke="grey" stroke-width="2" points="771.74,-334.89 771.62,-324.29 765.11,-332.65 771.74,-334.89"/>
</g>
<!-- 7&#45;&gt;4 -->
<g id="edge14" class="edge">
<title>7&#45;&gt;4</title>
<path fill="none" stroke="grey" stroke-width="2" d="M570.59,-359.88C549.13,-350.31 522.2,-338.3 499.43,-328.15"/>
<polygon fill="grey" stroke="grey" stroke-width="2" points="500.84,-324.94 490.28,-324.07 497.99,-331.34 500.84,-324.94"/>
</g>
<!-- 7&#45;&gt;11 -->
<g id="edge19" class="edge">
<title>7&#45;&gt;11</title>
<path fill="none" stroke="grey" stroke-width="2" d="M603.94,-359.97C589.71,-312.09 549.28,-176.06 532,-117.9"/>
<polygon fill="grey" stroke="grey" stroke-width="2" points="535.35,-116.89 529.14,-108.31 528.64,-118.89 535.35,-116.89"/>
</g>
<!-- 7&#45;&gt;12 -->
<g id="edge22" class="edge">
<title>7&#45;&gt;12</title>
<path fill="none" stroke="grey" stroke-width="2" d="M650.1,-359.88C673.17,-350.26 702.14,-338.19 726.57,-328.01"/>
<polygon fill="grey" stroke="grey" stroke-width="2" points="728.15,-331.15 736.04,-324.07 725.46,-324.68 728.15,-331.15"/>
</g>
<!-- 14 -->
<g id="node15" class="node">
<title>14</title>
<path fill="none" stroke="#bed856" stroke-width="2" d="M713,-180C713,-180 641,-180 641,-180 635,-180 629,-174 629,-168 629,-168 629,-156 629,-156 629,-150 635,-144 641,-144 641,-144 713,-144 713,-144 719,-144 725,-150 725,-156 725,-156 725,-168 725,-168 725,-174 719,-180 713,-180"/>
<text text-anchor="middle" x="677" y="-159.5" font-family="sans" font-size="10.00">orientation_field</text>
</g>
<!-- 7&#45;&gt;14 -->
<g id="edge24" class="edge">
<title>7&#45;&gt;14</title>
<path fill="none" stroke="grey" stroke-width="2" d="M614.45,-359.85C626.26,-322.68 654.3,-234.44 668.48,-189.82"/>
<polygon fill="grey" stroke="grey" stroke-width="2" points="671.83,-190.82 671.52,-180.23 665.16,-188.7 671.83,-190.82"/>
</g>
<!-- 8 -->
<g id="node9" class="node">
<title>8</title>
<path fill="none" stroke="#d85e56" stroke-width="2" d="M522.5,-252C522.5,-252 421.5,-252 421.5,-252 415.5,-252 409.5,-246 409.5,-240 409.5,-240 409.5,-228 409.5,-228 409.5,-222 415.5,-216 421.5,-216 421.5,-216 522.5,-216 522.5,-216 528.5,-216 534.5,-222 534.5,-228 534.5,-228 534.5,-240 534.5,-240 534.5,-246 528.5,-252 522.5,-252"/>
<text text-anchor="middle" x="472" y="-231.5" font-family="sans" font-size="10.00">fetch_barrel_positions</text>
</g>
<!-- 8&#45;&gt;2 -->
<g id="edge10" class="edge">
<title>8&#45;&gt;2</title>
<path fill="none" stroke="grey" stroke-width="2" d="M435.8,-215.88C415.74,-206.39 390.63,-194.51 369.29,-184.42"/>
<polygon fill="grey" stroke="grey" stroke-width="2" points="370.62,-181.18 360.09,-180.07 367.63,-187.51 370.62,-181.18"/>
</g>
<!-- 9 -->
<g id="node10" class="node">
<title>9</title>
<path fill="none" stroke="#56d88a" stroke-width="2" d="M279.5,-108C279.5,-108 182.5,-108 182.5,-108 176.5,-108 170.5,-102 170.5,-96 170.5,-96 170.5,-84 170.5,-84 170.5,-78 176.5,-72 182.5,-72 182.5,-72 279.5,-72 279.5,-72 285.5,-72 291.5,-78 291.5,-84 291.5,-84 291.5,-96 291.5,-96 291.5,-102 285.5,-108 279.5,-108"/>
<text text-anchor="middle" x="231" y="-87.5" font-family="sans" font-size="10.00">fetch_brain_template</text>
</g>
<!-- 9&#45;&gt;0 -->
<g id="edge2" class="edge">
<title>9&#45;&gt;0</title>
<path fill="none" stroke="grey" stroke-width="2" d="M268.18,-71.88C288.87,-62.35 314.8,-50.41 336.78,-40.28"/>
<polygon fill="grey" stroke="grey" stroke-width="2" points="338.32,-43.43 345.94,-36.07 335.39,-37.07 338.32,-43.43"/>
</g>
<!-- 10&#45;&gt;0 -->
<g id="edge4" class="edge">
<title>10&#45;&gt;0</title>
<path fill="none" stroke="grey" stroke-width="2" d="M383,-71.7C383,-63.98 383,-54.71 383,-46.11"/>
<polygon fill="grey" stroke="grey" stroke-width="2" points="386.5,-46.1 383,-36.1 379.5,-46.1 386.5,-46.1"/>
</g>
<!-- 11&#45;&gt;0 -->
<g id="edge5" class="edge">
<title>11&#45;&gt;0</title>
<path fill="none" stroke="grey" stroke-width="2" d="M489.51,-71.88C470.56,-62.47 446.87,-50.71 426.64,-40.67"/>
<polygon fill="grey" stroke="grey" stroke-width="2" points="428.14,-37.5 417.63,-36.19 425.03,-43.77 428.14,-37.5"/>
</g>
<!-- 12&#45;&gt;0 -->
<g id="edge6" class="edge">
<title>12&#45;&gt;0</title>
<path fill="none" stroke="grey" stroke-width="2" d="M746.44,-287.94C711.28,-266.85 654.03,-227.84 620,-180 590.5,-138.54 619.36,-106.55 582,-72 553.93,-46.04 514.58,-32.52 478.28,-25.58"/>
<polygon fill="grey" stroke="grey" stroke-width="2" points="478.59,-22.08 468.13,-23.79 477.37,-28.97 478.59,-22.08"/>
</g>
<!-- 13 -->
<g id="node14" class="node">
<title>13</title>
<path fill="none" stroke="#d6d856" stroke-width="2" d="M926,-396C926,-396 806,-396 806,-396 800,-396 794,-390 794,-384 794,-384 794,-372 794,-372 794,-366 800,-360 806,-360 806,-360 926,-360 926,-360 932,-360 938,-366 938,-372 938,-372 938,-384 938,-384 938,-390 932,-396 926,-396"/>
<text text-anchor="middle" x="866" y="-375.5" font-family="sans" font-size="10.00">fetch_isocortex_metadata</text>
</g>
<!-- 13&#45;&gt;12 -->
<g id="edge23" class="edge">
<title>13&#45;&gt;12</title>
<path fill="none" stroke="grey" stroke-width="2" d="M844,-359.7C832.79,-350.88 819,-340.03 806.85,-330.47"/>
<polygon fill="grey" stroke="grey" stroke-width="2" points="808.77,-327.54 798.75,-324.1 804.44,-333.04 808.77,-327.54"/>
</g>
<!-- 14&#45;&gt;0 -->
<g id="edge7" class="edge">
<title>14&#45;&gt;0</title>
<path fill="none" stroke="grey" stroke-width="2" d="M669.7,-143.68C660.17,-123.28 641.54,-89.9 615,-72 574.8,-44.88 522.69,-31.49 478.05,-24.94"/>
<polygon fill="grey" stroke="grey" stroke-width="2" points="478.44,-21.46 468.05,-23.56 477.49,-28.39 478.44,-21.46"/>
</g>
</g>
</svg>
