<?xml version="1.0" encoding="UTF-8" standalone="no"?>
<!DOCTYPE svg PUBLIC "-//W3C//DTD SVG 1.1//EN"
 "http://www.w3.org/Graphics/SVG/1.1/DTD/svg11.dtd">
<!-- Generated by graphviz version 2.49.0 (0)
 -->
<!-- Title: snakemake_dag Pages: 1 -->
<svg width="798pt" height="476pt"
 viewBox="0.00 0.00 798.48 476.00" xmlns="http://www.w3.org/2000/svg" xmlns:xlink="http://www.w3.org/1999/xlink">
<g id="graph0" class="graph" transform="scale(1 1) rotate(0) translate(4 472)">
<title>snakemake_dag</title>
<polygon fill="white" stroke="transparent" points="-4,4 -4,-472 794.48,-472 794.48,4 -4,4"/>
<!-- 0 -->
<g id="node1" class="node">
<title>0</title>
<path fill="none" stroke="#c6d856" stroke-width="2" d="M296.97,-36C296.97,-36 165.03,-36 165.03,-36 159.03,-36 153.03,-30 153.03,-24 153.03,-24 153.03,-12 153.03,-12 153.03,-6 159.03,0 165.03,0 165.03,0 296.97,0 296.97,0 302.97,0 308.97,-6 308.97,-12 308.97,-12 308.97,-24 308.97,-24 308.97,-30 302.97,-36 296.97,-36"/>
<text text-anchor="middle" x="231" y="-15" font-family="sans" font-size="10.00">push_annotation_pipeline_datasets</text>
</g>
<!-- 1 -->
<g id="node2" class="node">
<title>1</title>
<path fill="none" stroke="#a7d856" stroke-width="2" d="M343.75,-108C343.75,-108 244.25,-108 244.25,-108 238.25,-108 232.25,-102 232.25,-96 232.25,-96 232.25,-84 232.25,-84 232.25,-78 238.25,-72 244.25,-72 244.25,-72 343.75,-72 343.75,-72 349.75,-72 355.75,-78 355.75,-84 355.75,-84 355.75,-96 355.75,-96 355.75,-102 349.75,-108 343.75,-108"/>
<text text-anchor="middle" x="294" y="-87" font-family="sans" font-size="10.00">check_annotation_pipeline</text>
</g>
<!-- 1&#45;&gt;0 -->
<g id="edge3" class="edge">
<title>1&#45;&gt;0</title>
<path fill="none" stroke="grey" stroke-width="2" d="M278.43,-71.7C270.8,-63.22 261.48,-52.86 253.12,-43.58"/>
<polygon fill="grey" stroke="grey" stroke-width="2" points="255.69,-41.2 246.39,-36.1 250.48,-45.88 255.69,-41.2"/>
</g>
<!-- 2 -->
<g id="node3" class="node">
<title>2</title>
<path fill="none" stroke="#59d856" stroke-width="2" d="M361.04,-468C361.04,-468 232.96,-468 232.96,-468 226.96,-468 220.96,-462 220.96,-456 220.96,-456 220.96,-444 220.96,-444 220.96,-438 226.96,-432 232.96,-432 232.96,-432 361.04,-432 361.04,-432 367.04,-432 373.04,-438 373.04,-444 373.04,-444 373.04,-456 373.04,-456 373.04,-462 367.04,-468 361.04,-468"/>
<text text-anchor="middle" x="297" y="-447" font-family="sans" font-size="10.00">fetch_ccf_brain_region_hierarchy</text>
</g>
<!-- 2&#45;&gt;0 -->
<g id="edge7" class="edge">
<title>2&#45;&gt;0</title>
<path fill="none" stroke="grey" stroke-width="2" d="M220.9,-444.8C132.9,-435.35 0,-404.87 0,-307 0,-307 0,-307 0,-161 0,-114.5 18.12,-100.32 55,-72 80.24,-52.62 112.52,-40.29 142.53,-32.47"/>
<polygon fill="grey" stroke="grey" stroke-width="2" points="143.74,-35.78 152.61,-29.98 142.06,-28.98 143.74,-35.78"/>
</g>
<!-- 5 -->
<g id="node6" class="node">
<title>5</title>
<path fill="none" stroke="#8fd856" stroke-width="2" d="M564.07,-324C564.07,-324 445.93,-324 445.93,-324 439.93,-324 433.93,-318 433.93,-312 433.93,-312 433.93,-300 433.93,-300 433.93,-294 439.93,-288 445.93,-288 445.93,-288 564.07,-288 564.07,-288 570.07,-288 576.07,-294 576.07,-300 576.07,-300 576.07,-312 576.07,-312 576.07,-318 570.07,-324 564.07,-324"/>
<text text-anchor="middle" x="505" y="-303" font-family="sans" font-size="10.00">split_isocortex_layer_23_ccfv3</text>
</g>
<!-- 2&#45;&gt;5 -->
<g id="edge12" class="edge">
<title>2&#45;&gt;5</title>
<path fill="none" stroke="grey" stroke-width="2" d="M326.02,-431.89C342.86,-421.76 364.36,-408.51 383,-396 414.74,-374.69 449.9,-348.78 474.29,-330.43"/>
<polygon fill="grey" stroke="grey" stroke-width="2" points="476.57,-333.09 482.44,-324.27 472.35,-327.5 476.57,-333.09"/>
</g>
<!-- 7 -->
<g id="node8" class="node">
<title>7</title>
<path fill="none" stroke="#56d8c1" stroke-width="2" d="M362.28,-396C362.28,-396 231.72,-396 231.72,-396 225.72,-396 219.72,-390 219.72,-384 219.72,-384 219.72,-372 219.72,-372 219.72,-366 225.72,-360 231.72,-360 231.72,-360 362.28,-360 362.28,-360 368.28,-360 374.28,-366 374.28,-372 374.28,-372 374.28,-384 374.28,-384 374.28,-390 368.28,-396 362.28,-396"/>
<text text-anchor="middle" x="297" y="-375" font-family="sans" font-size="10.00">direction_vectors_isocortex_ccfv3</text>
</g>
<!-- 2&#45;&gt;7 -->
<g id="edge17" class="edge">
<title>2&#45;&gt;7</title>
<path fill="none" stroke="grey" stroke-width="2" d="M297,-431.7C297,-423.98 297,-414.71 297,-406.11"/>
<polygon fill="grey" stroke="grey" stroke-width="2" points="300.5,-406.1 297,-396.1 293.5,-406.1 300.5,-406.1"/>
</g>
<!-- 3 -->
<g id="node4" class="node">
<title>3</title>
<path fill="none" stroke="#d88556" stroke-width="2" d="M621.85,-252C621.85,-252 486.15,-252 486.15,-252 480.15,-252 474.15,-246 474.15,-240 474.15,-240 474.15,-228 474.15,-228 474.15,-222 480.15,-216 486.15,-216 486.15,-216 621.85,-216 621.85,-216 627.85,-216 633.85,-222 633.85,-228 633.85,-228 633.85,-240 633.85,-240 633.85,-246 627.85,-252 621.85,-252"/>
<text text-anchor="middle" x="554" y="-231" font-family="sans" font-size="10.00">export_brain_region_ccfv3_l23split</text>
</g>
<!-- 3&#45;&gt;0 -->
<g id="edge6" class="edge">
<title>3&#45;&gt;0</title>
<path fill="none" stroke="grey" stroke-width="2" d="M575.64,-215.96C596.34,-197.56 622.07,-167.7 605,-144 540.19,-54 407.62,-27.85 319.02,-20.78"/>
<polygon fill="grey" stroke="grey" stroke-width="2" points="319.21,-17.28 308.98,-20.05 318.69,-24.27 319.21,-17.28"/>
</g>
<!-- 9 -->
<g id="node10" class="node">
<title>9</title>
<path fill="none" stroke="#d86656" stroke-width="2" d="M379.9,-180C379.9,-180 208.1,-180 208.1,-180 202.1,-180 196.1,-174 196.1,-168 196.1,-168 196.1,-156 196.1,-156 196.1,-150 202.1,-144 208.1,-144 208.1,-144 379.9,-144 379.9,-144 385.9,-144 391.9,-150 391.9,-156 391.9,-156 391.9,-168 391.9,-168 391.9,-174 385.9,-180 379.9,-180"/>
<text text-anchor="middle" x="294" y="-159" font-family="sans" font-size="10.00">check_annotation_pipeline_volume_datasets</text>
</g>
<!-- 3&#45;&gt;9 -->
<g id="edge23" class="edge">
<title>3&#45;&gt;9</title>
<path fill="none" stroke="grey" stroke-width="2" d="M490.73,-215.97C453.45,-205.93 406.14,-193.19 367.25,-182.72"/>
<polygon fill="grey" stroke="grey" stroke-width="2" points="368.12,-179.33 357.55,-180.11 366.3,-186.09 368.12,-179.33"/>
</g>
<!-- 10 -->
<g id="node11" class="node">
<title>10</title>
<path fill="none" stroke="#5673d8" stroke-width="2" d="M584.01,-180C584.01,-180 421.99,-180 421.99,-180 415.99,-180 409.99,-174 409.99,-168 409.99,-168 409.99,-156 409.99,-156 409.99,-150 415.99,-144 421.99,-144 421.99,-144 584.01,-144 584.01,-144 590.01,-144 596.01,-150 596.01,-156 596.01,-156 596.01,-168 596.01,-168 596.01,-174 590.01,-180 584.01,-180"/>
<text text-anchor="middle" x="503" y="-159" font-family="sans" font-size="10.00">check_annotation_pipeline_mesh_datasets</text>
</g>
<!-- 3&#45;&gt;10 -->
<g id="edge25" class="edge">
<title>3&#45;&gt;10</title>
<path fill="none" stroke="grey" stroke-width="2" d="M541.39,-215.7C535.4,-207.47 528.12,-197.48 521.52,-188.42"/>
<polygon fill="grey" stroke="grey" stroke-width="2" points="524.18,-186.13 515.46,-180.1 518.52,-190.25 524.18,-186.13"/>
</g>
<!-- 4 -->
<g id="node5" class="node">
<title>4</title>
<path fill="none" stroke="#56d8a2" stroke-width="2" d="M778.47,-108C778.47,-108 701.53,-108 701.53,-108 695.53,-108 689.53,-102 689.53,-96 689.53,-96 689.53,-84 689.53,-84 689.53,-78 695.53,-72 701.53,-72 701.53,-72 778.47,-72 778.47,-72 784.47,-72 790.47,-78 790.47,-84 790.47,-84 790.47,-96 790.47,-96 790.47,-102 784.47,-108 778.47,-108"/>
<text text-anchor="middle" x="740" y="-87" font-family="sans" font-size="10.00">fetch_brain_template</text>
</g>
<!-- 4&#45;&gt;0 -->
<g id="edge5" class="edge">
<title>4&#45;&gt;0</title>
<path fill="none" stroke="grey" stroke-width="2" d="M689.5,-74.88C684.95,-73.82 680.4,-72.84 676,-72 553.3,-48.52 409.47,-33.64 319.27,-25.82"/>
<polygon fill="grey" stroke="grey" stroke-width="2" points="319.35,-22.31 309.09,-24.94 318.75,-29.28 319.35,-22.31"/>
</g>
<!-- 5&#45;&gt;0 -->
<g id="edge4" class="edge">
<title>5&#45;&gt;0</title>
<path fill="none" stroke="grey" stroke-width="2" d="M576.11,-294.72C601.53,-287.24 627.67,-274.32 643,-252 660.67,-226.29 623.94,-149.28 621,-144 600.33,-106.84 595.19,-92.62 558,-72 518.05,-49.84 401.74,-34.78 319.24,-26.53"/>
<polygon fill="grey" stroke="grey" stroke-width="2" points="319.4,-23.03 309.1,-25.53 318.71,-30 319.4,-23.03"/>
</g>
<!-- 5&#45;&gt;3 -->
<g id="edge11" class="edge">
<title>5&#45;&gt;3</title>
<path fill="none" stroke="grey" stroke-width="2" d="M517.11,-287.7C522.87,-279.47 529.86,-269.48 536.21,-260.42"/>
<polygon fill="grey" stroke="grey" stroke-width="2" points="539.16,-262.3 542.03,-252.1 533.42,-258.29 539.16,-262.3"/>
</g>
<!-- 6 -->
<g id="node7" class="node">
<title>6</title>
<path fill="none" stroke="#56d86b" stroke-width="2" d="M367.91,-252C367.91,-252 206.09,-252 206.09,-252 200.09,-252 194.09,-246 194.09,-240 194.09,-240 194.09,-228 194.09,-228 194.09,-222 200.09,-216 206.09,-216 206.09,-216 367.91,-216 367.91,-216 373.91,-216 379.91,-222 379.91,-228 379.91,-228 379.91,-240 379.91,-240 379.91,-246 373.91,-252 367.91,-252"/>
<text text-anchor="middle" x="287" y="-231" font-family="sans" font-size="10.00">placement_hints_isocortex_ccfv3_l23split</text>
</g>
<!-- 5&#45;&gt;6 -->
<g id="edge15" class="edge">
<title>5&#45;&gt;6</title>
<path fill="none" stroke="grey" stroke-width="2" d="M451.95,-287.97C421.23,-278.1 382.36,-265.62 350.08,-255.25"/>
<polygon fill="grey" stroke="grey" stroke-width="2" points="350.88,-251.84 340.29,-252.11 348.74,-258.5 350.88,-251.84"/>
</g>
<!-- 5&#45;&gt;9 -->
<g id="edge22" class="edge">
<title>5&#45;&gt;9</title>
<path fill="none" stroke="grey" stroke-width="2" d="M492.66,-287.85C477.8,-268.24 451.17,-236.23 422,-216 402.98,-202.81 380.16,-192.04 359.1,-183.74"/>
<polygon fill="grey" stroke="grey" stroke-width="2" points="360.15,-180.4 349.56,-180.1 357.66,-186.94 360.15,-180.4"/>
</g>
<!-- 6&#45;&gt;0 -->
<g id="edge1" class="edge">
<title>6&#45;&gt;0</title>
<path fill="none" stroke="grey" stroke-width="2" d="M230.56,-215.96C213.56,-207.89 196.83,-196.33 187,-180 161.05,-136.88 190.56,-78.17 212.22,-44.87"/>
<polygon fill="grey" stroke="grey" stroke-width="2" points="215.39,-46.43 218.07,-36.18 209.58,-42.52 215.39,-46.43"/>
</g>
<!-- 6&#45;&gt;9 -->
<g id="edge20" class="edge">
<title>6&#45;&gt;9</title>
<path fill="none" stroke="grey" stroke-width="2" d="M288.73,-215.7C289.5,-207.98 290.43,-198.71 291.29,-190.11"/>
<polygon fill="grey" stroke="grey" stroke-width="2" points="294.78,-190.4 292.29,-180.1 287.81,-189.71 294.78,-190.4"/>
</g>
<!-- 7&#45;&gt;0 -->
<g id="edge8" class="edge">
<title>7&#45;&gt;0</title>
<path fill="none" stroke="grey" stroke-width="2" d="M219.64,-367.55C143.32,-353.41 38,-318.71 38,-235 38,-235 38,-235 38,-161 38,-98.28 104.95,-60.18 159.99,-39.46"/>
<polygon fill="grey" stroke="grey" stroke-width="2" points="161.2,-42.74 169.4,-36.04 158.81,-36.16 161.2,-42.74"/>
</g>
<!-- 7&#45;&gt;5 -->
<g id="edge14" class="edge">
<title>7&#45;&gt;5</title>
<path fill="none" stroke="grey" stroke-width="2" d="M347.62,-359.97C376.81,-350.14 413.69,-337.73 444.42,-327.39"/>
<polygon fill="grey" stroke="grey" stroke-width="2" points="445.8,-330.62 454.16,-324.11 443.56,-323.98 445.8,-330.62"/>
</g>
<!-- 7&#45;&gt;6 -->
<g id="edge16" class="edge">
<title>7&#45;&gt;6</title>
<path fill="none" stroke="grey" stroke-width="2" d="M295.79,-359.87C294.09,-335.67 290.96,-291.21 288.93,-262.39"/>
<polygon fill="grey" stroke="grey" stroke-width="2" points="292.4,-261.92 288.21,-252.19 285.42,-262.41 292.4,-261.92"/>
</g>
<!-- 8 -->
<g id="node9" class="node">
<title>8</title>
<path fill="none" stroke="#61d856" stroke-width="2" d="M163.86,-252C163.86,-252 78.14,-252 78.14,-252 72.14,-252 66.14,-246 66.14,-240 66.14,-240 66.14,-228 66.14,-228 66.14,-222 72.14,-216 78.14,-216 78.14,-216 163.86,-216 163.86,-216 169.86,-216 175.86,-222 175.86,-228 175.86,-228 175.86,-240 175.86,-240 175.86,-246 169.86,-252 163.86,-252"/>
<text text-anchor="middle" x="121" y="-231" font-family="sans" font-size="10.00">orientation_field_ccfv3</text>
</g>
<!-- 7&#45;&gt;8 -->
<g id="edge19" class="edge">
<title>7&#45;&gt;8</title>
<path fill="none" stroke="grey" stroke-width="2" d="M275.77,-359.87C244.45,-334.6 185.77,-287.25 150.35,-258.68"/>
<polygon fill="grey" stroke="grey" stroke-width="2" points="152.29,-255.74 142.31,-252.19 147.89,-261.19 152.29,-255.74"/>
</g>
<!-- 7&#45;&gt;9 -->
<g id="edge24" class="edge">
<title>7&#45;&gt;9</title>
<path fill="none" stroke="grey" stroke-width="2" d="M319.8,-359.77C356,-330.22 419.56,-268.05 389,-216 381.23,-202.77 368.83,-192.61 355.52,-184.89"/>
<polygon fill="grey" stroke="grey" stroke-width="2" points="357.15,-181.79 346.68,-180.16 353.85,-187.96 357.15,-181.79"/>
</g>
<!-- 8&#45;&gt;0 -->
<g id="edge2" class="edge">
<title>8&#45;&gt;0</title>
<path fill="none" stroke="grey" stroke-width="2" d="M124.42,-215.92C131.1,-185.25 147.94,-119.65 178,-72 184.61,-61.53 193.62,-51.52 202.34,-43.08"/>
<polygon fill="grey" stroke="grey" stroke-width="2" points="204.92,-45.46 209.86,-36.09 200.16,-40.33 204.92,-45.46"/>
</g>
<!-- 8&#45;&gt;9 -->
<g id="edge21" class="edge">
<title>8&#45;&gt;9</title>
<path fill="none" stroke="grey" stroke-width="2" d="M163.32,-215.88C187.18,-206.22 217.17,-194.09 242.4,-183.88"/>
<polygon fill="grey" stroke="grey" stroke-width="2" points="243.86,-187.06 251.82,-180.07 241.23,-180.57 243.86,-187.06"/>
</g>
<!-- 9&#45;&gt;1 -->
<g id="edge10" class="edge">
<title>9&#45;&gt;1</title>
<path fill="none" stroke="grey" stroke-width="2" d="M294,-143.7C294,-135.98 294,-126.71 294,-118.11"/>
<polygon fill="grey" stroke="grey" stroke-width="2" points="297.5,-118.1 294,-108.1 290.5,-118.1 297.5,-118.1"/>
</g>
<!-- 10&#45;&gt;1 -->
<g id="edge9" class="edge">
<title>10&#45;&gt;1</title>
<path fill="none" stroke="grey" stroke-width="2" d="M452.14,-143.97C422.81,-134.14 385.75,-121.73 354.88,-111.39"/>
<polygon fill="grey" stroke="grey" stroke-width="2" points="355.68,-107.97 345.09,-108.11 353.46,-114.61 355.68,-107.97"/>
</g>
<!-- 11 -->
<g id="node12" class="node">
<title>11</title>
<path fill="none" stroke="#56d88a" stroke-width="2" d="M547.44,-468C547.44,-468 430.56,-468 430.56,-468 424.56,-468 418.56,-462 418.56,-456 418.56,-456 418.56,-444 418.56,-444 418.56,-438 424.56,-432 430.56,-432 430.56,-432 547.44,-432 547.44,-432 553.44,-432 559.44,-438 559.44,-444 559.44,-444 559.44,-456 559.44,-456 559.44,-462 553.44,-468 547.44,-468"/>
<text text-anchor="middle" x="489" y="-447" font-family="sans" font-size="10.00">fetch_brain_parcellation_ccfv3</text>
</g>
<!-- 11&#45;&gt;5 -->
<g id="edge13" class="edge">
<title>11&#45;&gt;5</title>
<path fill="none" stroke="grey" stroke-width="2" d="M490.93,-431.87C493.66,-407.67 498.67,-363.21 501.91,-334.39"/>
<polygon fill="grey" stroke="grey" stroke-width="2" points="505.42,-334.52 503.06,-324.19 498.47,-333.73 505.42,-334.52"/>
</g>
<!-- 11&#45;&gt;7 -->
<g id="edge18" class="edge">
<title>11&#45;&gt;7</title>
<path fill="none" stroke="grey" stroke-width="2" d="M442.03,-431.88C415.32,-422.14 381.68,-409.87 353.53,-399.61"/>
<polygon fill="grey" stroke="grey" stroke-width="2" points="354.41,-396.21 343.82,-396.07 352.01,-402.78 354.41,-396.21"/>
</g>
</g>
</svg>
