<?xml version="1.0" encoding="UTF-8" standalone="no"?>
<!DOCTYPE svg PUBLIC "-//W3C//DTD SVG 1.1//EN"
 "http://www.w3.org/Graphics/SVG/1.1/DTD/svg11.dtd">
<!-- Generated by graphviz version 12.2.1 (20241206.2353)
 -->
<!-- Pages: 1 -->
<svg width="773pt" height="166pt"
 viewBox="0.00 0.00 772.75 166.00" xmlns="http://www.w3.org/2000/svg" xmlns:xlink="http://www.w3.org/1999/xlink">
<g id="graph0" class="graph" transform="scale(1 1) rotate(0) translate(4 162)">
<polygon fill="white" stroke="none" points="-4,4 -4,-162 768.75,-162 768.75,4 -4,4"/>
<!-- step_load_data -->
<g id="node1" class="node">
<title>step_load_data</title>
<polygon fill="lightblue" stroke="#b3b3b3" points="75.25,-99 0,-99 0,-63 75.25,-63 75.25,-99"/>
<text text-anchor="middle" x="37.62" y="-75.2" font-family="Helvetica,sans-Serif" font-size="14.00">load_data</text>
</g>
<!-- x -->
<g id="node2" class="node">
<title>x</title>
<path fill="white" stroke="#b3b3b3" d="M153.25,-155C153.25,-155 123.25,-155 123.25,-155 117.25,-155 111.25,-149 111.25,-143 111.25,-143 111.25,-131 111.25,-131 111.25,-125 117.25,-119 123.25,-119 123.25,-119 153.25,-119 153.25,-119 159.25,-119 165.25,-125 165.25,-131 165.25,-131 165.25,-143 165.25,-143 165.25,-149 159.25,-155 153.25,-155"/>
<text text-anchor="middle" x="138.25" y="-131.2" font-family="Helvetica,sans-Serif" font-size="14.00">x</text>
</g>
<!-- step_load_data&#45;&gt;x -->
<g id="edge1" class="edge">
<title>step_load_data&#45;&gt;x</title>
<path fill="none" stroke="#b3b3b3" d="M71.19,-99.49C80.77,-104.93 91.3,-110.91 101.09,-116.47"/>
<polygon fill="#b3b3b3" stroke="#b3b3b3" points="99.21,-119.43 109.63,-121.32 102.67,-113.34 99.21,-119.43"/>
</g>
<!-- y -->
<g id="node3" class="node">
<title>y</title>
<path fill="white" stroke="#b3b3b3" d="M153.25,-99C153.25,-99 123.25,-99 123.25,-99 117.25,-99 111.25,-93 111.25,-87 111.25,-87 111.25,-75 111.25,-75 111.25,-69 117.25,-63 123.25,-63 123.25,-63 153.25,-63 153.25,-63 159.25,-63 165.25,-69 165.25,-75 165.25,-75 165.25,-87 165.25,-87 165.25,-93 159.25,-99 153.25,-99"/>
<text text-anchor="middle" x="138.25" y="-75.2" font-family="Helvetica,sans-Serif" font-size="14.00">y</text>
</g>
<!-- step_load_data&#45;&gt;y -->
<g id="edge2" class="edge">
<title>step_load_data&#45;&gt;y</title>
<path fill="none" stroke="#b3b3b3" d="M75.63,-81C83.4,-81 91.6,-81 99.4,-81"/>
<polygon fill="#b3b3b3" stroke="#b3b3b3" points="99.3,-84.5 109.3,-81 99.3,-77.5 99.3,-84.5"/>
</g>
<!-- z -->
<g id="node4" class="node">
<title>z</title>
<path fill="white" stroke="#b3b3b3" d="M255,-36C255,-36 225,-36 225,-36 219,-36 213,-30 213,-24 213,-24 213,-12 213,-12 213,-6 219,0 225,0 225,0 255,0 255,0 261,0 267,-6 267,-12 267,-12 267,-24 267,-24 267,-30 261,-36 255,-36"/>
<text text-anchor="middle" x="240" y="-12.2" font-family="Helvetica,sans-Serif" font-size="14.00">z</text>
</g>
<!-- step_load_data&#45;&gt;z -->
<g id="edge3" class="edge">
<title>step_load_data&#45;&gt;z</title>
<path fill="none" stroke="#b3b3b3" d="M75.74,-66.54C87.07,-62.31 99.61,-57.8 111.25,-54 141.46,-44.15 176.18,-34.46 201.8,-27.63"/>
<polygon fill="#b3b3b3" stroke="#b3b3b3" points="202.64,-31.02 211.42,-25.08 200.85,-24.26 202.64,-31.02"/>
</g>
<!-- step_process_x -->
<g id="node5" class="node">
<title>step_process_x</title>
<polygon fill="lightblue" stroke="#b3b3b3" points="278.75,-158 201.25,-158 201.25,-122 278.75,-122 278.75,-158"/>
<text text-anchor="middle" x="240" y="-134.2" font-family="Helvetica,sans-Serif" font-size="14.00">process_x</text>
</g>
<!-- x&#45;&gt;step_process_x -->
<g id="edge4" class="edge">
<title>x&#45;&gt;step_process_x</title>
<path fill="none" stroke="#b3b3b3" d="M165.72,-137.8C173.02,-138.02 181.18,-138.26 189.33,-138.51"/>
<polygon fill="#b3b3b3" stroke="#b3b3b3" points="189.15,-142 199.25,-138.8 189.36,-135.01 189.15,-142"/>
</g>
<!-- step_process_y -->
<g id="node7" class="node">
<title>step_process_y</title>
<polygon fill="lightblue" stroke="#b3b3b3" points="278.75,-99 201.25,-99 201.25,-63 278.75,-63 278.75,-99"/>
<text text-anchor="middle" x="240" y="-75.2" font-family="Helvetica,sans-Serif" font-size="14.00">process_y</text>
</g>
<!-- y&#45;&gt;step_process_y -->
<g id="edge6" class="edge">
<title>y&#45;&gt;step_process_y</title>
<path fill="none" stroke="#b3b3b3" d="M165.72,-81C173.02,-81 181.18,-81 189.33,-81"/>
<polygon fill="#b3b3b3" stroke="#b3b3b3" points="189.25,-84.5 199.25,-81 189.25,-77.5 189.25,-84.5"/>
</g>
<!-- step_process_z -->
<g id="node10" class="node">
<title>step_process_z</title>
<polygon fill="lightblue" stroke="#b3b3b3" points="492.25,-86 414.75,-86 414.75,-50 492.25,-50 492.25,-86"/>
<text text-anchor="middle" x="453.5" y="-62.2" font-family="Helvetica,sans-Serif" font-size="14.00">process_z</text>
</g>
<!-- z&#45;&gt;step_process_z -->
<g id="edge11" class="edge">
<title>z&#45;&gt;step_process_z</title>
<path fill="none" stroke="#b3b3b3" d="M267.32,-13.51C295.55,-9.71 341.37,-6.52 378.75,-18 395.05,-23.01 410.99,-32.97 423.86,-42.7"/>
<polygon fill="#b3b3b3" stroke="#b3b3b3" points="421.44,-45.25 431.45,-48.72 425.79,-39.77 421.44,-45.25"/>
</g>
<!-- proc_x -->
<g id="node6" class="node">
<title>proc_x</title>
<path fill="white" stroke="#b3b3b3" d="M469.75,-151C469.75,-151 437.25,-151 437.25,-151 431.25,-151 425.25,-145 425.25,-139 425.25,-139 425.25,-127 425.25,-127 425.25,-121 431.25,-115 437.25,-115 437.25,-115 469.75,-115 469.75,-115 475.75,-115 481.75,-121 481.75,-127 481.75,-127 481.75,-139 481.75,-139 481.75,-145 475.75,-151 469.75,-151"/>
<text text-anchor="middle" x="453.5" y="-127.2" font-family="Helvetica,sans-Serif" font-size="14.00">proc_x</text>
</g>
<!-- step_process_x&#45;&gt;proc_x -->
<g id="edge5" class="edge">
<title>step_process_x&#45;&gt;proc_x</title>
<path fill="none" stroke="#b3b3b3" d="M278.81,-138.75C316.82,-137.49 375.14,-135.56 413.55,-134.29"/>
<polygon fill="#b3b3b3" stroke="#b3b3b3" points="413.4,-137.8 423.27,-133.97 413.16,-130.8 413.4,-137.8"/>
</g>
<!-- step_final -->
<g id="node12" class="node">
<title>step_final</title>
<polygon fill="lightblue" stroke="#b3b3b3" points="674.75,-113 620.75,-113 620.75,-77 674.75,-77 674.75,-113"/>
<text text-anchor="middle" x="647.75" y="-89.2" font-family="Helvetica,sans-Serif" font-size="14.00">final</text>
</g>
<!-- proc_x&#45;&gt;step_final -->
<g id="edge13" class="edge">
<title>proc_x&#45;&gt;step_final</title>
<path fill="none" stroke="#b3b3b3" d="M482.04,-127.56C515.54,-120.93 572.22,-109.73 609.57,-102.35"/>
<polygon fill="#b3b3b3" stroke="#b3b3b3" points="609.87,-105.86 619.01,-100.48 608.52,-98.99 609.87,-105.86"/>
</g>
<!-- proc_y1 -->
<g id="node8" class="node">
<title>proc_y1</title>
<path fill="white" stroke="#b3b3b3" d="M366.75,-117C366.75,-117 326.75,-117 326.75,-117 320.75,-117 314.75,-111 314.75,-105 314.75,-105 314.75,-93 314.75,-93 314.75,-87 320.75,-81 326.75,-81 326.75,-81 366.75,-81 366.75,-81 372.75,-81 378.75,-87 378.75,-93 378.75,-93 378.75,-105 378.75,-105 378.75,-111 372.75,-117 366.75,-117"/>
<text text-anchor="middle" x="346.75" y="-93.2" font-family="Helvetica,sans-Serif" font-size="14.00">proc_y1</text>
</g>
<!-- step_process_y&#45;&gt;proc_y1 -->
<g id="edge7" class="edge">
<title>step_process_y&#45;&gt;proc_y1</title>
<path fill="none" stroke="#b3b3b3" d="M279.11,-87.55C286.9,-88.89 295.13,-90.3 303.06,-91.66"/>
<polygon fill="#b3b3b3" stroke="#b3b3b3" points="302.43,-95.11 312.88,-93.35 303.62,-88.21 302.43,-95.11"/>
</g>
<!-- proc_y2 -->
<g id="node9" class="node">
<title>proc_y2</title>
<path fill="white" stroke="#b3b3b3" d="M366.75,-63C366.75,-63 326.75,-63 326.75,-63 320.75,-63 314.75,-57 314.75,-51 314.75,-51 314.75,-39 314.75,-39 314.75,-33 320.75,-27 326.75,-27 326.75,-27 366.75,-27 366.75,-27 372.75,-27 378.75,-33 378.75,-39 378.75,-39 378.75,-51 378.75,-51 378.75,-57 372.75,-63 366.75,-63"/>
<text text-anchor="middle" x="346.75" y="-39.2" font-family="Helvetica,sans-Serif" font-size="14.00">proc_y2</text>
</g>
<!-- step_process_y&#45;&gt;proc_y2 -->
<g id="edge8" class="edge">
<title>step_process_y&#45;&gt;proc_y2</title>
<path fill="none" stroke="#b3b3b3" d="M279.11,-67.9C287.08,-65.16 295.52,-62.26 303.61,-59.48"/>
<polygon fill="#b3b3b3" stroke="#b3b3b3" points="304.62,-62.84 312.94,-56.28 302.35,-56.22 304.62,-62.84"/>
</g>
<!-- proc_y1&#45;&gt;step_process_z -->
<g id="edge9" class="edge">
<title>proc_y1&#45;&gt;step_process_z</title>
<path fill="none" stroke="#b3b3b3" d="M379.18,-89.7C386.89,-87.42 395.32,-84.92 403.64,-82.46"/>
<polygon fill="#b3b3b3" stroke="#b3b3b3" points="404.39,-85.89 412.98,-79.7 402.4,-79.18 404.39,-85.89"/>
</g>
<!-- proc_y2&#45;&gt;step_process_z -->
<g id="edge10" class="edge">
<title>proc_y2&#45;&gt;step_process_z</title>
<path fill="none" stroke="#b3b3b3" d="M379.18,-51.9C386.8,-53.57 395.13,-55.4 403.36,-57.21"/>
<polygon fill="#b3b3b3" stroke="#b3b3b3" points="402.44,-60.59 412.95,-59.32 403.94,-53.75 402.44,-60.59"/>
</g>
<!-- proc_z -->
<g id="node11" class="node">
<title>proc_z</title>
<path fill="white" stroke="#b3b3b3" d="M572.75,-90C572.75,-90 540.25,-90 540.25,-90 534.25,-90 528.25,-84 528.25,-78 528.25,-78 528.25,-66 528.25,-66 528.25,-60 534.25,-54 540.25,-54 540.25,-54 572.75,-54 572.75,-54 578.75,-54 584.75,-60 584.75,-66 584.75,-66 584.75,-78 584.75,-78 584.75,-84 578.75,-90 572.75,-90"/>
<text text-anchor="middle" x="556.5" y="-66.2" font-family="Helvetica,sans-Serif" font-size="14.00">proc_z</text>
</g>
<!-- step_process_z&#45;&gt;proc_z -->
<g id="edge12" class="edge">
<title>step_process_z&#45;&gt;proc_z</title>
<path fill="none" stroke="#b3b3b3" d="M492.68,-69.51C500.47,-69.82 508.68,-70.15 516.5,-70.46"/>
<polygon fill="#b3b3b3" stroke="#b3b3b3" points="516.32,-73.95 526.45,-70.85 516.6,-66.96 516.32,-73.95"/>
</g>
<!-- proc_z&#45;&gt;step_final -->
<g id="edge14" class="edge">
<title>proc_z&#45;&gt;step_final</title>
<path fill="none" stroke="#b3b3b3" d="M584.76,-79.03C592.52,-81.02 601.1,-83.24 609.34,-85.36"/>
<polygon fill="#b3b3b3" stroke="#b3b3b3" points="608.24,-88.69 618.8,-87.8 609.99,-81.91 608.24,-88.69"/>
</g>
<!-- final -->
<g id="node13" class="node">
<title>final</title>
<path fill="white" stroke="#b3b3b3" d="M752.75,-113C752.75,-113 722.75,-113 722.75,-113 716.75,-113 710.75,-107 710.75,-101 710.75,-101 710.75,-89 710.75,-89 710.75,-83 716.75,-77 722.75,-77 722.75,-77 752.75,-77 752.75,-77 758.75,-77 764.75,-83 764.75,-89 764.75,-89 764.75,-101 764.75,-101 764.75,-107 758.75,-113 752.75,-113"/>
<text text-anchor="middle" x="737.75" y="-89.2" font-family="Helvetica,sans-Serif" font-size="14.00">final</text>
</g>
<!-- step_final&#45;&gt;final -->
<g id="edge15" class="edge">
<title>step_final&#45;&gt;final</title>
<path fill="none" stroke="#b3b3b3" d="M675.15,-95C682.64,-95 690.93,-95 698.95,-95"/>
<polygon fill="#b3b3b3" stroke="#b3b3b3" points="698.85,-98.5 708.85,-95 698.85,-91.5 698.85,-98.5"/>
</g>
</g>
</svg>
