<?xml version="1.0" encoding="UTF-8"?>
<svg id="Ebene_2" xmlns="http://www.w3.org/2000/svg" viewBox="0 0 973.81 236.74">
  <g id="Ebene_1-2" data-name="Ebene_1">
    <g>
      <g>
        <polygon points="824.58 97.96 768.76 50.45 778.27 90.14 824.58 97.96" style="fill: #2fa8e1;"/>
        <polygon points="810.6 9.72 768.46 42.11 830.01 94.5 810.6 9.72" style="fill: #2fa8e1;"/>
        <polygon points="880.41 60.03 899.88 121.32 919.46 8.44 880.41 60.03" style="fill: #2fa8e1;"/>
        <polygon points="872.5 59.67 817.61 12.73 836.82 96.64 872.5 59.67" style="fill: #2fa8e1;"/>
        <polygon points="973.81 89.35 926.22 5.42 904.92 128.36 973.81 89.35" style="fill: #2fa8e1;"/>
        <polygon points="820.27 6.88 876.51 55.01 918.09 0 820.27 6.88" style="fill: #2fa8e1;"/>
        <polygon points="968.96 99.22 904.62 135.63 920.67 176.29 968.96 99.22" style="fill: #2fa8e1;"/>
        <polygon points="876.86 69.13 855.88 128.03 896.46 130.86 876.86 69.13" style="fill: #2fa8e1;"/>
        <polygon points="838.93 103.32 850.93 123.61 869.3 71.82 838.93 103.32" style="fill: #2fa8e1;"/>
      </g>
      <g>
        <path d="M6.6,236.74H0v-68.68h6.6v7.86h.29c1.87-2.97,4.38-5.22,7.52-6.74,3.14-1.52,6.32-2.28,9.55-2.28,3.56,0,6.77.62,9.65,1.84,2.88,1.23,5.33,2.91,7.37,5.04s3.62,4.66,4.75,7.57c1.13,2.91,1.7,6.05,1.7,9.41s-.57,6.5-1.7,9.41c-1.13,2.91-2.72,5.43-4.75,7.57-2.04,2.13-4.5,3.82-7.37,5.04-2.88,1.23-6.1,1.84-9.65,1.84-3.23,0-6.42-.76-9.55-2.28-3.14-1.52-5.64-3.7-7.52-6.55h-.29v30.94ZM40.45,190.77c0-2.52-.39-4.9-1.16-7.13-.78-2.23-1.89-4.17-3.35-5.82s-3.25-2.96-5.38-3.93c-2.13-.97-4.56-1.46-7.28-1.46-2.52,0-4.85.47-6.98,1.41-2.13.94-3.98,2.23-5.53,3.88-1.55,1.65-2.76,3.59-3.64,5.82-.87,2.23-1.31,4.64-1.31,7.23s.44,5,1.31,7.23c.87,2.23,2.08,4.16,3.64,5.77,1.55,1.62,3.4,2.9,5.53,3.83,2.13.94,4.46,1.41,6.98,1.41,2.72,0,5.14-.47,7.28-1.41,2.13-.94,3.93-2.23,5.38-3.88,1.46-1.65,2.57-3.59,3.35-5.82.78-2.23,1.16-4.61,1.16-7.13Z" style="fill: #2fa8e1;"/>
        <path d="M66.35,173.31c-.06-1.94-.16-3.69-.29-5.24h6.31c.13,1.23.23,2.59.29,4.07.06,1.49.1,2.72.1,3.69h.19c1.29-2.65,3.23-4.8,5.82-6.45,2.59-1.65,5.5-2.47,8.73-2.47.84,0,1.6.03,2.28.1.68.07,1.37.19,2.09.39l-.87,6.31c-.39-.13-1.04-.26-1.94-.39-.91-.13-1.81-.19-2.72-.19-1.75,0-3.43.32-5.04.97-1.62.65-3.02,1.66-4.22,3.05-1.2,1.39-2.17,3.16-2.91,5.32-.74,2.16-1.12,4.76-1.12,7.79v23.22h-6.6v-35.41c0-1.23-.03-2.81-.1-4.75Z" style="fill: #2fa8e1;"/>
        <path d="M134.83,184.08c0-3.91-1.04-6.83-3.1-8.76-2.07-1.92-5.08-2.89-9.02-2.89-2.72,0-5.24.49-7.57,1.46-2.33.97-4.3,2.26-5.92,3.88l-3.69-4.36c1.88-1.88,4.35-3.43,7.42-4.66,3.07-1.23,6.55-1.84,10.43-1.84,2.46,0,4.75.34,6.89,1.02,2.13.68,4.01,1.7,5.63,3.05,1.62,1.36,2.88,3.07,3.78,5.14.91,2.07,1.36,4.5,1.36,7.27v19.89c0,1.75.06,3.56.19,5.43.13,1.88.32,3.46.58,4.75h-5.92c-.2-1.1-.36-2.29-.49-3.59-.13-1.29-.19-2.55-.19-3.78h-.19c-2.07,3.04-4.41,5.22-7.03,6.55-2.62,1.32-5.77,1.99-9.46,1.99-1.75,0-3.54-.24-5.38-.73-1.84-.49-3.53-1.28-5.04-2.38-1.52-1.1-2.78-2.53-3.78-4.28-1-1.75-1.5-3.89-1.5-6.42,0-3.5.89-6.28,2.67-8.32,1.78-2.04,4.15-3.57,7.13-4.57,2.97-1.01,6.39-1.65,10.23-1.95,3.85-.29,7.84-.44,11.98-.44v-1.45ZM132.89,190.77c-2.72,0-5.45.11-8.2.34-2.75.23-5.24.68-7.47,1.36-2.23.68-4.06,1.67-5.48,2.96-1.42,1.29-2.13,3.01-2.13,5.14,0,1.62.31,2.98.92,4.07.61,1.1,1.44,1.99,2.47,2.67,1.03.68,2.18,1.16,3.44,1.46,1.26.29,2.54.44,3.83.44,2.33,0,4.4-.4,6.21-1.21,1.81-.81,3.33-1.91,4.56-3.3,1.23-1.39,2.17-2.99,2.81-4.8.64-1.81.97-3.72.97-5.72v-3.4h-1.94Z" style="fill: #2fa8e1;"/>
        <path d="M165.29,222.58c1.81,2.33,4.28,4.3,7.42,5.92,3.14,1.62,6.45,2.42,9.94,2.42,3.23,0,5.98-.47,8.25-1.41,2.26-.94,4.09-2.22,5.48-3.83,1.39-1.62,2.41-3.51,3.05-5.67.65-2.17.97-4.48.97-6.94v-8.54h-.19c-1.75,2.85-4.22,5.04-7.42,6.6-3.2,1.55-6.45,2.33-9.75,2.33-3.56,0-6.77-.58-9.65-1.75-2.88-1.16-5.33-2.76-7.37-4.8s-3.62-4.48-4.75-7.32c-1.13-2.84-1.7-5.92-1.7-9.21s.57-6.27,1.7-9.12c1.13-2.84,2.72-5.33,4.75-7.47s4.49-3.82,7.37-5.04c2.88-1.23,6.09-1.84,9.65-1.84,3.3,0,6.53.78,9.7,2.33,3.17,1.55,5.66,3.78,7.47,6.69h.19v-7.86h6.6v45.01c0,2.46-.34,5.08-1.02,7.86-.68,2.78-1.94,5.33-3.78,7.66-1.84,2.33-4.35,4.27-7.52,5.82-3.17,1.55-7.28,2.33-12.32,2.33-4.2,0-8.21-.81-12.03-2.42-3.82-1.62-7.08-3.85-9.8-6.69l4.75-5.04ZM166.55,190.18c0,2.39.39,4.66,1.16,6.79.78,2.13,1.89,4.01,3.35,5.63,1.46,1.62,3.25,2.9,5.38,3.83,2.13.94,4.56,1.41,7.28,1.41,2.52,0,4.85-.42,6.98-1.26,2.13-.84,3.98-2.04,5.53-3.59,1.55-1.55,2.76-3.41,3.64-5.58.87-2.17,1.31-4.57,1.31-7.23,0-2.39-.44-4.66-1.31-6.79-.87-2.13-2.09-4.01-3.64-5.63-1.55-1.62-3.4-2.91-5.53-3.88s-4.46-1.46-6.98-1.46c-2.72,0-5.14.49-7.28,1.46-2.13.97-3.93,2.26-5.38,3.88-1.45,1.62-2.57,3.49-3.35,5.63-.78,2.13-1.16,4.4-1.16,6.79Z" style="fill: #2fa8e1;"/>
        <path d="M241.48,169.38c2.68-1.65,5.67-2.47,8.97-2.47,1.23,0,2.51.13,3.83.39,1.32.26,2.62.76,3.88,1.5,1.26.74,2.43,1.73,3.49,2.96,1.07,1.23,1.99,2.81,2.76,4.75,1.55-3.1,3.67-5.48,6.35-7.13,2.68-1.65,5.87-2.47,9.55-2.47,5.75,0,10.07,1.71,12.95,5.14,2.88,3.43,4.32,7.95,4.32,13.58v27.84h-6.6v-25.12c0-4.79-.89-8.63-2.67-11.54-1.78-2.91-4.8-4.37-9.07-4.37-2.39,0-4.41.49-6.06,1.46-1.65.97-2.97,2.25-3.98,3.83-1,1.58-1.73,3.38-2.18,5.38-.45,2.01-.68,4.07-.68,6.21v24.15h-6.6v-26.48c0-2.2-.16-4.2-.49-6.01-.33-1.81-.89-3.35-1.7-4.61s-1.92-2.23-3.35-2.91c-1.42-.68-3.23-1.02-5.43-1.02-1.55,0-3.12.36-4.71,1.07-1.59.71-3.01,1.79-4.27,3.25-1.26,1.46-2.28,3.3-3.06,5.53-.78,2.23-1.16,4.87-1.16,7.91v23.28h-6.6v-35.41c0-1.23-.03-2.81-.1-4.75-.07-1.94-.16-3.69-.29-5.24h6.31c.13,1.23.23,2.59.29,4.07.06,1.49.1,2.72.1,3.69h.19c1.29-2.65,3.28-4.8,5.96-6.45Z" style="fill: #2fa8e1;"/>
        <path d="M348.13,184.08c0-3.91-1.04-6.83-3.1-8.76-2.07-1.92-5.08-2.89-9.02-2.89-2.72,0-5.24.49-7.57,1.46-2.33.97-4.3,2.26-5.92,3.88l-3.69-4.36c1.88-1.88,4.35-3.43,7.42-4.66,3.07-1.23,6.55-1.84,10.43-1.84,2.46,0,4.75.34,6.89,1.02,2.13.68,4.01,1.7,5.63,3.05,1.62,1.36,2.88,3.07,3.78,5.14.91,2.07,1.36,4.5,1.36,7.27v19.89c0,1.75.06,3.56.19,5.43.13,1.88.32,3.46.58,4.75h-5.92c-.2-1.1-.36-2.29-.49-3.59-.13-1.29-.19-2.55-.19-3.78h-.19c-2.07,3.04-4.41,5.22-7.03,6.55-2.62,1.32-5.77,1.99-9.46,1.99-1.75,0-3.54-.24-5.38-.73-1.84-.49-3.53-1.28-5.04-2.38-1.52-1.1-2.78-2.53-3.78-4.28-1-1.75-1.5-3.89-1.5-6.42,0-3.5.89-6.28,2.67-8.32,1.78-2.04,4.15-3.57,7.13-4.57,2.97-1.01,6.39-1.65,10.23-1.95,3.85-.29,7.84-.44,11.98-.44v-1.45ZM346.19,190.77c-2.72,0-5.45.11-8.2.34-2.75.23-5.24.68-7.47,1.36-2.23.68-4.06,1.67-5.48,2.96-1.42,1.29-2.13,3.01-2.13,5.14,0,1.62.31,2.98.92,4.07.61,1.1,1.44,1.99,2.47,2.67,1.03.68,2.18,1.16,3.44,1.46,1.26.29,2.54.44,3.83.44,2.33,0,4.4-.4,6.21-1.21,1.81-.81,3.33-1.91,4.56-3.3,1.23-1.39,2.17-2.99,2.81-4.8.64-1.81.97-3.72.97-5.72v-3.4h-1.94Z" style="fill: #2fa8e1;"/>
        <path d="M396.63,173.6h-12.8v26.48c0,1.68.16,3.07.48,4.17.32,1.1.79,1.96,1.41,2.57.61.62,1.34,1.04,2.18,1.26.84.23,1.75.34,2.72.34.91,0,1.86-.13,2.86-.39,1-.26,1.96-.61,2.86-1.07l.29,5.72c-1.16.45-2.38.79-3.64,1.02-1.26.23-2.64.34-4.12.34-1.23,0-2.52-.16-3.88-.49-1.36-.32-2.62-.94-3.78-1.84-1.16-.9-2.12-2.13-2.86-3.69-.74-1.55-1.12-3.59-1.12-6.11v-28.32h-9.41v-5.53h9.41v-12.8h6.6v12.8h12.8v5.53Z" style="fill: #2fa8e1;"/>
        <path d="M419.81,150.61c0,1.36-.48,2.47-1.46,3.35-.97.87-2.04,1.31-3.2,1.31s-2.23-.44-3.2-1.31c-.97-.87-1.46-1.99-1.46-3.35s.49-2.47,1.46-3.35c.97-.87,2.04-1.31,3.2-1.31s2.23.44,3.2,1.31c.97.87,1.46,1.99,1.46,3.35ZM418.45,213.46h-6.6v-45.4h6.6v45.4Z" style="fill: #2fa8e1;"/>
        <path d="M473.55,178.45c-1.1-1.75-2.7-3.18-4.8-4.32-2.1-1.13-4.38-1.7-6.84-1.7-2.65,0-5.04.47-7.18,1.41s-3.96,2.23-5.48,3.88c-1.52,1.65-2.68,3.59-3.49,5.82-.81,2.23-1.21,4.64-1.21,7.23s.4,4.98,1.21,7.18,1.96,4.12,3.44,5.77c1.49,1.65,3.3,2.94,5.43,3.88,2.13.94,4.53,1.41,7.18,1.41,2.91,0,5.37-.55,7.37-1.65,2-1.1,3.65-2.52,4.95-4.27l4.95,3.69c-1.94,2.39-4.32,4.3-7.13,5.72-2.81,1.42-6.19,2.13-10.14,2.13-3.69,0-7.02-.6-9.99-1.79-2.97-1.2-5.51-2.86-7.62-5s-3.73-4.66-4.9-7.57c-1.16-2.91-1.75-6.08-1.75-9.51s.58-6.6,1.75-9.51,2.8-5.43,4.9-7.57c2.1-2.13,4.64-3.8,7.62-5,2.97-1.2,6.3-1.79,9.99-1.79,3.04,0,6.13.66,9.26,1.99,3.14,1.33,5.68,3.28,7.62,5.87l-5.14,3.69Z" style="fill: #2fa8e1;"/>
        <path d="M556.29,213.46v-26.38c0-1.36-.1-2.67-.29-3.93s-.55-2.34-1.07-3.25c-.52-.91-1.21-1.63-2.09-2.18-.87-.55-2.02-.83-3.44-.83s-2.54.29-3.54.87c-1,.58-1.84,1.36-2.52,2.33s-1.18,2.09-1.5,3.35c-.32,1.26-.48,2.57-.48,3.93v26.09h-15.91v-27.55c0-2.78-.55-4.98-1.65-6.6-1.1-1.62-2.85-2.43-5.24-2.43-2.52,0-4.48,1-5.87,3.01-1.39,2-2.09,4.46-2.09,7.37v26.19h-16v-48.31h15.42v6.69h.2c.58-1.03,1.31-2.04,2.18-3.01s1.92-1.83,3.15-2.57c1.23-.74,2.6-1.34,4.12-1.79,1.52-.45,3.18-.68,5-.68,3.49,0,6.45.71,8.88,2.13,2.42,1.42,4.32,3.46,5.67,6.11,1.62-2.52,3.69-4.53,6.21-6.01,2.52-1.49,5.59-2.23,9.21-2.23,3.3,0,6.06.6,8.29,1.79,2.23,1.2,4.03,2.75,5.38,4.66,1.36,1.91,2.34,4.04,2.96,6.4.61,2.36.92,4.67.92,6.94v29.88h-15.91Z" style="fill: #2fa8e1;"/>
        <path d="M609.25,149.74c0,1.23-.24,2.38-.73,3.44-.48,1.07-1.13,1.99-1.94,2.76-.81.78-1.78,1.39-2.91,1.84-1.13.45-2.31.68-3.54.68-2.59,0-4.75-.86-6.5-2.57-1.75-1.71-2.62-3.77-2.62-6.16,0-1.16.22-2.28.68-3.35.45-1.07,1.1-1.99,1.94-2.76.84-.78,1.81-1.41,2.91-1.89s2.29-.73,3.59-.73,2.41.23,3.54.68c1.13.45,2.1,1.07,2.91,1.84.81.78,1.46,1.7,1.94,2.76.48,1.07.73,2.22.73,3.44ZM592.18,213.46v-48.31h15.91v48.31h-15.91Z" style="fill: #2fa8e1;"/>
        <path d="M660.17,213.46v-26.38c0-1.36-.11-2.65-.34-3.88-.23-1.23-.6-2.31-1.12-3.25-.52-.94-1.24-1.68-2.18-2.23-.94-.55-2.12-.83-3.54-.83s-2.67.28-3.73.83c-1.07.55-1.96,1.31-2.67,2.28s-1.24,2.08-1.6,3.35c-.36,1.26-.53,2.57-.53,3.93v26.19h-16.01v-48.31h15.42v6.69h.19c.58-1.03,1.34-2.05,2.28-3.06.94-1,2.04-1.86,3.3-2.57,1.26-.71,2.63-1.29,4.12-1.75,1.49-.45,3.07-.68,4.75-.68,3.23,0,5.98.58,8.25,1.75,2.26,1.16,4.09,2.67,5.48,4.51,1.39,1.84,2.39,3.96,3.01,6.35.61,2.39.92,4.79.92,7.18v29.88h-16.01Z" style="fill: #2fa8e1;"/>
        <path d="M732.54,213.46v-6.3h-.19c-1.55,2.46-3.77,4.35-6.64,5.67-2.88,1.33-5.93,1.99-9.17,1.99-3.62,0-6.86-.71-9.7-2.13-2.85-1.42-5.25-3.31-7.23-5.67-1.97-2.36-3.48-5.09-4.51-8.2-1.04-3.1-1.55-6.34-1.55-9.7s.53-6.58,1.6-9.65c1.07-3.07,2.58-5.77,4.56-8.1,1.97-2.33,4.37-4.17,7.18-5.53s5.96-2.04,9.46-2.04,6.56.68,9.02,2.04c2.46,1.36,4.37,2.85,5.72,4.46h.19v-30.17h15.91v73.33h-14.65ZM731.95,189.21c0-1.55-.28-3.07-.82-4.56-.55-1.49-1.33-2.81-2.33-3.98-1-1.16-2.22-2.1-3.64-2.81-1.42-.71-3.04-1.07-4.85-1.07s-3.53.36-4.95,1.07c-1.42.71-2.62,1.63-3.59,2.76-.97,1.13-1.7,2.44-2.18,3.93-.49,1.49-.73,3.01-.73,4.56s.24,3.09.73,4.61c.48,1.52,1.21,2.86,2.18,4.03s2.17,2.1,3.59,2.81c1.42.71,3.07,1.07,4.95,1.07s3.43-.35,4.85-1.07c1.42-.71,2.63-1.65,3.64-2.81,1-1.16,1.78-2.49,2.33-3.98.55-1.49.82-3.01.82-4.56Z" style="fill: #2fa8e1;"/>
        <path d="M795.97,179.42c-1.29-1.23-2.81-2.26-4.56-3.1-1.75-.84-3.59-1.26-5.53-1.26-1.49,0-2.86.29-4.12.87s-1.89,1.58-1.89,3.01.69,2.33,2.08,2.91,3.64,1.23,6.74,1.94c1.81.39,3.64.94,5.48,1.65,1.84.71,3.51,1.65,5,2.81,1.49,1.16,2.68,2.59,3.59,4.27.91,1.68,1.36,3.69,1.36,6.01,0,3.04-.62,5.61-1.84,7.71-1.23,2.1-2.83,3.8-4.8,5.09-1.97,1.29-4.19,2.23-6.64,2.81-2.46.58-4.92.87-7.37.87-3.95,0-7.81-.63-11.59-1.89-3.78-1.26-6.94-3.12-9.46-5.58l8.92-9.41c1.42,1.55,3.17,2.85,5.24,3.88,2.07,1.04,4.27,1.55,6.6,1.55,1.29,0,2.57-.31,3.83-.92,1.26-.61,1.89-1.7,1.89-3.25s-.78-2.58-2.33-3.3c-1.55-.71-3.98-1.46-7.27-2.23-1.68-.39-3.36-.91-5.04-1.55-1.68-.65-3.19-1.52-4.51-2.62-1.33-1.1-2.41-2.46-3.25-4.07-.84-1.62-1.26-3.56-1.26-5.82,0-2.91.62-5.38,1.84-7.42,1.23-2.04,2.81-3.7,4.75-5,1.94-1.29,4.09-2.25,6.45-2.86,2.36-.61,4.71-.92,7.03-.92,3.62,0,7.16.57,10.62,1.7,3.46,1.13,6.38,2.83,8.78,5.09l-8.73,9.02Z" style="fill: #2fa8e1;"/>
      </g>
    </g>
  </g>
</svg>